<svg xmlns="http://www.w3.org/2000/svg" viewBox="0 0 15 15">
<path d="M8 0.4C6.88 0.38 5.76 0.66 4.76 1.25 2.74 2.42 1.46 4.6 1.34 7.02L1.67 7.05C1.67 7.05 2.07 8.58 2.23 8.63V8.63 8.63H2.24V8.63 8.63H2.25V8.63 8.63 8.63 8.63C2.28 8.61 2.29 8.53 2.29 8.37 2.29 7.33 2.97 3.7 5.38 2.26 7.06 1.26 9.6 1.51 11.26 2.53 11.26 2.53 10.91 1.86 10.99 1.73L11.21 1.34C10.22 0.73 9.11 0.41 8 0.4ZM7.52 3C6.74 3 5.97 3.42 5.35 4.18 5.68 3.9 6.31 3.46 6.88 3.79 7.47 4.14 7.53 5.16 7.02 6.06 6.51 6.97 5.62 7.42 5.03 7.07 4.58 6.8 4.42 6.13 4.64 5.38 4.24 6.3 4.02 7.39 4.02 8.5 4.02 11.54 5.59 14 7.52 14 9.46 14 11.02 11.54 11.02 8.5 11.02 5.47 9.46 3 7.52 3ZM5.38 8.4C5.38 9.4 5.7 10.21 6.22 10.92 6.54 11.35 6.99 11.84 7.51 11.84 8.03 11.85 8.49 11.38 8.8 10.96 9.34 10.26 9.65 9.47 9.66 8.46 9.66 8.46 10.26 10.75 9.73 11.57 9.21 12.38 8.42 12.97 7.49 12.96 6.57 12.94 5.79 12.34 5.27 11.51 4.76 10.68 5.38 8.4 5.38 8.4Z" />
</svg>