<svg xmlns="http://www.w3.org/2000/svg" viewBox="0 0 15 15">
<path d="M 7.5 2.6A4.5 4.5 0 0 0 3 7.1L0.35 9.75A0.21 0.21 0 0 0 0.5 10.1H3.76A4.5 4.5 0 0 0 7.5 12.1 4.5 4.5 0 0 0 11.24 10.1H14.5A0.21 0.21 0 0 0 14.65 9.75L12 7.1A4.5 4.5 0 0 0 7.5 2.6ZM7.5 3.6A3.5 3.5 0 0 1 11 7.1H10.96 4.04 4A3.5 3.5 0 0 1 7.5 3.6ZM3.5 8.1A0.5 0.5 0 0 1 4 8.6 0.5 0.5 0 0 1 3.5 9.1 0.5 0.5 0 0 1 3 8.6 0.5 0.5 0 0 1 3.5 8.1ZM7.5 8.1A0.5 0.5 0 0 1 8 8.6 0.5 0.5 0 0 1 7.5 9.1 0.5 0.5 0 0 1 7 8.6 0.5 0.5 0 0 1 7.5 8.1ZM11.5 8.1A0.5 0.5 0 0 1 12 8.6 0.5 0.5 0 0 1 11.5 9.1 0.5 0.5 0 0 1 11 8.6 0.5 0.5 0 0 1 11.5 8.1ZM5.05 10.1H5.7 9.3 9.95A3.5 3.5 0 0 1 7.5 11.1 3.5 3.5 0 0 1 5.05 10.1Z"/>
</svg>