<svg xmlns="http://www.w3.org/2000/svg" viewBox="0 0 15 15">
<path d="M7.5 0C5.47 0.03 4.13 1.38 4 3.01V5.01C4 5.56 3.55 6.01 3 6.01 1.78 5.99 1.16 5.68 0.95 6.86 0.95 8.13 1.76 7.33 2.42 8.05 2.67 8.3 2.46 8.72 2.77 9.05 3.09 9.37 3.66 9.34 3.9 9.6 3.94 9.64 3.97 9.68 4 9.73 4 9.73 3.84 13.04 4.6 13.8 5.36 14.57 5.08 12.8 5.75 12.8 6.42 12.8 6.83 14 7.5 14 8.17 14 8.58 12.8 9.25 12.8 9.92 12.8 9.74 14.57 10.5 13.8 11.26 13.04 11 9.73 11 9.73 11.03 9.68 11.06 9.64 11.1 9.6 11.34 9.34 11.91 9.37 12.22 9.05 12.54 8.72 12.33 8.3 12.58 8.05 13.31 7.26 14.07 8.27 14.04 6.72 13.9 5.65 12.96 6.01 12 6.01 11.45 6.01 11 5.56 11 5.01V3.01C10.87 1.33 9.53 -0.02 7.5 0ZM6.47 2C6.48 2 6.49 2 6.5 2 6.78 2 7 2.45 7 3 7 3.55 6.78 4 6.5 4 6.22 4 6 3.55 6 3 6 2.47 6.21 2.03 6.47 2ZM8.47 2C8.48 2 8.49 2 8.5 2 8.78 2 9 2.45 9 3 9 3.55 8.78 4 8.5 4 8.22 4 8 3.55 8 3 8 2.47 8.21 2.03 8.47 2ZM7.47 5C7.48 5 7.49 5 7.5 5 7.78 5 8 5.45 8 6 8 6.55 7.78 7 7.5 7 7.22 7 7 6.55 7 6 7 5.47 7.21 5.03 7.47 5Z"/>
</svg>