<svg xmlns="http://www.w3.org/2000/svg" viewBox="0 0 27 41" width="27" height="41"><ellipse opacity="0.04" cx="13.5" cy="36" rx="10.5" ry="5.25002273"/><ellipse opacity="0.04" cx="13.5" cy="36" rx="10.5" ry="5.25002273"/><ellipse opacity="0.04" cx="13.5" cy="36" rx="9.5" ry="4.77275007"/><ellipse opacity="0.04" cx="13.5" cy="36" rx="8.5" ry="4.29549936"/><ellipse opacity="0.04" cx="13.5" cy="36" rx="7.5" ry="3.81822308"/><ellipse opacity="0.04" cx="13.5" cy="36" rx="6.5" ry="3.34094679"/><ellipse opacity="0.04" cx="13.5" cy="36" rx="5.5" ry="2.86367051"/><ellipse opacity="0.04" cx="13.5" cy="36" rx="4.5" ry="2.38636864"/><path d="M 11.5,31 C 19.166667,22.234183 23,15.734183 23,11.5 23,5.1487254 17.851275,0 11.5,0 5.1487254,0 0,5.1487254 0,11.5 0,15.734183 3.8333333,22.234183 11.5,31 Z" transform="scale(1.08) translate(1 1)" stroke-linejoin="round" stroke="#cc9900" stroke-width="2"/><path d="M 11.5,31 C 19.166667,22.234183 23,15.734183 23,11.5 23,5.1487254 17.851275,0 11.5,0 5.1487254,0 0,5.1487254 0,11.5 0,15.734183 3.8333333,22.234183 11.5,31 Z" fill="#FFBF00" transform="scale(1.08) translate(1 1)"/><path transform="translate(6 6)" fill="#fff" d="M3.21 0C2.14 0 1.07 1.07 1.07 2.14L1.07 12.86C1.07 13.93 0 15 0 15L11.79 15C11.79 15 10.71 13.93 10.71 12.86L13.93 12.86C15 12.86 15 11.79 15 11.79L15 5.36C15 4.29 13.93 3.21 12.86 3.21L10.71 3.21L10.71 2.14C10.71 0.81 9.93 0 8.57 0L3.21 0ZM4.29 1.07L7.5 1.07C8.98 1.07 9.64 1.45 9.64 2.14C6.43 2.14 4.13 2.35 4.29 5.36C4.29 7.5 2.14 7.5 2.14 5.36L2.14 3.21C2.14 1.6 2.67 1.07 4.29 1.07ZM10.71 4.82L11.79 4.82C12.53 4.82 13.39 4.85 13.39 6.43L13.39 11.25L10.71 11.25L10.71 4.82ZM2.14 12.86L9.64 12.86L9.64 13.93L2.14 13.93L2.14 12.86Z"/></svg>
