<svg xmlns="http://www.w3.org/2000/svg" viewBox="0 0 27 41" width="27" height="41"><ellipse opacity="0.04" cx="13.5" cy="36" rx="10.5" ry="5.25002273"/><ellipse opacity="0.04" cx="13.5" cy="36" rx="10.5" ry="5.25002273"/><ellipse opacity="0.04" cx="13.5" cy="36" rx="9.5" ry="4.77275007"/><ellipse opacity="0.04" cx="13.5" cy="36" rx="8.5" ry="4.29549936"/><ellipse opacity="0.04" cx="13.5" cy="36" rx="7.5" ry="3.81822308"/><ellipse opacity="0.04" cx="13.5" cy="36" rx="6.5" ry="3.34094679"/><ellipse opacity="0.04" cx="13.5" cy="36" rx="5.5" ry="2.86367051"/><ellipse opacity="0.04" cx="13.5" cy="36" rx="4.5" ry="2.38636864"/><path d="M 11.5,31 C 19.166667,22.234183 23,15.734183 23,11.5 23,5.1487254 17.851275,0 11.5,0 5.1487254,0 0,5.1487254 0,11.5 0,15.734183 3.8333333,22.234183 11.5,31 Z" transform="scale(1.08) translate(1 1)" stroke-linejoin="round" stroke="#2c93ae" stroke-width="2"/><path d="M 11.5,31 C 19.166667,22.234183 23,15.734183 23,11.5 23,5.1487254 17.851275,0 11.5,0 5.1487254,0 0,5.1487254 0,11.5 0,15.734183 3.8333333,22.234183 11.5,31 Z" fill="#3FB1CE" transform="scale(1.08) translate(1 1)"/><path transform="translate(6 6)" fill="#fff" d="M14 8c0 0.55 -0.45 1 -1 1H2C1.45 9 1 8.55 1 8s0.45 -1 1 -1h11C13.55 7 14 7.45 14 8zM3.5 10H2c0 1.66 1.34 3 3 3h5c1.66 0 3 -1.34 3 -3H3.5zM3 6H2V4c0 -1.1 0.9 -2 2 -2h7c1.1 0 2 0.9 2 2v2H3zM11 4.5C11 4.78 11.22 5 11.5 5S12 4.78 12 4.5S11.78 4 11.5 4S11 4.22 11 4.5zM9 3.5C9 3.78 9.22 4 9.5 4S10 3.78 10 3.5S9.78 3 9.5 3S9 3.22 9 3.5zM7 4.5C7 4.78 7.22 5 7.5 5S8 4.78 8 4.5S7.78 4 7.5 4S7 4.22 7 4.5zM5 3.5C5 3.78 5.22 4 5.5 4S6 3.78 6 3.5S5.78 3 5.5 3S5 3.22 5 3.5zM3 4.5C3 4.78 3.22 5 3.5 5S4 4.78 4 4.5S3.78 4 3.5 4S3 4.22 3 4.5z"/></svg>