<svg xmlns="http://www.w3.org/2000/svg" viewBox="0 0 27 41" width="27" height="41"><ellipse opacity="0.04" cx="13.5" cy="36" rx="10.5" ry="5.25002273"/><ellipse opacity="0.04" cx="13.5" cy="36" rx="10.5" ry="5.25002273"/><ellipse opacity="0.04" cx="13.5" cy="36" rx="9.5" ry="4.77275007"/><ellipse opacity="0.04" cx="13.5" cy="36" rx="8.5" ry="4.29549936"/><ellipse opacity="0.04" cx="13.5" cy="36" rx="7.5" ry="3.81822308"/><ellipse opacity="0.04" cx="13.5" cy="36" rx="6.5" ry="3.34094679"/><ellipse opacity="0.04" cx="13.5" cy="36" rx="5.5" ry="2.86367051"/><ellipse opacity="0.04" cx="13.5" cy="36" rx="4.5" ry="2.38636864"/><path d="M 11.5,31 C 19.166667,22.234183 23,15.734183 23,11.5 23,5.1487254 17.851275,0 11.5,0 5.1487254,0 0,5.1487254 0,11.5 0,15.734183 3.8333333,22.234183 11.5,31 Z" transform="scale(1.08) translate(1 1)" stroke-linejoin="round" stroke="#4d4d4d" stroke-width="2"/><path d="M 11.5,31 C 19.166667,22.234183 23,15.734183 23,11.5 23,5.1487254 17.851275,0 11.5,0 5.1487254,0 0,5.1487254 0,11.5 0,15.734183 3.8333333,22.234183 11.5,31 Z" fill="#333" transform="scale(1.08) translate(1 1)"/><path transform="translate(6 6)" fill="#fff" d="M6 2C5.45 2 5.25 2.5 5 3L4.5 4h-2C1.67 4 1 4.67 1 5.5v5C1 11.33 1.67 12 2.5 12h10c0.83 0 1.5 -0.67 1.5 -1.5v-5C14 4.67 13.33 4 12.5 4h-2L10 3C9.75 2.5 9.55 2 9 2H6zM2.5 5C2.78 5 3 5.22 3 5.5S2.78 6 2.5 6S2 5.78 2 5.5S2.22 5 2.5 5zM7.5 5c1.66 0 3 1.34 3 3s-1.34 3 -3 3s-3 -1.34 -3 -3S5.84 5 7.5 5zM7.5 6.5C6.67 6.5 6 7.17 6 8l0 0c0 0.83 0.67 1.5 1.5 1.5l0 0C8.33 9.5 9 8.83 9 8l0 0C9 7.17 8.33 6.5 7.5 6.5L7.5 6.5z"/></svg>