
<svg xmlns="http://www.w3.org/2000/svg" xml:space="preserve" id="svg48" width="25" height="35" fill-rule="evenodd" clip-rule="evenodd" image-rendering="optimizeQuality" shape-rendering="geometricPrecision" text-rendering="geometricPrecision" version="1.1"><defs id="defs32"><linearGradient id="id4" x1="1723.29" x2="1642.93" y1="447.685" y2="4301.68" gradientTransform="matrix(.00743 0 0 .00737 -.003 0)" gradientUnits="userSpaceOnUse"><stop id="stop20" offset="0" stop-color="#73b4fa" stop-opacity="1"/><stop id="stop22" offset="1" stop-color="#58a2f0" stop-opacity="1"/></linearGradient><linearGradient id="id5" x1="486.006" x2="2880.19" y1="2331.72" y2="1010.44" gradientTransform="matrix(.00743 0 0 .00737 -.003 0)" gradientUnits="userSpaceOnUse"><stop id="stop25" offset="0" stop-color="#9cbdff" stop-opacity="1"/><stop id="stop27" offset=".671" stop-color="#62a1f4" stop-opacity="1"/><stop id="stop29" offset="1" stop-color="#2785e9" stop-opacity="1"/></linearGradient><mask id="id0"><linearGradient id="id1" x1="1680.31" x2="1680.31" y1="435.362" y2="1639.57" gradientUnits="userSpaceOnUse"><stop id="stop4" offset="0" stop-color="#fff" stop-opacity="1"/><stop id="stop6" offset="1" stop-color="#fff" stop-opacity="0"/></linearGradient><path id="rect9" fill="url(#id1)" d="M74 63h3213v1950H74z"/></mask><mask id="id2"><linearGradient id="id3" x1="1683.09" x2="1683.09" y1="773.806" y2="1471.39" gradientUnits="userSpaceOnUse"><stop id="stop12" offset="0" stop-color="#fff" stop-opacity="1"/><stop id="stop14" offset="1" stop-color="#fff" stop-opacity="0"/></linearGradient><path id="rect17" fill="url(#id3)" d="M861 556h1645v1133H861z"/></mask><style id="style2" type="text/css">.fil1{fill:#fff}</style></defs><g id="Layer_x0020_1"><path id="path35" fill="url(#id4)" stroke-width=".007" d="M12.496 35C12.616 35-.449 20.076.012 11.033c.735-14.71 24.234-14.71 24.976 0C25.442 20.076 12.378 35 12.496 35"/><path id="path37" d="M88 1988s1606-941 3140 21C3790-371-154-776 88 1988" class="fil1" mask="url(#id0)" transform="matrix(.00743 0 0 .00737 -.003 0)"/><ellipse id="circle39" cx="12.496" cy="12.315" fill="#e6e6e6" stroke-width=".007" rx="8.667" ry="8.601"/><path id="path41" fill="url(#id5)" stroke-width=".007" d="M12.496 3.95c4.657 0 8.43 3.744 8.43 8.365s-3.773 8.365-8.43 8.365c-4.656 0-8.429-3.744-8.429-8.365 0-4.62 3.773-8.365 8.43-8.365m0-.906c5.162 0 9.343 4.15 9.343 9.271s-4.18 9.272-9.343 9.272c-5.161 0-9.343-4.15-9.343-9.272s4.182-9.271 9.343-9.271"/><path id="path43" d="M1683 560c452 0 819 252 819 563 0 310-367 562-819 562s-818-252-818-562c0-311 366-563 818-563" class="fil1" mask="url(#id2)" transform="matrix(.00743 0 0 .00737 -.003 0)"/></g>
      <path transform="translate(5 5)" fill="#58a2f0" d="M5.5 3C5.22 3 5 3.22 5 3.5C5 3.78 5.22 4 5.5 4H6.14L7.81 9H6.81L5.77 5.92C5.91 5.83 6 5.67 6 5.5C6 5.22 5.78 5 5.5 5H5H4C3.72 5 3.5 5.22 3.5 5.5C3.5 5.78 3.72 6 4 6H4.69L6.05 9.72C6.14 9.89 6.31 10 6.5 10h2h1h1c0.19 0 0.36 -0.11 0.45 -0.27l2.02 -3C13.12 6.43 12.94 6.07 12.62 6.01L7.52 4.99L6.97 3.34C6.91 3.14 6.72 3 6.5 3Zm-3 2.99C1.12 5.99 0 7.12 0 8.5C0 9.88 1.12 11.01 2.5 11.01C3.88 11.01 5 9.88 5 8.5C5 7.12 3.88 5.99 2.5 5.99Zm0 0.93c0.87 0 1.57 0.7 1.57 1.58c0 0.88 -0.7 1.58 -1.57 1.58C1.63 10.08 0.93 9.38 0.93 8.5C0.93 7.62 1.63 6.92 2.5 6.92ZM13.5 8C12.68 8 12 8.68 12 9.51c0 0.83 0.68 1.5 1.5 1.5c0.82 0 1.5 -0.68 1.5 -1.5C15 8.68 14.32 8 13.5 8Zm0 0.81c0.39 0 0.69 0.31 0.69 0.7c0 0.39 -0.31 0.7 -0.69 0.7c-0.39 0 -0.69 -0.31 -0.69 -0.7c0 -0.39 0.31 -0.7 0.69 -0.7z"/></svg>