<svg xmlns="http://www.w3.org/2000/svg" viewBox="0 0 27 35" width="27" height="35"><path d="M 11.5,31 C 19.166667,22.234183 23,15.734183 23,11.5 23,5.1487254 17.851275,0 11.5,0 5.1487254,0 0,5.1487254 0,11.5 0,15.734183 3.8333333,22.234183 11.5,31 Z" transform="translate(2 2)" stroke-linejoin="round" stroke="#9d8b5a" stroke-width="4"/><path d="M 11.5,31 C 19.166667,22.234183 23,15.734183 23,11.5 23,5.1487254 17.851275,0 11.5,0 5.1487254,0 0,5.1487254 0,11.5 0,15.734183 3.8333333,22.234183 11.5,31 Z" fill="#e1c27f" transform="translate(2 2)"/><path transform="translate(6 6)" fill="#393120" d="M12.975 4.063a2.06 2.06 0 0 0-2.038.626.726.726 0 0 0 .065 1.024.726.726 0 0 0 1.025-.065c.217-.245.336-.245.577-.181.24.063.553.29.74.558.186.27.225.528.183.657-.04.128-.145.313-.771.441-.96.197-2.11.3-3.063.215-.952-.085-1.636-.388-1.847-.692l-1.319.338c-.04.369-.49.964-1.285 1.496-.794.533-1.852.996-2.789 1.286-.592.183-.71.075-.82-.053s-.214-.483-.164-.9.245-.856.455-1.08.3-.277.58-.176a.726.726 0 0 0 .93-.436.726.726 0 0 0-.436-.93c-.805-.29-1.649.027-2.137.55-.488.522-.751 1.205-.834 1.9s.008 1.443.508 2.021 1.41.78 2.348.49c1.054-.325 2.208-.823 3.168-1.466a4.9 4.9 0 0 0 1.474-1.547c.601.35 1.286.58 2.04.646 1.15.102 2.403-.017 3.484-.238.943-.193 1.636-.72 1.861-1.422s-.001-1.394-.37-1.928c-.37-.533-.906-.96-1.565-1.134"/></svg>
