<svg xmlns="http://www.w3.org/2000/svg" viewBox="0 0 23 31" width="23" height="31"><path d="M 11.5,31 C 19.166667,22.234183 23,15.734183 23,11.5 23,5.1487254 17.851275,0 11.5,0 5.1487254,0 0,5.1487254 0,11.5 0,15.734183 3.8333333,22.234183 11.5,31 Z" fill="purple" transform="translate(0 0)"/><path transform="translate(4 4)" fill="#fff" d="M11.55 2c-2.14 0 -5.02 1.47 -6.95 4h-1.6c-1.16 0 -1.82 0.86 -2.28 1.78l-0.61 1.22h1.44h1.45l1.5 1.5l1.5 1.5v1.45v1.44l1.22 -0.61c0.91 -0.46 1.78 -1.12 1.78 -2.28v-1.6c2.53 -1.93 4 -4.81 4 -6.95v-1.45zm-2.55 3c0.55 0 1 0.45 1 1s-0.45 1 -1 1s-1 -0.45 -1 -1s0.45 -1 1 -1zm-6.5 6l-0.5 0.5c-0.72 0.72 -1 2.5 -1 2.5s1.7 -0.2 2.5 -1l0.5 -0.5z"/></svg>