<svg xmlns="http://www.w3.org/2000/svg" viewBox="0 0 15 15">
  <path d="M5.5 0.5L6.5 2.34L7.5 0.5L9 0.5L7.15 3.54L11.75 12L12.5 12C12.78 12 13 12.22 13 12.5L13 13.5C13 13.78 12.78 14 12.5 14L0.5 14C0.22 14 0 13.78 0 13.5L0 12.5C0 12.22 0.22 12 0.5 12L1.25 12L5.85 3.54L4 0.5L5.5 0.5ZM6.5 7L4 12L9 12L6.5 7ZM12 0C12.83 0 13.5 0.67 13.5 1.5L13.5 3.5L12.5 3.5L12.5 1.5C12.5 1.22 12.28 1 12 1L10.5 1L10.5 5L9.5 5L9.5 0L12 0ZM15 0L15 5L12.5 5C11.67 5 11 4.33 11 3.5L11 1.5L12 1.5L12 3.5C12 3.78 12.22 4 12.5 4L14 4L14 0L15 0Z"/>
</svg>