<svg xmlns="http://www.w3.org/2000/svg" viewBox="0 0 15 15">
  <path d="M9 0.5L9 1L12.5 1C13 1 13 1.5 13 1.5L13 13.5C13 13.5 13 14 12.5 14L9 14L9 14.5C9 15 6 15 6 14.5L6 14L2.5 14C2.04 14 2 13.58 2 13.51L2 1.5C2 1.5 2 1 2.5 1L6 1L6 0.5C6 0 9 0 9 0.5ZM7.5 3C5 3 3 5 3 7.5C3 10 5 12 7.5 12C10 12 12 10 12 7.5C12 5 10 3 7.5 3ZM7.5 3.5C7.78 4.35 8.07 5.01 8.35 5.48C8.49 5.69 8.71 5.99 9.02 6.39L9.46 6.95C9.81 7.39 10 7.94 10 8.5C10 9.88 8.88 11 7.5 11L7.29 10.99C6.8 10.95 6.33 10.77 5.94 10.46C4.86 9.6 4.69 8.04 5.54 6.96L6.02 6.34C6.21 6.09 6.36 5.88 6.49 5.71L6.64 5.48C6.94 4.99 7.23 4.33 7.5 3.5Z"/>
</svg>