<svg xmlns="http://www.w3.org/2000/svg" viewBox="0 0 15 15">
  <path d="M6 0.5C6 0.5 6 2 6 2C6 2 8.5 2 8.5 2C9 2 9 2.5 9 2.5L9 12.5C9 12.5 9 13 8.5 13C8.5 13 6 13 6 13L6 14.5C6 15 3 15 3 14.5L3 13C3 13 0.5 13 0.5 13C0 13 0 12.5 0 12.5L0 2.5C0 2.5 0 2 0.5 2C0.5 2 3 2 3 2C3 2 3 0.5 3 0.5C3 0 6 0 6 0.5ZM4.5 4C2.5 4 1 5.5 1 7.5C1 9.5 2.5 11 4.5 11C6.5 11 8 9.5 8 7.5C8 5.5 6.5 4 4.5 4ZM3 9C3 9 6 9 6 9C6.5 9 6.5 10 6 10C6 10 3 10 3 10C2.5 10 2.5 9 3 9ZM12.5 3.5C12.78 4.35 13.07 5.01 13.35 5.48C13.49 5.69 13.71 5.99 14.02 6.39L14.46 6.95C14.81 7.39 15 7.94 15 8.5C15 9.88 13.88 11 12.5 11L12.29 10.99C11.8 10.95 11.33 10.77 10.94 10.46C9.86 9.6 9.69 8.04 10.54 6.96L11.02 6.34C11.21 6.09 11.36 5.88 11.49 5.71L11.64 5.48C11.94 4.99 12.23 4.33 12.5 3.5ZM2.5 5.5C2.75 5.25 4.1 6.6 4.1 6.6C4.1 6.6 4.2 6.5 4.5 6.5C5.13 6.5 5.5 7 5.5 7.5C5.5 8 5.13 8.5 4.5 8.5C3.88 8.5 3.5 8 3.5 7.5C3.5 7.3 3.6 7.1 3.6 7.1C3.6 7.1 2.25 5.75 2.5 5.5Z"/>
</svg>