<svg xmlns="http://www.w3.org/2000/svg" viewBox="0 0 15 15">
  <path d="M7.5 0C8.05 1.69 8.63 3.02 9.21 3.96C9.48 4.38 9.92 4.98 10.54 5.78L11.41 6.89C12.12 7.78 12.5 8.87 12.5 10C12.5 12.76 10.25 15 7.5 15L7.07 14.98C6.1 14.89 5.16 14.53 4.38 13.91C2.23 12.2 1.87 9.07 3.58 6.91L4.54 5.67C4.92 5.18 5.23 4.76 5.47 4.42L5.78 3.96C6.38 2.98 6.96 1.67 7.5 0ZM7.5 3.97L7.41 4.13C7.29 4.36 7.16 4.58 7.03 4.79L6.68 5.31C6.32 5.81 6.05 6.16 5.73 6.58L4.76 7.84C3.56 9.35 3.81 11.54 5.32 12.74C5.85 13.16 6.5 13.42 7.15 13.48L7.5 13.5C9.43 13.5 11 11.93 11 10C11 9.2 10.74 8.45 10.23 7.81L9.36 6.7C8.67 5.82 8.23 5.21 7.93 4.75C7.83 4.58 7.73 4.41 7.64 4.23L7.5 3.97Z"/>
</svg>