<svg xmlns="http://www.w3.org/2000/svg" viewBox="0 0 15 15">
  <path d="M7.5 0C8.02 1.6 8.57 2.87 9.12 3.76L9.32 4.05C9.57 4.42 9.93 4.9 10.39 5.49L11.21 6.54C11.89 7.39 12.25 8.42 12.25 9.5C12.25 12.12 10.12 14.25 7.5 14.25L7.1 14.23C6.17 14.14 5.28 13.81 4.54 13.22C2.49 11.59 2.15 8.61 3.78 6.57L5.03 4.94C5.24 4.66 5.42 4.41 5.57 4.2L5.87 3.76C6.44 2.83 6.99 1.58 7.5 0ZM8.25 6.5L6.75 6.5C6.61 6.5 6.5 6.61 6.5 6.75L6.5 8.5L4.75 8.5C4.61 8.5 4.5 8.61 4.5 8.75L4.5 10.25C4.5 10.39 4.61 10.5 4.75 10.5L6.5 10.5L6.5 12.25C6.5 12.39 6.61 12.5 6.75 12.5L8.25 12.5C8.39 12.5 8.5 12.39 8.5 12.25L8.5 10.5L10.25 10.5C10.39 10.5 10.5 10.39 10.5 10.25L10.5 8.75C10.5 8.61 10.39 8.5 10.25 8.5L8.5 8.5L8.5 6.75C8.5 6.61 8.39 6.5 8.25 6.5Z"/>
</svg>