<svg xmlns="http://www.w3.org/2000/svg" viewBox="0 0 15 15">
  <path d="M7.5 0C8.05 1.69 8.63 3.02 9.21 3.96L9.39 4.23C9.66 4.63 10.05 5.14 10.54 5.78L11.41 6.89C12.12 7.78 12.5 8.87 12.5 10C12.5 12.76 10.25 15 7.5 15L7.07 14.98C6.1 14.89 5.16 14.53 4.38 13.91C2.23 12.2 1.87 9.07 3.58 6.91L4.54 5.67C4.92 5.18 5.23 4.76 5.47 4.42L5.78 3.96C6.38 2.98 6.96 1.67 7.5 0ZM5.48 6.9L4.76 7.84C3.56 9.35 3.81 11.54 5.32 12.74C5.73 13.07 6.22 13.3 6.72 13.41L6.89 13.44L6.46 12.56C6.16 11.93 5.96 11.46 5.79 10.98C5.68 10.66 5.59 10.35 5.53 10.04C5.38 9.3 5.36 8.46 5.45 7.31L5.48 6.9Z"/>
</svg>