<svg xmlns="http://www.w3.org/2000/svg" viewBox="0 0 15 15">
  <path d="M7.5 0C8.02 1.6 8.57 2.87 9.12 3.76C9.38 4.16 9.8 4.73 10.39 5.49L11.21 6.54C11.89 7.39 12.25 8.42 12.25 9.5C12.25 12.12 10.12 14.25 7.5 14.25L7.1 14.23C6.17 14.14 5.28 13.81 4.54 13.22C2.49 11.59 2.15 8.61 3.78 6.57L4.69 5.38C5.05 4.92 5.34 4.52 5.57 4.2L5.87 3.76C6.44 2.83 6.99 1.58 7.5 0ZM7.5 3.93L7.48 3.96C7.36 4.18 7.24 4.39 7.12 4.59L6.78 5.09C6.44 5.56 6.18 5.9 5.88 6.3L4.95 7.5C3.84 8.9 4.07 10.93 5.48 12.04C5.97 12.44 6.57 12.68 7.17 12.73L7.5 12.75C9.29 12.75 10.75 11.29 10.75 9.5C10.75 8.76 10.5 8.06 10.03 7.47L9.21 6.41C8.55 5.57 8.13 4.99 7.85 4.55C7.74 4.38 7.64 4.2 7.54 4.02L7.5 3.93Z"/>
</svg>