<svg xmlns="http://www.w3.org/2000/svg" viewBox="0 0 15 15">
  <path d="M7.5 0C8.05 1.69 8.63 3.02 9.21 3.96L9.39 4.23C9.66 4.63 10.05 5.14 10.54 5.78L11.41 6.89C12.12 7.78 12.5 8.87 12.5 10C12.5 12.76 10.25 15 7.5 15L7.07 14.98C6.1 14.89 5.16 14.53 4.38 13.91C2.23 12.2 1.87 9.07 3.58 6.91L4.54 5.67C4.92 5.18 5.23 4.76 5.47 4.42L5.78 3.96C6.38 2.98 6.96 1.67 7.5 0ZM8.25 7L6.75 7C6.61 7 6.5 7.11 6.5 7.25L6.5 9L4.75 9C4.61 9 4.5 9.11 4.5 9.25L4.5 10.75C4.5 10.89 4.61 11 4.75 11L6.5 11L6.5 12.75C6.5 12.89 6.61 13 6.75 13L8.25 13C8.39 13 8.5 12.89 8.5 12.75L8.5 11L10.25 11C10.39 11 10.5 10.89 10.5 10.75L10.5 9.25C10.5 9.11 10.39 9 10.25 9L8.5 9L8.5 7.25C8.5 7.11 8.39 7 8.25 7Z"/>
</svg>