<svg xmlns="http://www.w3.org/2000/svg" viewBox="0 0 15 15">
<path d="M1 0C0.45 0 0 0.45 0 1L0 5C0 5.55 0.45 6 1 6L2.5 6L2.5 4C2.22 4 2 3.78 2 3.5L2 2.5C2 2.22 2.22 2 2.5 2L2.79 2L12.21 2L12.5 2C12.78 2 13 2.22 13 2.5L13 3.5C13 3.78 12.78 4 12.5 4L12.5 6L14 6C14.55 6 15 5.55 15 5L15 1C15 0.45 14.55 0 14 0L1 0ZM3 3L3 7C3 8 3.41 8 4.23 8L10.77 8C11.59 8 12 8 12 7L12 3L9.5 3C9.78 3 10 3.22 10 3.5C10 3.78 9.78 4 9.5 4L5.5 4C5.22 4 5 3.78 5 3.5C5 3.22 5.22 3 5.5 3L3 3ZM5.5 5L9.5 5C9.78 5 10 5.22 10 5.5C10 5.78 9.78 6 9.5 6L5.5 6C5.22 6 5 5.78 5 5.5C5 5.22 5.22 5 5.5 5ZM7.5 8.64C7.25 8.64 7.04 8.85 7.04 9.1L7.04 13.41L5.78 12.18C5.6 12 5.31 12 5.13 12.18C4.96 12.36 4.96 12.65 5.13 12.82L7.18 14.87C7.27 14.96 7.38 15 7.5 15C7.62 15 7.73 14.96 7.82 14.87L9.87 12.82C10.04 12.65 10.04 12.36 9.87 12.18C9.69 12 9.4 12 9.22 12.18L7.96 13.41L7.96 9.1C7.96 8.85 7.75 8.64 7.5 8.64Z"/>
</svg>
