<svg xmlns="http://www.w3.org/2000/svg" viewBox="0 0 15 15">
<path d="M1 0C0.45 0 0 0.45 0 1L0 5C0 5.55 0.45 6 1 6L2.5 6L2.5 4C2.22 4 2 3.78 2 3.5L2 2.5C2 2.22 2.22 2 2.5 2L2.79 2L12.21 2L12.5 2C12.78 2 13 2.22 13 2.5L13 3.5C13 3.78 12.78 4 12.5 4L12.5 6L14 6C14.55 6 15 5.55 15 5L15 1C15 0.45 14.55 0 14 0L1 0ZM3 3L3 14C3 15 3.41 15 4.23 15L10.77 15C11.59 15 12 15 12 14L12 3L3 3ZM5.5 9L9.5 9C9.78 9 10 9.22 10 9.5C10 9.78 9.78 10 9.5 10L5.5 10C5.22 10 5 9.78 5 9.5C5 9.22 5.22 9 5.5 9ZM5.5 11L9.5 11C9.78 11 10 11.22 10 11.5C10 11.78 9.78 12 9.5 12L5.5 12C5.22 12 5 11.78 5 11.5C5 11.22 5.22 11 5.5 11Z"/>
</svg>
