<svg xmlns="http://www.w3.org/2000/svg" viewBox="0 0 15 15">
  <path d="M6.47 3.83C6.6 4.01 6.71 4.2 6.81 4.4L7.5 5.87L8.19 4.4C9.02 2.64 11.12 1.89 12.88 2.72C13.08 2.81 13.27 2.92 13.45 3.05C15.13 4.28 15.5 6.63 14.28 8.31C14.19 8.43 14.09 8.55 13.98 8.67L8.41 14.61C7.94 15.11 7.15 15.14 6.64 14.67L6.59 14.61L1.02 8.67C-0.4 7.15 -0.33 4.77 1.19 3.35L1.36 3.2L1.55 3.05C3.12 1.91 5.33 2.26 6.47 3.83ZM8.3 6.5L6.7 6.5C6.59 6.5 6.5 6.59 6.5 6.7L6.5 8.5L4.7 8.5C4.59 8.5 4.5 8.59 4.5 8.7L4.5 10.3C4.5 10.41 4.59 10.5 4.7 10.5L6.5 10.5L6.5 12.3C6.5 12.41 6.59 12.5 6.7 12.5L8.3 12.5C8.41 12.5 8.5 12.41 8.5 12.3L8.5 10.5L10.3 10.5C10.41 10.5 10.5 10.41 10.5 10.3L10.5 8.7C10.5 8.59 10.41 8.5 10.3 8.5L8.5 8.5L8.5 6.7C8.5 6.59 8.41 6.5 8.3 6.5Z"/>
</svg>