<svg xmlns="http://www.w3.org/2000/svg" viewBox="0 0 15 15">
  <path d="M0 5.18C0 5.07 0.21 5.07 0.43 4.96L0.29 4.69C0.16 4.43 0 4.05 0 3.68C0 2.82 0.43 2.07 0.64 2.07C0.86 2.07 1.18 2.82 1.18 3.68C1.18 4.21 0.96 4.64 0.86 4.96L2.14 4.96L2.14 2.07L3.43 2.07L4.29 8.5L2.14 8.5L2.14 5.39L0.86 5.39C0.96 5.71 1.29 6.14 1.29 6.68C1.29 7.54 0.96 8.29 0.75 8.29C0.43 8.18 0 7.43 0 6.57C0 6.04 0.32 5.61 0.43 5.29C0.21 5.29 0 5.18 0 5.18ZM15 9.57C14.79 10.32 14.46 10.96 13.61 11.5C13.29 11.39 13.53 12.5 13 12.5C12.19 12.5 7.9 12.52 0.11 12.57L0.11 9.57L15 9.57Z"/>
</svg>