<svg xmlns="http://www.w3.org/2000/svg" viewBox="0 0 15 15">
  <path d="M11 8L11 15L4 15L4 8L11 8ZM11.15 0L12.13 1.04L11.14 1.07L10.27 1.77C10.13 1.89 9.98 2.01 9.83 2.13L9.81 2.31C10.25 3.21 11.23 4.07 11.25 5.11C11.23 5.15 11.22 5.18 11.21 5.22C10.85 5.47 10.49 5.72 10.14 5.98L10.1 6.21C10.09 6.24 10.09 6.27 10.08 6.31C9.49 7.36 8.43 8 7.28 8C5.91 8 4.67 7.08 4.2 5.7C4.67 5.27 5.26 5.04 5.26 5.04L5.29 5C5.32 4.97 5.35 4.9 5.32 4.87C5.26 4.81 4.83 4.56 4.76 4.41L4.72 4.34C4.64 4.17 4.55 3.83 4.76 3.14C4.85 2.84 5.03 2.64 5.25 2.49C5.78 2.14 6.49 2.14 6.52 2.14C6.7 2.35 6.85 2.8 6.97 2.83L7.25 2.88C7.38 2.91 7.42 2.91 7.45 2.92C7.55 2.97 7.5 3.04 7.51 3.12L7.53 3.21L7.62 3.15C7.64 3.13 7.67 3.1 7.68 3.09C7.92 2.89 8.17 2.68 8.4 2.46C8.45 2.06 8.73 1.72 9.06 1.54C9.16 1.48 9.19 1.59 9.32 1.61C9.74 1.24 10.14 0.82 10.55 0.45L10.61 0L11.15 0ZM9.31 2.94C9.04 3.08 8.86 3.05 8.81 3.04L7.85 3.77C7.91 3.85 7.89 3.88 7.89 3.92C7.89 4 7.63 4.39 7.25 4.66L9.69 4.63C9.73 4.58 9.75 4.53 9.72 4.45L9.69 4.38C9.41 3.85 9.37 3 9.37 3L9.31 2.94Z"/>
</svg>