<svg xmlns="http://www.w3.org/2000/svg" viewBox="0 0 15 15">
  <path d="M7.5 1.07C6.26 1.07 5 1.61 4.15 2.68C3.42 3.6 3.21 4.29 3.11 5.36C1 5.25 0 6.52 0 13.93L15 13.93C15 6.52 14 5.25 11.89 5.36C11.79 4.29 11.57 3.59 10.85 2.68C10 1.61 8.74 1.07 7.5 1.07ZM8.3 6.5C8.41 6.5 8.5 6.59 8.5 6.7L8.5 8.5L10.3 8.5C10.41 8.5 10.5 8.59 10.5 8.7L10.5 10.3C10.5 10.41 10.41 10.5 10.3 10.5L8.5 10.5L8.5 12.3C8.5 12.41 8.41 12.5 8.3 12.5L6.7 12.5C6.59 12.5 6.5 12.41 6.5 12.3L6.5 10.5L4.7 10.5C4.59 10.5 4.5 10.41 4.5 10.3L4.5 8.7C4.5 8.59 4.59 8.5 4.7 8.5L6.5 8.5L6.5 6.7C6.5 6.59 6.59 6.5 6.7 6.5L8.3 6.5ZM7.5 3.21C8.87 3.21 9.64 4.29 9.71 5.36L5.29 5.36C5.36 4.29 6.13 3.22 7.5 3.21Z"/>
</svg>