<svg xmlns="http://www.w3.org/2000/svg" viewBox="0 0 15 15">
  <path d="M4.29 4.29L4.29 3.21C4.29 2.79 2.57 2.89 2.14 2.89C2.14 2.89 3.21 4.29 1.61 5.25C1.93 5.04 0 5.46 0 5.89L0 6.64L0 15L4.29 15L4.29 6.64L4.29 5.89C4.29 5.46 4.18 4.82 3.75 4.82C4.18 4.82 4.29 4.71 4.29 4.29ZM5.36 3.21H7.5V4.29H5.36V3.21zM7.5 2.14H8.57V3.21H7.5V2.14zM7.5 4.29H8.57V5.36H7.5V4.29zM8.57 3.21H9.64V4.29H8.57V3.21zM9.64 2.14H10.71V3.21H9.64V2.14zM9.64 4.29H10.71V5.36H9.64V4.29zM8.57 1.07H9.64V2.14H8.57V1.07zM10.71 1.07H11.79V2.14H10.71V1.07zM11.79 0H12.86V1.07H11.79V0zM11.79 6.43H12.86V7.5H11.79V6.43zM12.86 3.21H13.93V4.29H12.86V3.21zM10.71 3.21H11.79V4.29H10.71V3.21zM10.71 5.36H11.79V6.43H10.71V5.36zM1.61 2.14C0.75 2.14 0 2.89 0 3.75C0 4.61 0.75 5.36 1.61 5.36C2.46 5.36 3.21 4.61 3.21 3.75C3.21 2.89 2.46 2.14 1.61 2.14ZM2.14 4.29L1.07 4.29L1.07 3.21L2.14 3.21L2.14 4.29Z"/>
</svg>