<svg xmlns="http://www.w3.org/2000/svg" viewBox="0 0 15 15">
    <path d="m3.875 0.25a0.375 0.375 0 0 0-0.375 0.375 0.375 0.375 0 0 0 0.375 0.375c0.69569 0 1.514 0.61416 2.002 1.3848a2 2.125 0 0 0-0.37695 1.2402 2 2.125 0 0 0 0.29102 1.1035c0.56782-0.14445 1.1383-0.2168 1.709-0.2168 0.57066-1e-7 1.1412 0.072351 1.709 0.2168a2 2.125 0 0 0 0.29102-1.1035 2 2.125 0 0 0-0.37695-1.2402c0.48798-0.7706 1.3063-1.3848 2.002-1.3848a0.375 0.375 0 0 0 0.375-0.375 0.375 0.375 0 0 0-0.375-0.375c-1.0309 0-1.9523 0.70353-2.5449 1.5859a2 2.125 0 0 0-1.0801-0.33594 2 2.125 0 0 0-1.0801 0.33594c-0.59267-0.88241-1.514-1.5859-2.5449-1.5859zm3.5664 5.2383c-0.31137 0.0033573-0.62326 0.033369-0.93555 0.089844 0.041912 0.67189 0.002487 1.3562-0.10742 2.0234 0.36689-0.059985 0.7337-0.089844 1.1016-0.089844 0.45382 0 0.90695 0.045599 1.3594 0.13672-0.11291-0.66519-0.15686-1.3483-0.11914-2.0195-0.43434-0.09807-0.86596-0.14529-1.2988-0.14062zm-2 0.85742c-2.4518 0.95914-3.6282 2.2369-3.8789 3.3105-0.14 0.59964-0.058624 1.1359 0.12109 1.5117 0.17972 0.37586 0.44186 0.56013 0.63281 0.58594 0.37438 0.05059 0.74599-0.068316 1.1406-0.375 0.39463-0.30668 0.78785-0.80175 1.1152-1.4141 0.54105-1.012 0.82568-2.3338 0.86914-3.6191zm4.3672 0c0.043461 1.2853 0.32809 2.6072 0.86914 3.6191 0.32738 0.61232 0.7206 1.1074 1.1152 1.4141 0.39464 0.30668 0.76624 0.42559 1.1406 0.375 0.19095-0.025803 0.45309-0.21008 0.63281-0.58594 0.17971-0.37586 0.26109-0.91208 0.12109-1.5117-0.25066-1.0736-1.4271-2.3514-3.8789-3.3105zm-2.3105 2.1406c-0.44331 2.142e-4 -0.88798 0.055753-1.334 0.16406-0.17963 0.63892-0.42053 1.244-0.71094 1.7871-0.088233 0.16502-0.1819 0.32381-0.2793 0.47656 0.77032-0.26817 1.5486-0.40234 2.3262-0.40234 0.88899 0 1.778 0.17705 2.6562 0.52734-0.12717-0.18974-0.24707-0.39152-0.35938-0.60156-0.27959-0.52293-0.51404-1.1041-0.69141-1.7168-0.53832-0.15638-1.0728-0.23463-1.6074-0.23438zm0.0019531 3c-0.81437 0-1.6293 0.18197-2.457 0.54492 0.66526 1.344 1.7864 2.4688 2.457 2.4688s1.7918-1.1247 2.457-2.4688c-0.82769-0.36296-1.6427-0.54492-2.457-0.54492z"/>
</svg>
