<svg viewBox="0 0 15 15" xmlns="http://www.w3.org/2000/svg">
  <path d="m5.5 0c-0.82843 0-1.5 0.67157-1.5 1.5 0 0.82843 0.5 1.5 0.5 1.5h6s0.5-0.67157 0.5-1.5c0-0.82843-0.67157-1.5-1.5-1.5zm-2.5 4c-0.82843 0-1.5 0.67157-1.5 1.5s0.5 1.5 0.5 1.5h11s0.5-0.67157 0.5-1.5-0.67157-1.5-1.5-1.5zm-1 4c-0.82843 0-1.5 0.67157-1.5 1.5 0 0.82843 0.67157 1.5 1.5 1.5h3.543c0.11137-0.95642 0.51233-2 1.957-2s1.8457 1.0436 1.957 2h3.543c0.82843 0 1.5-0.67157 1.5-1.5 0-0.82843-0.67157-1.5-1.5-1.5zm0.5 4s-0.5 0.67157-0.5 1.5 0.67157 1.5 1.5 1.5h8c0.82843 0 1.5-0.67157 1.5-1.5s-0.5-1.5-0.5-1.5z"/>
</svg>
