<svg xmlns="http://www.w3.org/2000/svg" viewBox="0 0 15 15">
  <path d="M12.5 0C12.78 0 13 0.22 13 0.5L13 12.5L12.25 13.25L13 14L13 15L3 15C2.45 15 2 14.55 2 14L2 1C2 0.45 2.45 0 3 0L12.5 0ZM12 12.5L3 12.5L3 14L12 14L11.25 13.25L12 12.5ZM8.3 3L6.7 3C6.59 3 6.5 3.09 6.5 3.2L6.5 5L4.7 5C4.59 5 4.5 5.09 4.5 5.2L4.5 6.8C4.5 6.91 4.59 7 4.7 7L6.5 7L6.5 8.8C6.5 8.91 6.59 9 6.7 9L8.3 9C8.41 9 8.5 8.91 8.5 8.8L8.5 7L10.3 7C10.41 7 10.5 6.91 10.5 6.8L10.5 5.2C10.5 5.09 10.41 5 10.3 5L8.5 5L8.5 3.2C8.5 3.09 8.41 3 8.3 3Z"/>
</svg>