<svg xmlns="http://www.w3.org/2000/svg" viewBox="0 0 15 15">
<path d="M 7.4,0.39 C 8.08,0.39 8.16,0.68 8.16,0.98 V 2.13 H 6.62 V 2.9 H 8.16 C 8.17,3.19 8.19,3.46 8.23,3.73 L 6.79,4.33 7.09,5.04 8.43,4.49 C 8.53,4.75 8.69,5.01 8.87,5.25 L 7.91,6.41 8.47,6.91 9.43,5.86 C 9.68,6.08 9.93,6.24 10.23,6.41 L 9.68,7.95 10.41,8.21 10.92,6.76 C 11.32,6.92 11.74,7.09 12.18,7.26 L 11.66,8.71 12.37,8.97 12.89,7.53 C 13.74,7.8 14.28,8.3 14.74,9.03 15.07,9.66 15.02,10.55 14.57,11.04 14.33,11.32 13.96,11.46 13.52,11.57 H 1.98 C 1.19,11.57 0.05,9.65 0.05,7.83 0.06,6.92 0.16,6.09 0.51,5.51 0.84,4.88 1.07,4.17 1.06,3.69 V 1.86 C 1.06,1.25 1.39,1.29 1.82,1.18 3.67,0.92 5.53,0.53 7.4,0.39 Z M 12.97,11.93 C 13.72,11.93 14.32,12.54 14.32,13.28 14.32,14.02 13.72,14.62 12.97,14.62 12.24,14.62 11.63,14.02 11.63,13.28 11.63,12.54 12.24,11.93 12.97,11.93 Z M 9.51,11.93 C 10.26,11.93 10.86,12.54 10.86,13.28 10.86,14.02 10.26,14.62 9.51,14.62 8.77,14.62 8.16,14.02 8.16,13.28 8.16,12.54 8.77,11.93 9.51,11.93 Z M 6.05,11.93 C 6.79,11.93 7.4,12.54 7.4,13.28 7.4,14.02 6.79,14.62 6.05,14.62 5.3,14.62 4.71,14.02 4.71,13.28 4.71,12.54 5.3,11.93 6.05,11.93 Z M 2.59,11.93 C 3.34,11.93 3.93,12.54 3.93,13.28 3.93,14.02 3.34,14.62 2.59,14.62 1.85,14.62 1.24,14.02 1.24,13.28 1.24,12.54 1.85,11.93 2.59,11.93 Z" />
</svg>
