<svg xmlns="http://www.w3.org/2000/svg" viewBox="0 0 15 15">
<path d="M 7.04,0.84 C 7.73,0.84 7.83,1.14 7.83,1.46 V 2.65 H 6.33 V 3.42 H 7.83 C 7.84,3.73 7.86,4 7.9,4.25 L 6.5,4.87 6.8,5.58 8.1,5.03 C 8.19,5.29 8.35,5.57 8.53,5.79 L 7.53,6.89 8.11,7.42 9.08,6.32 C 9.3,6.57 9.61,6.7 9.88,6.87 L 9.33,8.37 10.06,8.62 10.58,7.21 C 10.99,7.41 11.41,7.57 11.88,7.74 L 11.35,9.13 12.08,9.4 12.59,8.01 C 13.44,8.29 14,8.86 14.51,9.55 14.79,10.11 14.8,10.86 14.52,11.36 15.24,12.07 15.11,14.15 13.32,14.15 L 0.32,14.1 C -0.02,14.1 -0,13.71 0.31,13.62 L 2.81,13.23 C 3.03,13.18 3.32,13.04 3.32,12.71 V 12.1 H 2.22 C 1.43,12.1 0.32,10.1 0.32,8.29 0.33,7.38 0.42,6.59 0.78,5.89 1.13,5.25 1.35,4.59 1.34,4.09 V 2.29 C 1.34,1.71 1.67,1.74 2.11,1.62 3.75,1.36 5.4,1.09 7.04,0.84 Z M 5.24,10.85 4.84,11.28 V 12.18 H 4.02 V 12.71 C 4.02,13.03 4.26,13.27 4.56,13.27 H 8.36 C 8.66,13.27 8.9,13.03 8.9,12.71 8.9,12.4 8.66,12.18 8.36,12.18 H 7.74 Z M 9.84,12.14 9.83,12.68 C 9.83,12.99 10.08,13.23 10.38,13.23 H 12.48 C 12.78,13.23 13.02,12.99 13.02,12.68 13.02,12.38 12.78,12.14 12.48,12.14 Z" />
</svg>
