<svg xmlns="http://www.w3.org/2000/svg" viewBox="0 0 15 15">
  <path d="M5 4L10 4L10 3L5 3L5 4ZM10 2C10.55 2 11 2.45 11 3L11 4L13 4C13.55 4 14 4.45 14 5L14 12C14 12.55 13.55 13 13 13L2 13C1.45 13 1 12.55 1 12L1 5C1 4.45 1.45 4 2 4L4 4L4 3C4 2.45 4.45 2 5 2L10 2ZM7.5 5C7.26 5.75 7 6.34 6.73 6.78L6.59 6.99C6.48 7.14 6.34 7.33 6.17 7.55L5.74 8.11C4.97 9.08 5.13 10.49 6.1 11.26C6.45 11.54 6.87 11.7 7.31 11.74L7.5 11.75C8.74 11.75 9.75 10.74 9.75 9.5C9.75 8.99 9.58 8.5 9.26 8.1L8.87 7.6C8.59 7.24 8.39 6.97 8.27 6.78C8.01 6.36 7.75 5.76 7.5 5Z"/>
</svg>