<svg xmlns="http://www.w3.org/2000/svg" viewBox="0 0 15 15">
  <path d="M7.5 0C12.75 0 13.5 4.06 13.5 6.5L12.75 6.5L10.5 15L4.5 15L2.25 6.5L1.5 6.5C1.5 4 2.25 0 7.5 0ZM7.5 7.5C7.29 8.17 7.06 8.69 6.82 9.08L6.69 9.27C6.59 9.4 6.47 9.57 6.32 9.77L5.94 10.26C5.25 11.13 5.39 12.38 6.26 13.06C6.57 13.31 6.94 13.46 7.33 13.49L7.5 13.5C8.6 13.5 9.5 12.6 9.5 11.5C9.5 11.05 9.35 10.61 9.06 10.26L8.72 9.81C8.47 9.49 8.29 9.25 8.18 9.08C7.95 8.71 7.72 8.18 7.5 7.5ZM12 6L3 6L3.25 7L11.75 7L12 6ZM7.5 1C4.67 1 3 2.33 2.5 5L12.5 5C12 2.33 10.33 1 7.5 1Z"/>
</svg>