<svg xmlns="http://www.w3.org/2000/svg" viewBox="0 0 15 15">
  <path d="M6.19 15C5.41 15 0.5 14.88 0.5 13.79C0.5 12.18 1.75 11.74 2.87 11.46C4.12 11.12 13.62 10.3 14.24 10.63C14.99 11.03 13.98 13.32 12.82 13.63C11.57 13.97 10.42 15 8.55 15C7.01 15 9.86 15 6.19 15ZM6.87 4.44C6.61 4.44 4.81 4.37 4.81 3.76C4.81 2.86 5.61 2.23 5.84 2.06C6.27 1.7 6.23 1.24 6.47 0.86C6.79 0.32 7.62 0 7.91 0C8.15 0 8.85 0.44 9.36 1.02C9.6 1.29 10.19 2.52 10.19 2.91C10.19 4.13 9.5 4.44 8.95 4.44C8.39 4.44 8.2 4.44 6.87 4.44ZM3.39 8.58C2.65 8.03 3.38 7.07 4.34 6.34C5.22 5.7 5.8 6.07 6.73 5.78C8.39 5.27 9.14 5.8 9.14 5.8L11.16 7.02C12.38 7.92 11.26 7.97 10.6 8.96C9.97 9.91 8.23 9.57 7.41 9.81C6.72 10.03 5.61 10.23 4.4 9.33L3.39 8.58Z"/>
</svg>