<svg xmlns="http://www.w3.org/2000/svg" viewBox="0 0 15 15">
  <path d="M4.17 15C3.6 15 0 14.91 0 14.11C0 12.93 0.92 12.61 1.74 12.4C2.65 12.16 9.62 11.55 10.08 11.8C10.63 12.09 9.89 13.77 9.03 14C8.12 14.24 7.27 15 5.91 15C4.78 15 6.86 15 4.17 15ZM4.67 7.26C4.48 7.26 3.16 7.2 3.16 6.75C3.16 6.09 3.75 5.64 3.92 5.51C4.23 5.25 4.2 4.91 4.37 4.63C4.61 4.24 5.22 4 5.43 4C5.61 4 6.12 4.33 6.5 4.75C6.67 4.95 7.11 5.85 7.11 6.13C7.11 7.03 6.6 7.26 6.2 7.26C5.79 7.26 5.65 7.26 4.67 7.26ZM2.12 10.29C1.58 9.89 2.11 9.18 2.82 8.65C3.46 8.18 3.89 8.45 4.57 8.24C5.79 7.86 6.33 8.25 6.33 8.25L7.82 9.15C8.71 9.81 7.89 9.84 7.41 10.57C6.94 11.27 5.67 11.02 5.07 11.19C4.56 11.36 3.75 11.5 2.86 10.84L2.12 10.29ZM12.5 0L15 0L15 4L12.5 4zM9.5 3L12 3L12 7L9.5 7z"/>
</svg>