<svg xmlns="http://www.w3.org/2000/svg" viewBox="0 0 15 15">
  <path d="M12.93 0C13.14 0 13.28 0.13 13.28 0.34C13.28 0.54 13.14 0.68 12.93 0.68C11.97 0.68 11.15 1.44 11.08 2.33C11.22 2.19 11.36 2.12 11.56 2.12L12.93 2.12C13.14 2.12 13.28 2.26 13.28 2.46C13.28 2.67 13.14 2.8 12.93 2.8L11.56 2.8C11.49 2.8 11.36 2.8 11.36 2.87C11.29 3.01 11.22 3.14 11.29 3.22C11.36 3.36 11.42 3.43 11.49 3.56L12.24 3.56C12.31 3.56 12.38 3.56 12.46 3.63L14.5 4.48C14.57 4.61 14.7 4.75 14.7 4.95C14.7 5.23 14.43 5.5 14.16 5.5L13 5.5L11.75 9L10.5 10L10.5 14.25C10.5 14.66 10.16 15 9.75 15C9.34 15 9 14.66 9 14.25L9 10L6.25 10L5.25 11.25L6.85 13.9C7.05 14.25 6.91 14.66 6.57 14.86C6.23 15.07 5.82 14.93 5.62 14.59L4 12L4 10.5L3.5 11.51L3.5 14.25C3.5 14.66 3.16 15 2.75 15C2.34 15 2 14.66 2 14.25L2 11.5L2.5 10.25L2.5 9.5L2 10L2 7C2 6.45 2.45 6 3 6L9.5 6L10.81 4.72L9.92 3.84C9.92 3.84 9.86 3.77 9.86 3.77C9.86 3.7 9.92 3.63 9.99 3.63L10.67 3.63C10.54 3.29 10.4 2.94 10.4 2.53C10.4 1.1 11.56 0 12.93 0ZM9 0L4.5 5L2.5 5L0 2L2.25 2L3.5 3.5L6.5 0L9 0Z"/>
</svg>