<svg xmlns="http://www.w3.org/2000/svg" viewBox="0 0 15 15">
  <path d="M6.44 0C5.84 0.03 5.38 0.18 5.38 0.18L5.06 0.28L5.34 0.99C4.98 1.06 5 1.48 5.06 1.54C5.12 1.6 5.18 1.61 5.22 1.62C5.3 1.63 5.4 1.51 5.58 1.59C5.77 1.67 5.81 1.85 5.9 1.92C5.8 1.91 5.7 1.9 5.6 1.9C4.04 1.91 3.53 3.12 3.53 3.12L3.36 3.42L4.5 3.69C4.49 3.73 4.49 3.73 4.49 3.83C4.48 3.94 4.47 3.99 4.55 4.09C4.59 4.14 4.67 4.19 4.75 4.19C4.83 4.2 4.89 4.17 5.01 4.08C5.14 3.98 5.21 3.96 5.3 3.95C5.48 3.92 5.7 3.9 5.91 3.9C5.97 3.89 5.99 3.9 6.04 3.91C5.97 4.05 5.92 4.19 5.91 4.32C5.89 4.56 5.95 4.76 5.95 4.76L6.07 5.26L6.39 4.86C6.39 4.86 6.46 4.76 6.83 4.51C6.89 4.46 7.01 4.39 7.09 4.34C7.11 4.38 7.12 4.41 7.14 4.44C7.21 4.56 7.32 4.66 7.46 4.72C6.92 5.36 6.3 6.19 5.84 7.12C5.07 8.72 5.23 10.53 5.36 11.34C3.38 11.74 2.25 12.49 1.63 13.19C1.29 13.59 1.1 13.96 1 14.24C0.93 14.43 0.85 14.68 0.75 15L14.25 15C14.08 14.5 13.85 14.08 13.56 13.75C13.56 13.75 11.58 11.28 7.8 11.13C7.57 11.12 7.33 11.12 7.08 11.13C6.79 10.54 6.26 9.17 6.87 7.9C7.4 6.81 8.19 5.72 8.76 4.98C8.58 5.49 8.42 5.87 8.3 6.11C8.11 6.51 8.03 6.6 8.03 6.6L7.68 6.99L8.2 7.03C8.2 7.03 8.4 7.04 8.63 6.99C8.76 6.96 8.9 6.89 9.02 6.79C9.04 6.85 9.05 6.87 9.06 6.93C9.09 7.13 9.1 7.35 9.1 7.53C9.1 7.62 9.09 7.7 9.08 7.75C9.07 7.8 9.05 7.81 9.08 7.79C9.03 7.83 9 7.86 8.98 8.03C8.96 8.19 9.02 8.27 9.08 8.3C9.19 8.36 9.24 8.34 9.28 8.33C9.33 8.33 9.37 8.32 9.4 8.31C9.44 8.3 9.44 8.3 9.48 8.29L9.93 9.37L10.2 9.15C10.2 9.15 11.72 7.96 11.48 6.42C11.46 6.28 11.42 6.14 11.38 6.01C11.42 6.04 11.46 6.08 11.49 6.12C11.55 6.18 11.6 6.24 11.63 6.29C11.66 6.33 11.66 6.36 11.76 6.52C11.86 6.68 11.96 6.69 12.02 6.67C12.14 6.64 12.16 6.59 12.19 6.56C12.22 6.52 12.24 6.49 12.26 6.45C12.28 6.42 12.28 6.42 12.29 6.38L13.38 6.83L13.41 6.49C13.41 6.49 13.65 4.57 12.39 3.65C11.77 3.19 10.95 3.08 10.29 3.07C9.94 3.07 9.65 3.09 9.43 3.11L9.43 2.99C9.43 2.99 9.49 3.21 9.35 2.56C9.21 1.92 8.94 1.13 8.37 0.61C7.79 0.09 7.04 -0.02 6.44 0Z"/>
</svg>