<svg xmlns="http://www.w3.org/2000/svg" viewBox="0 0 15 15">
  <path d="M12.69 12.51L12.8 12.53L12.91 12.56L12.99 12.59L13.15 12.66L13.22 12.7C13.28 12.74 13.34 12.77 13.39 12.81L13.71 13.07C14.01 13.31 14.39 13.46 14.78 13.5L15 13.5L15 15L14.95 15C14.49 15 14.06 14.84 13.71 14.56L13.39 14.31C13.14 14.11 12.82 14 12.5 14C12.18 14 11.86 14.11 11.61 14.31L11.3 14.56C10.94 14.84 10.5 15 10.05 15L9.95 15C9.5 15 9.06 14.84 8.7 14.56L8.39 14.31C8.14 14.11 7.82 14 7.5 14C7.18 14 6.86 14.11 6.61 14.31L6.3 14.56C5.94 14.84 5.5 15 5.05 15L4.95 15C4.5 15 4.06 14.84 3.7 14.56L3.39 14.31C3.14 14.11 2.82 14 2.5 14C2.18 14 1.86 14.11 1.61 14.31L1.29 14.56C0.99 14.81 0.61 14.96 0.22 14.99L0 15L0 13.5L0.05 13.5C0.51 13.5 0.94 13.35 1.29 13.07L1.65 12.79L1.74 12.72C1.97 12.58 2.23 12.5 2.5 12.5L2.66 12.51C2.93 12.54 3.18 12.65 3.39 12.81L3.7 13.06C3.77 13.12 3.85 13.17 3.93 13.22L3.99 13.25C4.04 13.28 4.1 13.31 4.15 13.33L4.29 13.39C4.5 13.46 4.72 13.5 4.95 13.5L5.05 13.5C5.28 13.5 5.5 13.46 5.71 13.39L5.85 13.33L6.01 13.25C6.11 13.2 6.21 13.14 6.3 13.06L6.61 12.81C6.86 12.61 7.18 12.5 7.5 12.5C7.82 12.5 8.14 12.61 8.39 12.81L8.7 13.06C8.77 13.12 8.85 13.17 8.93 13.22L8.99 13.25C9.04 13.28 9.1 13.31 9.15 13.33L9.29 13.39C9.5 13.46 9.72 13.5 9.95 13.5L10.05 13.5C10.28 13.5 10.5 13.46 10.71 13.39L10.85 13.33L10.95 13.28C11.02 13.25 11.09 13.21 11.16 13.16L11.23 13.11L11.61 12.81C11.86 12.61 12.18 12.5 12.5 12.5L12.58 12.5L12.69 12.51ZM8.27 0.54C8.78 1 9.02 1.71 9.14 2.28L9.22 2.66C9.23 2.68 9.23 2.69 9.23 2.69L9.22 2.67L9.22 2.76L9.48 2.74C9.63 2.74 9.79 2.73 9.98 2.73C10.57 2.74 11.3 2.84 11.85 3.24C12.79 3.93 12.79 5.25 12.76 5.65L12.73 6.07L11.76 5.67L11.75 5.7L11.7 5.78L11.67 5.83C11.64 5.86 11.62 5.9 11.52 5.93C11.46 5.95 11.38 5.94 11.29 5.8L11.17 5.59C11.14 5.55 11.1 5.49 11.05 5.44C11.02 5.4 10.98 5.37 10.95 5.34C10.98 5.46 11.02 5.58 11.04 5.71C11.2 6.77 10.43 7.64 10.07 7.98L9.9 8.13L9.66 8.33L9.26 7.37L9.19 7.39C9.16 7.4 9.13 7.4 9.08 7.4L9.03 7.41C9 7.42 8.96 7.41 8.9 7.38C8.85 7.35 8.8 7.28 8.82 7.14C8.83 6.99 8.86 6.96 8.9 6.92C8.88 6.94 8.9 6.93 8.9 6.89C8.91 6.84 8.92 6.77 8.92 6.69C8.92 6.53 8.91 6.34 8.89 6.16C8.88 6.11 8.87 6.09 8.85 6.04C8.74 6.12 8.62 6.19 8.5 6.21C8.3 6.26 8.12 6.25 8.12 6.25L7.66 6.21L7.98 5.85C8 5.83 8.04 5.76 8.11 5.63L8.21 5.43C8.32 5.22 8.46 4.88 8.62 4.43C8.11 5.08 7.41 6.05 6.94 7.02C6.4 8.15 6.87 9.37 7.13 9.89C7.35 9.88 7.56 9.88 7.77 9.89C9.92 9.98 11.42 10.91 12.21 11.57L12.43 11.75L12.32 11.76C11.89 11.79 11.48 11.96 11.14 12.23L10.83 12.48C10.61 12.65 10.33 12.75 10.05 12.75L9.95 12.75C9.67 12.75 9.39 12.65 9.17 12.48L8.86 12.23C8.47 11.92 7.99 11.75 7.5 11.75C7.01 11.75 6.53 11.92 6.14 12.23L5.83 12.48C5.61 12.65 5.33 12.75 5.05 12.75L4.95 12.75C4.67 12.75 4.39 12.65 4.17 12.48L3.86 12.23C3.47 11.92 2.99 11.75 2.5 11.75C2.41 11.75 2.33 11.76 2.25 11.77L2.28 11.72C2.83 11.1 3.84 10.44 5.6 10.08L5.56 9.81C5.46 9 5.42 7.59 6.02 6.33C6.43 5.5 6.98 4.76 7.46 4.2C7.34 4.14 7.24 4.05 7.18 3.95C7.16 3.92 7.15 3.89 7.14 3.86L6.97 3.96L6.72 4.14C6.55 4.27 6.51 4.32 6.51 4.32L6.23 4.68L6.1 4.14C6.09 4.07 6.08 3.96 6.09 3.84C6.1 3.72 6.14 3.6 6.2 3.48L6.13 3.46C6.12 3.46 6.1 3.46 6.09 3.47C5.96 3.47 5.83 3.47 5.71 3.49L5.54 3.51C5.48 3.52 5.43 3.53 5.35 3.58L5.29 3.63C5.18 3.71 5.13 3.73 5.06 3.72C4.98 3.72 4.91 3.68 4.88 3.64C4.81 3.55 4.82 3.5 4.82 3.4L4.83 3.32C4.83 3.31 4.83 3.3 4.83 3.28L3.82 3.04L3.97 2.77L4 2.71L4.06 2.6C4.26 2.3 4.77 1.7 5.81 1.69C5.9 1.69 5.99 1.7 6.08 1.71C6 1.64 5.96 1.48 5.79 1.41C5.63 1.34 5.54 1.45 5.47 1.44C5.44 1.43 5.38 1.42 5.33 1.37C5.28 1.32 5.26 0.94 5.58 0.88L5.33 0.25L5.65 0.15C5.77 0.11 6.12 0.02 6.56 0C7.09 -0.02 7.76 0.08 8.27 0.54Z"/>
</svg>