<svg xmlns="http://www.w3.org/2000/svg" viewBox="0 0 15 15">
  <path d="M3.5 10.1C4.27 10.1 4.9 10.73 4.9 11.5C4.9 12.27 4.27 12.9 3.5 12.9C2.73 12.9 2.1 12.27 2.1 11.5C2.1 10.73 2.73 10.1 3.5 10.1ZM11.5 10.1C12.27 10.1 12.9 10.73 12.9 11.5C12.9 12.27 12.27 12.9 11.5 12.9C10.73 12.9 10.1 12.27 10.1 11.5C10.1 10.73 10.73 10.1 11.5 10.1ZM9.5 2C9.78 2 10 2.22 10 2.5L10 5L11.73 5C11.9 5 12.06 5.08 12.15 5.22L14 8L14.41 8.41C14.79 8.79 15 9.3 15 9.83L15 11C15 11.28 14.78 11.5 14.5 11.5L13.7 11.5C13.7 10.28 12.72 9.3 11.5 9.3C10.28 9.3 9.3 10.28 9.3 11.5L5.7 11.5C5.7 10.28 4.72 9.3 3.5 9.3C2.28 9.3 1.3 10.28 1.3 11.5L0 11.5L0 2.5C0 2.22 0.22 2 0.5 2L9.5 2ZM5.67 3.5L4.33 3.5C4.24 3.5 4.17 3.57 4.17 3.67L4.17 5.17L2.67 5.17C2.57 5.17 2.5 5.24 2.5 5.33L2.5 6.67C2.5 6.76 2.57 6.83 2.67 6.83L4.17 6.83L4.17 8.33C4.17 8.43 4.24 8.5 4.33 8.5L5.67 8.5C5.76 8.5 5.83 8.43 5.83 8.33L5.83 6.83L7.33 6.83C7.43 6.83 7.5 6.76 7.5 6.67L7.5 5.33C7.5 5.24 7.43 5.17 7.33 5.17L5.83 5.17L5.83 3.67C5.83 3.57 5.76 3.5 5.67 3.5ZM11.5 6L10 6L10 8L12.75 8L11.5 6Z"/>
</svg>