<svg xmlns="http://www.w3.org/2000/svg" viewBox="0 0 15 15">
<path d="M7.25 0L7.25 2C7.33 2 7.42 1.99 7.5 1.99C7.58 1.99 7.67 2 7.75 2L7.75 0L7.25 0ZM7.24 2C4.04 2.08 3.26 3.58 3.06 7.12C4.26 6.83 5.69 6.66 7.24 6.64L7.24 5.66A0.78 0.93 0 0 1 6.72 4.78L6.72 3.85A0.78 0.93 0 0 1 7.24 2.98L7.24 2ZM7.76 2L7.76 2.98A0.78 0.93 0 0 1 8.28 3.85L8.28 4.78A0.78 0.93 0 0 1 7.76 5.66L7.76 6.64C9.32 6.66 10.76 6.84 11.95 7.13C11.76 3.62 10.95 2.08 7.76 2ZM7.5 7.13C5.82 7.13 4.27 7.32 3.04 7.64C3.02 8.23 3.01 8.88 3 9.58C3 10.43 3.08 11.22 3.28 11.85C4.22 15 6.61 15 7.5 15C8.39 15 10.76 15.07 11.72 11.85C11.92 11.22 12 10.41 12 9.58C12 8.88 11.99 8.24 11.97 7.64C10.74 7.32 9.19 7.13 7.5 7.13Z"/>
</svg>