<svg xmlns="http://www.w3.org/2000/svg" viewBox="0 0 15 15">
  <path d="M3.5 10.1C4.27 10.1 4.9 10.73 4.9 11.5C4.9 12.27 4.27 12.9 3.5 12.9C2.73 12.9 2.1 12.27 2.1 11.5C2.1 10.73 2.73 10.1 3.5 10.1ZM11.5 10.1C12.27 10.1 12.9 10.73 12.9 11.5C12.9 12.27 12.27 12.9 11.5 12.9C10.73 12.9 10.1 12.27 10.1 11.5C10.1 10.73 10.73 10.1 11.5 10.1ZM9.5 2C9.78 2 10 2.22 10 2.5L10 5L11.73 5C11.9 5 12.06 5.08 12.15 5.22L14 8L14.41 8.41C14.79 8.79 15 9.3 15 9.83L15 11C15 11.28 14.78 11.5 14.5 11.5L13.7 11.5C13.7 10.28 12.72 9.3 11.5 9.3C10.28 9.3 9.3 10.28 9.3 11.5L5.7 11.5C5.7 10.28 4.72 9.3 3.5 9.3C2.28 9.3 1.3 10.28 1.3 11.5L0 11.5L0 2.5C0 2.22 0.22 2 0.5 2L9.5 2ZM11.5 6L10 6L10 8L12.75 8L11.5 6ZM5.67 3L4.33 3C4.24 3 4.17 3.07 4.17 3.17L4.17 4.67L2.67 4.67C2.57 4.67 2.5 4.74 2.5 4.83L2.5 6.17C2.5 6.26 2.57 6.33 2.67 6.33L4.17 6.33L4.17 7.83C4.17 7.93 4.24 8 4.33 8L5.67 8C5.76 8 5.83 7.93 5.83 7.83L5.83 6.33L7.33 6.33C7.43 6.33 7.5 6.26 7.5 6.17L7.5 4.83C7.5 4.74 7.43 4.67 7.33 4.67L5.83 4.67L5.83 3.17C5.83 3.07 5.76 3 5.67 3Z"/>
</svg>