<svg xmlns="http://www.w3.org/2000/svg" viewBox="0 0 15 15">
<path d="M3.58 0A3.47 3.47 0 0 0 1.84 0.47 3.47 3.47 0 0 0 0.57 5.2L3.58 3.47 6.58 1.74A3.47 3.47 0 0 0 3.58 0ZM11.52 0A3.47 3.47 0 0 0 8.52 1.73L11.53 3.47 14.53 5.21A3.47 3.47 0 0 0 13.26 0.47 3.47 3.47 0 0 0 11.52 0ZM7.55 3.96A0.5 0.5 0 0 0 7.05 4.47 0.5 0.5 0 0 0 7.56 4.96 0.5 0.5 0 0 0 8.05 4.47 0.5 0.5 0 0 0 7.55 3.96ZM10.22 3.97C9.95 3.97 9.59 4.13 9.43 4.36 9.24 4.62 9.04 4.96 9.04 5.21 9.04 5.68 9.74 5.98 9.74 6.46 9.74 6.92 9.04 7.22 9.04 7.69 9.04 7.95 9.24 8.29 9.43 8.54 9.58 8.77 9.95 8.94 10.22 8.93 10.5 8.93 10.58 8.76 10.42 8.55 10.23 8.28 10.03 7.95 10.03 7.69 10.03 7.22 10.73 6.92 10.73 6.46 10.73 5.99 10.03 5.68 10.04 5.21 10.02 4.96 10.23 4.62 10.42 4.36 10.58 4.13 10.5 3.97 10.22 3.97ZM3.28 4.97C3 4.97 2.63 5.14 2.47 5.35 2.3 5.61 2.1 5.95 2.1 6.2 2.1 6.68 2.79 6.97 2.78 7.44 2.78 7.92 2.1 8.2 2.1 8.69 2.1 8.94 2.3 9.29 2.47 9.55 2.63 9.76 3 9.92 3.28 9.93 3.56 9.93 3.63 9.76 3.47 9.55 3.29 9.29 3.08 8.94 3.08 8.69 3.08 8.21 3.78 7.93 3.78 7.44 3.78 6.97 3.08 6.68 3.08 6.21 3.08 5.95 3.29 5.61 3.47 5.35 3.63 5.14 3.56 4.97 3.28 4.97ZM5.56 5.96A0.5 0.5 0 0 0 5.07 6.46 0.5 0.5 0 0 0 5.56 6.95 0.5 0.5 0 0 0 6.07 6.46 0.5 0.5 0 0 0 5.56 5.96ZM13.51 5.96A0.5 0.5 0 0 0 13.01 6.46 0.5 0.5 0 0 0 13.51 6.95 0.5 0.5 0 0 0 14 6.46 0.5 0.5 0 0 0 13.51 5.96ZM7.56 7.95A0.5 0.5 0 0 0 7.05 8.44 0.5 0.5 0 0 0 7.55 8.93 0.5 0.5 0 0 0 8.05 8.43 0.5 0.5 0 0 0 7.56 7.95ZM5.56 8.93C5.29 8.94 5.22 9.1 5.37 9.33 5.57 9.59 5.76 9.91 5.76 10.18 5.76 10.65 5.08 10.95 5.07 11.41 5.07 11.89 5.76 12.19 5.76 12.65 5.76 12.91 5.56 13.25 5.37 13.51 5.22 13.74 5.29 13.91 5.56 13.9 5.84 13.9 6.22 13.74 6.37 13.51 6.56 13.25 6.76 12.91 6.76 12.65 6.77 12.19 6.06 11.89 6.07 11.41 6.06 10.95 6.76 10.65 6.77 10.18 6.75 9.92 6.56 9.59 6.37 9.33 6.21 9.1 5.84 8.93 5.56 8.93ZM12.52 9.92A0.5 0.5 0 0 0 12.02 10.42 0.5 0.5 0 0 0 12.52 10.93 0.5 0.5 0 0 0 13.01 10.42 0.5 0.5 0 0 0 12.52 9.92ZM3.58 10.93A0.5 0.5 0 0 0 3.09 11.41 0.5 0.5 0 0 0 3.58 11.91 0.5 0.5 0 0 0 4.07 11.42 0.5 0.5 0 0 0 3.58 10.93ZM9.54 11.91A0.5 0.5 0 0 0 9.04 12.42 0.5 0.5 0 0 0 9.54 12.9 0.5 0.5 0 0 0 10.03 12.42 0.5 0.5 0 0 0 9.54 11.91Z"/>
</svg>