<svg xmlns="http://www.w3.org/2000/svg" viewBox="0 0 15 15">
  <path d="M9.78 8.11L9.78 8.17C9.9 8.19 10.04 8.18 10.19 8.17L10.32 7.9C10.44 7.69 10.5 7.6 10.68 7.41L10.8 7.29C10.82 7.28 10.85 7.26 10.9 7.22L11.05 7.12L11.17 7.06C11.82 6.78 11.99 6.87 12.99 6.52C13.59 6.31 13.68 6.21 14.22 6.05L14.38 6.02C14.4 6.01 14.43 6.01 14.49 6L14.6 6L14.7 6.01L14.79 6.04L14.86 6.08L14.91 6.14L14.96 6.21L14.99 6.29L15 6.39C14.98 6.72 14.29 7.32 14.19 7.57L14.06 7.87L13.92 8.12L13.78 8.34C13.75 8.4 13.72 8.43 13.59 8.59L13.42 8.76C13.38 8.8 13.34 8.83 13.2 8.95L12.99 9.09C12.94 9.12 12.9 9.14 12.74 9.23C12.46 9.33 11.88 9.32 11.51 9.37L11.08 9.45L10.77 9.48L10.56 9.5C10.89 10.33 10.72 11.29 10.09 11.96L8.79 13.32C8.79 14.44 8.36 15 7.5 15C6.69 15 6.26 14.51 6.21 13.53L6.21 13.32L4.91 11.96C4.28 11.29 4.11 10.33 4.44 9.5L4.23 9.48L3.92 9.45L3.65 9.4C3.33 9.31 2.58 9.35 2.26 9.23L2.01 9.09L1.8 8.95L1.61 8.79C1.56 8.75 1.54 8.72 1.41 8.59L1.22 8.34L1.08 8.12L0.94 7.87C0.91 7.81 0.89 7.77 0.81 7.57C0.71 7.32 0.02 6.72 0 6.39L0.01 6.29L0.04 6.21L0.09 6.14C0.1 6.13 0.11 6.12 0.14 6.08L0.21 6.04L0.3 6.01L0.4 6L0.51 6L0.65 6.02L0.78 6.05C1.32 6.21 1.41 6.31 2.01 6.52C3.01 6.87 3.18 6.78 3.83 7.06L3.98 7.14C4 7.16 4.03 7.18 4.1 7.22L4.23 7.32C4.24 7.33 4.27 7.36 4.32 7.41C4.56 7.66 4.59 7.74 4.81 8.17C4.96 8.18 5.1 8.19 5.22 8.17L5.22 8.11C5.98 7.7 6.74 7.5 7.5 7.5C8.26 7.5 9.02 7.7 9.78 8.11ZM2 0L13 0L13 1L2 1L2 0ZM2 2L13 2L13 3L2 3L2 2ZM2 4L10 4L10 5L2 5L2 4Z"/>
</svg>