<svg xmlns="http://www.w3.org/2000/svg" viewBox="0 0 15 15">
  <path d="M10.56 2.12L11.93 2.12C12.14 2.12 12.28 2.26 12.28 2.46C12.28 2.67 12.14 2.8 11.93 2.8L10.56 2.8C10.49 2.8 10.36 2.8 10.36 2.87C10.29 3.01 10.22 3.14 10.29 3.22C10.36 3.36 10.42 3.43 10.49 3.56L11.24 3.56C11.31 3.56 11.38 3.56 11.46 3.63L13.5 4.48C13.57 4.61 13.7 4.75 13.7 4.95C13.7 5.23 13.43 5.5 13.16 5.5L12 5.5L10.75 9L9.5 10L9.5 14.25C9.5 14.66 9.16 15 8.75 15C8.34 15 8 14.66 8 14.25L8 10L8 10L5.25 10L4.25 11.25L5.85 13.9C6.05 14.25 5.91 14.66 5.57 14.86C5.23 15.07 4.82 14.93 4.62 14.59L3 12L3 10.5L2.5 11.51L2.5 14.25C2.5 14.66 2.16 15 1.75 15C1.34 15 1 14.66 1 14.25L1 11.5L1 11.5L1.5 10.25L1.5 9.5L1 10L1 7C1 6.45 1.45 6 2 6L8.5 6L8.5 6L9.81 4.72L8.92 3.84C8.92 3.84 8.86 3.77 8.86 3.77C8.86 3.7 8.92 3.63 8.99 3.63L9.67 3.63C9.54 3.29 9.4 2.94 9.4 2.53C9.4 1.1 10.56 0 11.93 0C12.14 0 12.28 0.13 12.28 0.34C12.28 0.54 12.14 0.68 11.93 0.68C10.97 0.68 10.15 1.44 10.08 2.33C10.22 2.19 10.36 2.12 10.56 2.12Z"/>
</svg>