<svg xmlns="http://www.w3.org/2000/svg" viewBox="0 0 15 15">
  <path d="M2.81 0C2.79 0.45 2.71 0.83 2.55 1.17C2.37 1.59 2.81 3.62 3 3.36L3.78 2.47L4.26 1.9C4.34 1.8 4.42 1.71 4.5 1.61C4.98 1.02 5.68 0.87 6.17 0.79L6.55 0.73L6.62 0.73L6.67 0.74L6.69 0.75L6.69 0.79L6.69 0.85L6.68 0.91L6.62 0.97L6.04 1.58L5.21 2.45L4.62 3.1C4.52 3.21 4.45 3.29 4.42 3.33L4.24 3.62L4.17 3.77C4.16 3.8 4.14 3.83 4.12 3.86C4.08 3.96 4.07 3.99 4.05 4.09L4.05 4.17L4.06 4.28C4.06 4.29 4.06 4.31 4.06 4.32C4.15 4.67 4.58 5.13 4.95 5.41L4.99 5.43L5.08 5.45C5.31 5.51 5.76 5.57 5.85 5.12C5.97 4.54 5.37 3.38 5.52 3.49L5.55 3.51C5.81 3.76 7.2 4.38 6.75 5.41L6.71 5.5L3.43 5.5L3.64 5.62L4 5.85L4.3 6.04C4.67 6.29 4.97 6.5 5.36 6.8C5.56 6.96 5.61 7 5.7 7.21L5.75 7.34C5.76 7.38 5.78 7.43 5.79 7.49L5.85 7.77L5.91 8.1C5.83 8.12 5.73 8.11 5.63 8.1L5.52 7.89C5.45 7.76 5.4 7.7 5.29 7.57L5.24 7.52L5.13 7.44C5.08 7.41 5.07 7.4 5.05 7.39L4.95 7.33C4.5 7.14 4.37 7.2 3.68 6.96C3.27 6.81 3.21 6.74 2.82 6.63L2.73 6.61L2.63 6.59L2.55 6.59L2.49 6.6L2.43 6.62L2.34 6.69L2.31 6.74L2.29 6.8L2.28 6.87C2.3 7.1 2.78 7.52 2.85 7.68L2.91 7.84C2.92 7.86 2.93 7.88 2.94 7.89L3.03 8.07L3.13 8.22L3.26 8.39L3.4 8.54L3.54 8.65L3.68 8.74L3.86 8.84C4.04 8.91 4.43 8.9 4.68 8.93L5.01 8.99L5.23 9.02L5.37 9.03C5.14 9.6 5.26 10.28 5.7 10.74L6.6 11.69L6.6 11.83C6.64 12.51 6.93 12.86 7.5 12.86C8.1 12.86 8.4 12.47 8.4 11.69L9.3 10.74C9.74 10.28 9.86 9.6 9.63 9.03L9.77 9.02L9.99 8.99L10.29 8.94C10.54 8.91 10.95 8.91 11.14 8.84L11.32 8.74L11.46 8.65L11.56 8.57C11.59 8.55 11.6 8.53 11.62 8.51L11.74 8.39L11.86 8.24C11.86 8.24 11.87 8.23 11.87 8.22L11.97 8.07L12.06 7.89L12.15 7.68C12.22 7.52 12.7 7.1 12.72 6.87L12.71 6.8L12.66 6.69L12.57 6.62L12.51 6.6L12.45 6.59L12.37 6.59L12.31 6.6C12.3 6.6 12.29 6.61 12.29 6.61L12.18 6.63C11.79 6.74 11.73 6.81 11.32 6.96C10.63 7.2 10.5 7.14 10.05 7.33L9.97 7.37L9.87 7.44L9.8 7.49L9.71 7.57C9.59 7.71 9.54 7.77 9.46 7.92L9.37 8.1C9.27 8.11 9.17 8.12 9.09 8.1L9.15 7.77L9.23 7.41C9.23 7.4 9.24 7.38 9.24 7.37L9.3 7.21C9.39 7 9.44 6.96 9.64 6.8C9.87 6.62 10.08 6.47 10.28 6.33L10.7 6.04L10.97 5.86C11.26 5.68 11.44 5.58 11.58 5.5L13 5.5C13.28 5.5 13.5 5.72 13.5 6L13.5 8.87C13.5 10.54 12.56 12.1 10.99 13.03L7.81 14.92C7.62 15.03 7.38 15.03 7.19 14.92L4.01 13.03C2.44 12.1 1.5 10.54 1.5 8.87L1.5 6C1.5 5.72 1.72 5.5 2 5.5L3.43 5.5L3.12 5.33C3.05 5.29 2.98 5.25 2.89 5.19L2.75 5.11L2.53 4.93L2.36 4.76L2.19 4.57L2.03 4.35C2.01 4.32 1.98 4.28 1.9 4.15L1.78 3.91L1.7 3.68L1.61 3.4L1.57 3.24C1.57 3.22 1.57 3.2 1.56 3.17L1.52 2.9L1.5 2.62L1.5 2.41C1.5 2.27 1.51 2.19 1.53 1.95L1.57 1.74L1.61 1.57L1.67 1.39L1.73 1.23L1.82 1.05L1.98 0.75L2.09 0.6C2.25 0.41 2.36 0.27 2.54 0.12L2.6 0.09L2.67 0.03L2.74 0.01L2.81 0ZM12.19 0L12.26 0.01L12.33 0.03L12.4 0.09L12.46 0.12C12.64 0.27 12.75 0.41 12.91 0.6L13.02 0.75L13.11 0.9L13.21 1.09L13.27 1.23L13.34 1.41L13.39 1.57L13.45 1.88C13.46 1.9 13.46 1.92 13.47 1.95L13.49 2.19C13.5 2.27 13.5 2.33 13.5 2.41L13.5 2.62L13.48 2.9L13.44 3.17L13.39 3.42L13.3 3.68L13.22 3.91L13.1 4.15L12.97 4.35L12.81 4.57L12.64 4.76L12.47 4.93L12.25 5.11L12.19 5.15C11.91 5.33 11.8 5.38 11.58 5.5L8.3 5.5L8.43 5.79C8.69 6.33 8.76 6.4 8.49 6.93L8.36 7.17C8.33 7.36 8.28 7.46 8.2 7.59L6.8 7.59C6.72 7.46 6.67 7.36 6.64 7.17L6.5 6.9C6.21 6.34 6.33 6.31 6.68 5.58L6.71 5.5L8.3 5.5L8.25 5.41C7.84 4.47 8.96 3.87 9.36 3.58L9.45 3.51C9.69 3.27 9.03 4.52 9.15 5.12C9.27 5.71 10 5.43 10.05 5.41C10.42 5.13 10.85 4.67 10.94 4.32L10.95 4.16C10.95 4.14 10.95 4.12 10.95 4.09C10.93 3.99 10.92 3.96 10.88 3.86L10.77 3.65C10.69 3.51 10.64 3.44 10.58 3.33L10.48 3.21C10.09 2.76 8.73 1.33 8.43 1.01L8.32 0.91L8.31 0.85L8.31 0.79L8.31 0.77C8.31 0.76 8.31 0.75 8.31 0.75L8.33 0.74L8.38 0.73L8.49 0.73L8.51 0.74L8.92 0.8L9.17 0.85C9.62 0.95 10.12 1.15 10.5 1.61L11.11 2.33L12 3.36C12.19 3.62 12.63 1.59 12.45 1.17C12.29 0.83 12.21 0.45 12.19 0Z"/>
</svg>