<svg xmlns="http://www.w3.org/2000/svg" viewBox="0 0 15 15">
  <path d="M7 3C7 3 7 6 7 6C7 6.5 6 6.5 6 6C6 6 2.5 6 2.5 6C1.5 6 1 5.5 1 4.5C1 4.5 1 1 1 1C0.5 1 0.5 0 1 0C1.5 0 4 0 4 0C4.5 0 4.5 1 4 1C4 1 4 2.5 4 2.5C4 2.5 4 3 4.5 3C4.5 3 6 3 6 3C6 2.5 7 2.5 7 3ZM12.5 9C12.72 9.68 12.95 10.21 13.18 10.58C13.29 10.75 13.47 10.99 13.72 11.31L14.06 11.76C14.35 12.11 14.5 12.55 14.5 13C14.5 14.11 13.6 15 12.5 15L12.33 15C11.94 14.96 11.56 14.82 11.25 14.57C10.39 13.88 10.25 12.63 10.93 11.77L11.32 11.27C11.47 11.07 11.59 10.9 11.69 10.77L11.81 10.58C12.05 10.19 12.29 9.67 12.5 9ZM8 3C8 2.5 9 2.5 9 3L12.5 3C13.5 3 14 3.5 14 4.5L14 8C14.5 8 14.5 9 14 9L11 9C10.5 9 10.5 8 11 8L11 6.5C11 6.5 11 6 10.5 6L9 6C9 6.5 8 6.5 8 6Z"/>
</svg>