<svg xmlns="http://www.w3.org/2000/svg" viewBox="0 0 15 15">
  <path d="M5 0C5.55 1.69 6.13 3.02 6.71 3.96L6.89 4.23C7.16 4.63 7.55 5.14 8.04 5.78L8.91 6.89C9.62 7.78 10 8.87 10 10C10 12.76 7.75 15 5 15L4.57 14.98C3.6 14.89 2.66 14.53 1.88 13.91C-0.27 12.2 -0.63 9.07 1.08 6.91L2.04 5.67C2.42 5.18 2.73 4.76 2.97 4.42L3.28 3.96C3.88 2.98 4.46 1.67 5 0ZM12.8 0C12.91 0 13 0.09 13 0.2L13 2L14.8 2C14.91 2 15 2.09 15 2.2L15 3.8C15 3.91 14.91 4 14.8 4L13 4L13 5.8C13 5.91 12.91 6 12.8 6L11.2 6C11.09 6 11 5.91 11 5.8L11 4L9.2 4C9.09 4 9 3.91 9 3.8L9 2.2C9 2.09 9.09 2 9.2 2L11 2L11 0.2C11 0.09 11.09 0 11.2 0L12.8 0Z"/>
</svg>