<svg xmlns="http://www.w3.org/2000/svg" viewBox="0 0 15 15">
  <path d="M7.5 0C8.05 1.69 8.63 3.02 9.21 3.96L9.39 4.23C9.66 4.63 10.05 5.14 10.54 5.78L11.41 6.89C12.12 7.78 12.5 8.87 12.5 10C12.5 12.76 10.25 15 7.5 15L7.07 14.98C6.1 14.89 5.16 14.53 4.38 13.91C2.23 12.2 1.87 9.07 3.58 6.91L4.54 5.67C4.92 5.18 5.23 4.76 5.47 4.42L5.78 3.96C6.38 2.98 6.96 1.67 7.5 0ZM8.3 7L6.7 7C6.59 7 6.5 7.09 6.5 7.2L6.5 9L4.7 9C4.59 9 4.5 9.09 4.5 9.2L4.5 10.8C4.5 10.91 4.59 11 4.7 11L6.5 11L6.5 12.8C6.5 12.91 6.59 13 6.7 13L8.3 13C8.41 13 8.5 12.91 8.5 12.8L8.5 11L10.3 11C10.41 11 10.5 10.91 10.5 10.8L10.5 9.2C10.5 9.09 10.41 9 10.3 9L8.5 9L8.5 7.2C8.5 7.09 8.41 7 8.3 7Z"/>
</svg>