<svg xmlns="http://www.w3.org/2000/svg" viewBox="0 0 15 15">
  <path d="M12 11C12.67 12.33 13.42 13 14.25 13C14.51 13 14.76 12.94 15 12.81L15 14.86C14.76 14.95 14.51 15 14.25 15C13.42 15 12.67 14.5 12 13.5C11.33 14.5 10.58 15 9.75 15C8.92 15 8.17 14.5 7.5 13.5C6.83 14.5 6.08 15 5.25 15C4.42 15 3.67 14.5 3 13.5C2.33 14.5 1.58 15 0.75 15C0.49 15 0.24 14.95 0 14.86L0 12.81C0.24 12.94 0.49 13 0.75 13C1.58 13 2.33 12.33 3 11C3.67 12.33 4.42 13 5.25 13C6.08 13 6.83 12.33 7.5 11C8.17 12.33 8.92 13 9.75 13C10.58 13 11.33 12.33 12 11ZM7.5 0C7.86 1.1 8.24 1.96 8.61 2.57C8.78 2.85 9.07 3.24 9.48 3.76L10.04 4.48C10.5 5.06 10.75 5.76 10.75 6.5C10.75 8.29 9.29 9.75 7.5 9.75L7.22 9.74C6.59 9.68 5.98 9.45 5.47 9.04C4.07 7.93 3.84 5.89 4.95 4.49L5.58 3.68C5.82 3.37 6.02 3.09 6.18 2.87L6.38 2.57C6.78 1.94 7.15 1.08 7.5 0Z"/>
</svg>