<svg xmlns="http://www.w3.org/2000/svg" viewBox="0 0 15 15">
  <path d="M13.75 7L12.5 14L12 14L12 13L10 13L10 14L8.5 14L7.25 7L6 7L7.25 15L13.75 15L15 7L13.75 7ZM9 12L9 13L10 13L10 12L9 12ZM10 11L10 12L11 12L11 11L10 11ZM11 10L11 11L12 11L12 10L11 10ZM9 10L9 11L10 11L10 10L9 10ZM10 9L10 10L11 10L11 9L10 9ZM9 8L9 9L10 9L10 8L9 8ZM11 8L11 9L12 9L12 8L11 8ZM9 6L9 7L10 7L10 6L9 6ZM11 5L11 6L12 6L12 5L11 5ZM6 0L1 1.25L1 3.75L6 5L6 0ZM7 4L7 5L8 5L8 4L7 4ZM9 3L9 4L10 4L10 3L9 3ZM7 1L7 2L8 2L8 1L7 1Z"/>
</svg>