<svg viewBox="0 0 15 15" xmlns="http://www.w3.org/2000/svg">
 <path d="m12.52 12.5h2.48l-2.5 2.5v-2.48c-0.3016 0.3045-0.7115 0.4771-1.14 0.48-0.3588 8.72e-4 -0.7075-0.1189-0.99-0.34-3.173-2.71-3.169-7.616 0.01-10.32 0.638-0.4933 1.542-0.4421 2.12 0.12v-2.46l2.5 2.5h-2.46c0.04238 0.04107 0.08244 0.08447 0.12 0.13 0.5525 0.7089 0.4224 1.732-0.29 2.28-0.7192 0.6686-1.125 1.608-1.12 2.59 5.9e-5 0.9957 0.4171 1.946 1.15 2.62 0.683 0.5715 0.7851 1.584 0.23 2.28-0.04 0.03-0.08 0.06-0.11 0.1zm-11.02-12.5-0.5 5.5c-0.15 0.81 1.78 1.18 1.75 2l-0.25 6.5c-0.02394 0.5619 0.4381 1.024 1 1 0.5619 0.02394 1.024-0.4381 1-1l-0.25-6.5c-0.03-0.82 1.73-1.18 1.75-2l-0.5-5.5h-0.5l-0.25 4-0.75 0.5-0.25-4.5h-0.5l-0.25 4.5-0.75-0.5-0.25-4z"/>
</svg>
