<svg xmlns="http://www.w3.org/2000/svg" viewBox="0 0 15 15">
<path d="M0 15L15 15C15 15 14.25 13.71 11.68 13.5C9.21 13.29 9.86 12.43 8.46 12.43C7.07 12.43 7.93 12.32 6.43 12.43C4.93 12.54 5.04 13.5 2.89 13.61C0.64 13.93 0 15 0 15ZM3.75 0.5C1.5 0.5 0.75 2.5 0.75 5C0.75 7 1.75 7 1.75 5C1.75 2.5 2.75 1.5 3.75 1.5C5.5 1.5 6.5 4.75 6.5 6C6.5 6 6.25 5.75 5.5 5.75C4.25 5.75 3.5 6.75 3.5 8.5C3.5 9.75 4.25 9.75 4.25 8.5C4.25 7.25 5 6.75 5.5 6.75C6 6.75 6.75 7 7.03 10C7.25 11.98 7.72 11.98 7.97 10C8.25 7 8.75 6.75 9.5 6.75C10 6.75 10.5 7.25 10.5 8C10.5 9.5 11.25 9.5 11.25 8C11.25 6.25 10.25 5.75 9.5 5.75C8.75 5.75 8.5 6 8.5 6C8.75 4.25 9.5 2 11 2C12.5 2 13.25 4 13.25 5.75C13.25 7.5 14.25 7.5 14.25 5.75C14.25 2.5 12.75 1 11 1C8.75 1 7.75 3.5 7.5 5C7.25 3 6.25 0.5 3.75 0.5Z"/>
</svg>
