<svg xmlns="http://www.w3.org/2000/svg" viewBox="0 0 15 15">
  <path d="M2.88 10.35C1.89 10.35 1.1 11.14 1.1 12.13C1.1 13.11 1.89 13.9 2.88 13.9C3.86 13.9 4.65 13.11 4.65 12.13C4.65 11.14 3.86 10.35 2.88 10.35ZM12.13 10.35C11.14 10.35 10.35 11.14 10.35 12.13C10.35 13.11 11.14 13.9 12.13 13.9C13.11 13.9 13.9 13.11 13.9 12.13C13.9 11.14 13.11 10.35 12.13 10.35ZM2.88 1.1C1.89 1.1 1.1 1.89 1.1 2.88C1.1 3.86 1.89 4.65 2.88 4.65C3.86 4.65 4.65 3.86 4.65 2.88C4.65 1.89 3.86 1.1 2.88 1.1ZM12.13 1.1C11.14 1.1 10.35 1.89 10.35 2.88C10.35 3.86 11.14 4.65 12.13 4.65C13.11 4.65 13.9 3.86 13.9 2.88C13.9 1.89 13.11 1.1 12.13 1.1Z"/>
</svg>