<svg xmlns="http://www.w3.org/2000/svg" viewBox="0 0 15 15">
  <path d="M3.43 0C4.18 0.85 5.14 1.71 6.64 2.35L7.15 2.54C8.65 3.07 9.96 3.37 10.71 3.52L11.36 3.64L13.93 4.07C14.36 4.18 14.68 4.5 14.57 4.93C14.47 5.22 14.29 5.42 13.94 5.45L13.82 5.46C13.82 5.46 13.71 5.46 13.71 5.46L11.14 5.03L11.14 5.14L11.78 5.45C13.25 6.16 14.47 6.8 14.66 6.94L14.68 6.96C15 7.18 15.11 7.6 14.89 7.93C14.79 8.14 14.46 8.25 14.25 8.25C14.16 8.25 14.08 8.25 13.99 8.19L13.93 8.14C13.93 8.14 12.33 7.25 10.4 6.41L10.18 6.32L10.16 6.32C10.14 6.33 10.11 6.34 10.15 6.39L10.18 6.43C11.25 7.07 12.54 8.14 13.39 9.53C13.61 9.85 13.5 10.39 13.18 10.6C13.07 10.6 12.96 10.71 12.86 10.71C12.64 10.71 12.43 10.6 12.21 10.39C11.74 9.63 11.09 8.95 10.43 8.43L10.18 8.25C10.18 8.25 8.38 6.65 6.52 6.92L6.32 6.96C4.39 7.28 5.14 8.78 5.25 9.64C5.36 10.5 4.93 10.93 4.61 11.03C4.5 11.03 4.5 11.03 4.39 11.14C4.18 11.14 4.07 10.93 4.07 10.93L4.07 10.82C3 6.85 1.5 4.18 0 2.25L3.43 0ZM12 11.5C12.67 12.83 13.42 13.5 14.25 13.5C14.51 13.5 14.76 13.44 15 13.31L15 14.86C14.76 14.95 14.51 15 14.25 15C13.42 15 12.67 14.5 12 13.5C11.33 14.5 10.58 15 9.75 15C8.92 15 8.17 14.5 7.5 13.5C6.83 14.5 6.08 15 5.25 15C4.42 15 3.67 14.5 3 13.5C2.33 14.5 1.58 15 0.75 15C0.49 15 0.24 14.95 0 14.86L0 13.31C0.24 13.44 0.49 13.5 0.75 13.5C1.58 13.5 2.33 12.83 3 11.5C3.67 12.83 4.42 13.5 5.25 13.5C6.08 13.5 6.83 12.83 7.5 11.5C8.17 12.83 8.92 13.5 9.75 13.5C10.58 13.5 11.33 12.83 12 11.5Z"/>
</svg>