<svg xmlns="http://www.w3.org/2000/svg" viewBox="0 0 15 15" >
  <path d="m1.6973 1.25-1.5117 2.8867 1.25 2.3633-1.25 2.3867 1.5137 2.8633h2.7559l1.252 2.25h3.3379l1.5234-2.7422-1.2539-2.3906 0.98828-1.8672h2.748l1.5137-2.8633-1.5117-2.8867h-3.3555l-1.248 2.3848h-2.1484l-1.248-2.3848h-3.3555zm0.60547 1h2.1445l0.98828 1.8848-0.98633 1.8652h-0.0019532-2.1465l-0.98633-1.8652 0.98828-1.8848zm8 0h2.1445l0.98828 1.8848-0.98633 1.8652h-2.1465-0.001953l-0.98633-1.8652 0.98828-1.8848zm2.3066 1.3281-0.79688 1.4219h-1.4375l0.25 0.5h1.4844l0.79883-1.4062-0.29883-0.51562zm-6.3086 1.0566h2.1484l0.98633 1.8652-0.98633 1.8633h-2.1484l-0.98633-1.8633 0.98633-1.8652zm-3.998 2.3652h2.1445l0.98828 1.8652v0.0019531l-0.98633 1.8809h-2.1484l-0.98633-1.8633 0.98828-1.8848zm2.3066 1.3281-0.79688 1.4219h-1.4375l0.25 0.5h1.4844l0.79883-1.4062-0.29883-0.51562zm1.6934 1.0371h2.1465l0.98438 1.877-0.97852 1.7578h-2.1621l-0.97461-1.7578 0.98438-1.877zm2.3066 1.2129-0.79688 1.4219h-1.4375l0.25 0.5h1.4844l0.79883-1.4062-0.29883-0.51562z" />
</svg>
