<svg xmlns="http://www.w3.org/2000/svg" viewBox="0 0 15 15">
  <path d="M0.75 2.5L2.25 2.5C2.39 2.5 2.5 2.61 2.5 2.75L2.5 4.25C2.5 4.39 2.39 4.5 2.25 4.5L0.75 4.5C0.61 4.5 0.5 4.39 0.5 4.25L0.5 2.75C0.5 2.61 0.61 2.5 0.75 2.5ZM3.75 2.5L5.25 2.5C5.39 2.5 5.5 2.61 5.5 2.75L5.5 4.25C5.5 4.39 5.39 4.5 5.25 4.5L3.75 4.5C3.61 4.5 3.5 4.39 3.5 4.25L3.5 2.75C3.5 2.61 3.61 2.5 3.75 2.5ZM6.75 2.5L8.25 2.5C8.39 2.5 8.5 2.61 8.5 2.75L8.5 4.25C8.5 4.39 8.39 4.5 8.25 4.5L6.75 4.5C6.61 4.5 6.5 4.39 6.5 4.25L6.5 2.75C6.5 2.61 6.61 2.5 6.75 2.5ZM9.75 2.5L11.25 2.5C11.39 2.5 11.5 2.61 11.5 2.75L11.5 4.25C11.5 4.39 11.39 4.5 11.25 4.5L9.75 4.5C9.61 4.5 9.5 4.39 9.5 4.25L9.5 2.75C9.5 2.61 9.61 2.5 9.75 2.5ZM12.75 2.5L14.25 2.5C14.39 2.5 14.5 2.61 14.5 2.75L14.5 4.25C14.5 4.39 14.39 4.5 14.25 4.5L12.75 4.5C12.61 4.5 12.5 4.39 12.5 4.25L12.5 2.75C12.5 2.61 12.61 2.5 12.75 2.5ZM0.75 7.5L2.25 7.5C2.39 7.5 2.5 7.61 2.5 7.75L2.5 9.25C2.5 9.39 2.39 9.5 2.25 9.5L0.75 9.5C0.61 9.5 0.5 9.39 0.5 9.25L0.5 7.75C0.5 7.61 0.61 7.5 0.75 7.5ZM3.75 7.5L5.25 7.5C5.39 7.5 5.5 7.61 5.5 7.75L5.5 9.25C5.5 9.39 5.39 9.5 5.25 9.5L3.75 9.5C3.61 9.5 3.5 9.39 3.5 9.25L3.5 7.75C3.5 7.61 3.61 7.5 3.75 7.5ZM6.75 7.5L8.25 7.5C8.39 7.5 8.5 7.61 8.5 7.75L8.5 9.25C8.5 9.39 8.39 9.5 8.25 9.5L6.75 9.5C6.61 9.5 6.5 9.39 6.5 9.25L6.5 7.75C6.5 7.61 6.61 7.5 6.75 7.5ZM9.75 7.5L11.25 7.5C11.39 7.5 11.5 7.61 11.5 7.75L11.5 9.25C11.5 9.39 11.39 9.5 11.25 9.5L9.75 9.5C9.61 9.5 9.5 9.39 9.5 9.25L9.5 7.75C9.5 7.61 9.61 7.5 9.75 7.5ZM12.75 7.5L14.25 7.5C14.39 7.5 14.5 7.61 14.5 7.75L14.5 9.25C14.5 9.39 14.39 9.5 14.25 9.5L12.75 9.5C12.61 9.5 12.5 9.39 12.5 9.25L12.5 7.75C12.5 7.61 12.61 7.5 12.75 7.5ZM11.25 5L12.75 5C12.89 5 13 5.11 13 5.25L13 6.75C13 6.89 12.89 7 12.75 7L11.25 7C11.11 7 11 6.89 11 6.75L11 5.25C11 5.11 11.11 5 11.25 5ZM8.25 5L9.75 5C9.89 5 10 5.11 10 5.25L10 6.75C10 6.89 9.89 7 9.75 7L8.25 7C8.11 7 8 6.89 8 6.75L8 5.25C8 5.11 8.11 5 8.25 5ZM5.25 5L6.75 5C6.89 5 7 5.11 7 5.25L7 6.75C7 6.89 6.89 7 6.75 7L5.25 7C5.11 7 5 6.89 5 6.75L5 5.25C5 5.11 5.11 5 5.25 5ZM2.25 5L3.75 5C3.89 5 4 5.11 4 5.25L4 6.75C4 6.89 3.89 7 3.75 7L2.25 7C2.11 7 2 6.89 2 6.75L2 5.25C2 5.11 2.11 5 2.25 5ZM3.25 10.5L11.75 10.5C11.89 10.5 12 10.61 12 10.75L12 12.25C12 12.39 11.89 12.5 11.75 12.5L3.25 12.5C3.11 12.5 3 12.39 3 12.25L3 10.75C3 10.61 3.11 10.5 3.25 10.5Z"/>
</svg>