<svg xmlns="http://www.w3.org/2000/svg" viewBox="0 0 15 15">
  <path d="M14.5 2C14.78 2 15 2.22 15 2.5L15 12.5C15 12.78 14.78 13 14.5 13L0.5 13C0.22 13 0 12.78 0 12.5L0 2.5C0 2.22 0.22 2 0.5 2L14.5 2ZM11.75 10L3.25 10C3.11 10 3 10.11 3 10.25L3 11.25C3 11.39 3.11 11.5 3.25 11.5L11.75 11.5C11.89 11.5 12 11.39 12 11.25L12 10.25C12 10.11 11.89 10 11.75 10ZM2.75 7.5L1.25 7.5C1.11 7.5 1 7.61 1 7.75L1 8.75C1 8.89 1.11 9 1.25 9L2.75 9C2.89 9 3 8.89 3 8.75L3 7.75C3 7.61 2.89 7.5 2.75 7.5ZM5.5 7.5L4 7.5C3.86 7.5 3.75 7.61 3.75 7.75L3.75 8.75C3.75 8.89 3.86 9 4 9L5.5 9C5.64 9 5.75 8.89 5.75 8.75L5.75 7.75C5.75 7.61 5.64 7.5 5.5 7.5ZM8.25 7.5L6.75 7.5C6.61 7.5 6.5 7.61 6.5 7.75L6.5 8.75C6.5 8.89 6.61 9 6.75 9L8.25 9C8.39 9 8.5 8.89 8.5 8.75L8.5 7.75C8.5 7.61 8.39 7.5 8.25 7.5ZM11 7.5L9.5 7.5C9.36 7.5 9.25 7.61 9.25 7.75L9.25 8.75C9.25 8.89 9.36 9 9.5 9L11 9C11.14 9 11.25 8.89 11.25 8.75L11.25 7.75C11.25 7.61 11.14 7.5 11 7.5ZM13.75 7.5L12.25 7.5C12.11 7.5 12 7.61 12 7.75L12 8.75C12 8.89 12.11 9 12.25 9L13.75 9C13.89 9 14 8.89 14 8.75L14 7.75C14 7.61 13.89 7.5 13.75 7.5ZM12.75 5.5L11.25 5.5C11.11 5.5 11 5.61 11 5.75L11 6.75C11 6.89 11.11 7 11.25 7L12.75 7C12.89 7 13 6.89 13 6.75L13 5.75C13 5.61 12.89 5.5 12.75 5.5ZM9.75 5.5L8.25 5.5C8.11 5.5 8 5.61 8 5.75L8 6.75C8 6.89 8.11 7 8.25 7L9.75 7C9.89 7 10 6.89 10 6.75L10 5.75C10 5.61 9.89 5.5 9.75 5.5ZM6.75 5.5L5.25 5.5C5.11 5.5 5 5.61 5 5.75L5 6.75C5 6.89 5.11 7 5.25 7L6.75 7C6.89 7 7 6.89 7 6.75L7 5.75C7 5.61 6.89 5.5 6.75 5.5ZM3.75 5.5L2.25 5.5C2.11 5.5 2 5.61 2 5.75L2 6.75C2 6.89 2.11 7 2.25 7L3.75 7C3.89 7 4 6.89 4 6.75L4 5.75C4 5.61 3.89 5.5 3.75 5.5ZM2.75 3.5L1.25 3.5C1.11 3.5 1 3.61 1 3.75L1 4.75C1 4.89 1.11 5 1.25 5L2.75 5C2.89 5 3 4.89 3 4.75L3 3.75C3 3.61 2.89 3.5 2.75 3.5ZM5.5 3.5L4 3.5C3.86 3.5 3.75 3.61 3.75 3.75L3.75 4.75C3.75 4.89 3.86 5 4 5L5.5 5C5.64 5 5.75 4.89 5.75 4.75L5.75 3.75C5.75 3.61 5.64 3.5 5.5 3.5ZM8.25 3.5L6.75 3.5C6.61 3.5 6.5 3.61 6.5 3.75L6.5 4.75C6.5 4.89 6.61 5 6.75 5L8.25 5C8.39 5 8.5 4.89 8.5 4.75L8.5 3.75C8.5 3.61 8.39 3.5 8.25 3.5ZM11 3.5L9.5 3.5C9.36 3.5 9.25 3.61 9.25 3.75L9.25 4.75C9.25 4.89 9.36 5 9.5 5L11 5C11.14 5 11.25 4.89 11.25 4.75L11.25 3.75C11.25 3.61 11.14 3.5 11 3.5ZM13.75 3.5L12.25 3.5C12.11 3.5 12 3.61 12 3.75L12 4.75C12 4.89 12.11 5 12.25 5L13.75 5C13.89 5 14 4.89 14 4.75L14 3.75C14 3.61 13.89 3.5 13.75 3.5Z"/>
</svg>