<svg xmlns="http://www.w3.org/2000/svg" viewBox="0 0 15 15">
<path d="M 6.01,0 C 6.08,0 6.15,0.03 6.19,0.09 7.04,1.25 8.26,2.09 9.65,2.47 9.88,2.53 10.01,2.76 9.975,2.885 L 9.72,3.67 C 9.66,3.85 9.5,3.96 9.32,3.96 L 7.8,4.015 C 7.69,4.07 7.67,4.2 7.74,4.3 L 9.49,6.75 C 9.57,6.86 9.59,7.02 9.54,7.15 L 8.88,8.8 C 8.81,8.96 8.85,9.14 8.97,9.26 L 9.5,9.78 C 9.58,9.86 9.62,9.97 9.62,10.08 V 11.18 C 9.62,11.41 9.43,11.6 9.2,11.6 H 5.8 C 5.57,11.6 5.38,11.41 5.38,11.18 V 10.08 C 5.38,9.97 5.42,9.86 5.5,9.78 L 6.09,9.19 C 6.24,9.05 6.26,8.82 6.14,8.65 4.69,6.53 4.56,3.77 5.8,1.52 V 0.21 C 5.8,0.1 5.9,0 6.01,0 Z M 9.62,12.45 C 9.86,12.45 10.05,12.64 10.05,12.88 V 14.58 C 10.05,14.81 9.86,15 9.62,15 H 5.38 C 5.14,15 4.95,14.81 4.95,14.58 V 12.88 C 4.95,12.64 5.14,12.45 5.38,12.45 Z" />
</svg>
