<svg xmlns="http://www.w3.org/2000/svg" viewBox="0 0 15 15">
<path
 d="M 6.9,0 C 4,0.13 1.8,2.6 1.9,5.5 L 1.92,9.85 C 1.94,11.4 4.41,14.8 7.51,15 10.61,14.8 13.11,11.4 13.11,9.85 L 13.11,5.5 C 13.24,2.6 11.01,0.2 8.11,0 Z M 2.8,3.4 C 3.06,4.27 3.8,4.9 4.7,5 H 4.7 C 6,5.14 7,6.2 7.1,7.5 V 9.4 H 5.2 C 3.9,9.4 2.7,8.5 2.4,7.2 2.08,6 2.19,4.6 2.71,3.4 Z M 12.2,3.4 C 12.72,4.6 12.83,5.9 12.51,7.2 12.18,8.5 11.01,9.4 9.71,9.4 H 7.81 V 7.5 C 7.92,6.2 8.91,5.1 10.21,5 H 10.21 C 11.11,4.92 11.91,4.3 12.11,3.4 Z M 3.4,5.7 C 3.4,6.1 3.45,6.49 3.54,6.9 3.74,7.7 4.47,8.3 5.34,8.3 H 6.12 V 7.57 C 6.04,6.8 5.43,6.17 4.62,6.07 L 4.62,6.07 C 4.2,6.03 3.78,5.91 3.42,5.72 Z M 11.6,5.7 C 11.22,5.89 10.81,6.01 10.4,6.05 L 10.4,6.05 C 9.63,6.14 9,6.74 8.9,7.55 V 8.28 H 9.68 C 10.51,8.28 11.18,7.72 11.48,6.88 11.58,6.5 11.63,6.1 11.62,5.68 Z M 6.6,10 H 8.5 C 8.67,10 8.81,10.14 8.81,10.31 8.81,10.48 8.67,10.62 8.5,10.62 H 6.6 C 6.43,10.62 6.29,10.48 6.29,10.31 6.29,10.14 6.43,10 6.6,10 Z M 6.13,10.94 H 8.93 C 9.71,10.94 10.33,11.57 10.33,12.34 10.33,13.11 9.7,13.74 8.93,13.74 H 6.13 C 5.35,13.74 4.73,13.11 4.73,12.34 4.73,11.56 5.36,10.94 6.13,10.94 Z M 6.13,11.88 C 5.87,11.88 5.66,12.09 5.67,12.35 5.67,12.61 5.88,12.81 6.13,12.82 H 8.93 C 9.19,12.82 9.4,12.61 9.4,12.35 9.4,12.09 9.19,11.88 8.93,11.88 Z" />
</svg>
