<svg xmlns="http://www.w3.org/2000/svg" viewBox="0 0 15 15">
  <path d="M3 4C3 4 7.5 7 7.5 7C7.5 7 12 4 12 4C12 4 12 0 12 0C12 0 3 0 3 0L3 4ZM8.5 7.5C8.64 7.5 8.75 7.61 8.75 7.75L8.75 10L11 10C11.14 10 11.25 10.11 11.25 10.25L11.25 12.25C11.25 12.39 11.14 12.5 11 12.5L8.75 12.5L8.75 14.75C8.75 14.89 8.64 15 8.5 15L6.5 15C6.36 15 6.25 14.89 6.25 14.75L6.25 12.5L4 12.5C3.86 12.5 3.75 12.39 3.75 12.25L3.75 10.25C3.75 10.11 3.86 10 4 10L6.25 10L6.25 7.75C6.25 7.61 6.36 7.5 6.5 7.5L8.5 7.5Z"/>
</svg>