<svg xmlns="http://www.w3.org/2000/svg" viewBox="0 0 15 15">
  <path d="M3 3L3 12.5L12 12.5L12 3C11 1 9.5 0 7.5 0C5.5 0 4 1 3 3ZM13.5 13L14 15L1 15L1.5 13L13.5 13ZM7.5 2.5L8.75 4.52L11.25 4.52L10 6.54L11.25 8.56L8.75 8.56L7.5 10.58L6.25 8.56L3.75 8.56L5 6.54L3.75 4.52L6.25 4.52L7.5 2.5ZM8.07 8.56L6.93 8.56L7.5 9.48L8.07 8.56ZM5.34 7.09L4.79 7.98L5.89 7.98L5.34 7.09ZM8.43 5.1L6.57 5.1L5.68 6.54L6.57 7.98L8.43 7.98L9.32 6.54L8.43 5.1ZM9.66 7.09L9.11 7.98L10.21 7.98L9.66 7.09ZM5.89 5.1L4.79 5.1L5.34 5.99L5.89 5.1ZM10.21 5.1L9.11 5.1L9.66 5.99L10.21 5.1ZM7.5 3.6L6.93 4.52L8.07 4.52L7.5 3.6Z"/>
</svg>