<svg xmlns="http://www.w3.org/2000/svg" viewBox="0 0 15 15">
  <path d="M3 3L3 12.5L12 12.5L12 3C11 1 9.5 0 7.5 0C5.5 0 4 1 3 3ZM13.5 13L14 15L1 15L1.5 13L13.5 13ZM10.04 2L11.5 3.55L10.5 3.58C10.04 3.95 9.64 4.27 9.18 4.65C9.18 4.65 9.16 4.8 9.16 4.83C9.6 5.74 10.59 6.61 10.61 7.66C10.59 7.7 10.58 7.73 10.57 7.77C10.21 8.02 9.85 8.27 9.49 8.53C9.47 8.66 9.45 8.77 9.43 8.86C8.84 9.93 7.76 10.57 6.61 10.57C5.22 10.57 3.97 9.64 3.5 8.25C3.97 7.82 4.57 7.58 4.57 7.58C4.57 7.58 4.68 7.46 4.63 7.41C4.57 7.35 4.13 7.1 4.07 6.95C3.99 6.81 3.82 6.49 4.07 5.67C4.15 5.37 4.33 5.17 4.56 5.02C5.09 4.66 5.81 4.66 5.84 4.66C6.03 4.87 6.17 5.33 6.29 5.35C6.67 5.43 6.74 5.43 6.77 5.45C6.88 5.5 6.83 5.57 6.84 5.65L6.86 5.74C6.86 5.74 6.99 5.65 7.01 5.62C7.25 5.42 7.5 5.21 7.74 4.99C7.79 4.58 8.07 4.24 8.4 4.06C8.51 3.99 8.53 4.1 8.67 4.13C9.09 3.75 9.49 3.33 9.91 2.95L10.04 2ZM8.65 5.47C8.39 5.61 8.2 5.58 8.15 5.57C7.74 5.88 7.36 6.17 7.18 6.3C7.24 6.38 7.22 6.41 7.22 6.46C7.22 6.54 6.96 6.93 6.58 7.2L6.98 7.2C7.27 7.19 8.53 7.18 9.04 7.17C9.09 7.11 9.1 7.04 9.04 6.92C8.76 6.39 8.72 5.53 8.72 5.53L8.65 5.47Z"/>
</svg>