<svg xmlns="http://www.w3.org/2000/svg" viewBox="0 0 15 15">
  <path d="M3 3L3 12.5L12 12.5L12 3C11 1 9.5 0 7.5 0C5.5 0 4 1 3 3ZM13.5 13L14 15L1 15L1.5 13L13.5 13ZM4.29 4.63C4.91 4.11 6.22 3.98 6.96 4.63C7.53 5.12 7.63 6.04 6.96 6.52C7.09 6.65 7.31 6.79 7.5 6.79C8.03 6.79 8.12 6.47 8.3 6.25C8.64 5.81 8.61 5.55 9.18 5.37C9.92 5.14 10.61 5.38 10.98 6.25C11.57 7.67 11.24 9.5 9.64 9.5C8.03 9.5 8.03 8.42 8.03 7.88C8.36 8.77 9.64 8.96 10.17 8.42C10.71 7.88 10.72 6.26 9.91 6.25C9.24 6.25 9.05 6.92 8.57 7.34C8.22 7.63 7.78 7.63 7.5 7.34C7.5 8.42 6.96 9.5 5.89 9.5L5.81 9.5C5.35 9.49 3.75 9.35 3.75 7.34C4.56 8.7 6.47 8.62 6.79 7.88C6.96 7.49 6.59 6.93 5.89 7.07L5.89 6.25C6.43 6.25 6.82 6.07 6.82 5.73C6.82 5.38 6.43 5.17 5.89 5.17C5.89 5.17 5.09 5.17 4.82 5.71C4.64 5.36 4.44 4.96 4.29 4.63ZM6.96 3.54L6.97 3.56C7.08 3.74 7.9 4.98 9.1 3.82C9.28 4.09 9.64 4.63 9.64 4.63C9.64 4.63 7.8 5.9 6.96 3.54ZM8.03 3L8.57 3.54L8.03 4.09L7.5 3.54L8.03 3Z"/>
</svg>