<svg xmlns="http://www.w3.org/2000/svg" viewBox="0 0 15 15">
  <path d="M3 3L3 12.5L12 12.5L12 3C11 1 9.5 0 7.5 0C5.5 0 4 1 3 3ZM13.5 13L14 15L1 15L1.5 13L13.5 13ZM7.81 2.25C7.81 4.73 8.98 4.32 8.98 5.7C8.98 6.39 8.64 6.88 8.29 7.08C9.35 7.11 11.56 6.37 11.5 6.39C11.5 6.84 11.15 7.19 10.81 7.42C10.36 7.72 10.06 7.74 9.23 7.77L7.74 7.77L7.74 9.7L8.93 9.9C9.2 9.94 9.4 10.18 9.4 10.45L9.4 10.53L5.53 10.53L5.53 10.45C5.53 10.18 5.73 9.94 6 9.9L7.19 9.7L7.19 7.77L5.56 7.77C4.88 7.77 4.44 7.79 4.05 7.5C4.05 7.5 3.5 7.12 3.5 6.39C5.01 6.77 4.57 7.08 6.64 7.08C6.3 6.99 5.95 6.39 5.95 5.7C5.95 4.32 7.47 2.94 7.81 2.25ZM7.47 4.32C7.2 4.71 6.91 5.24 6.91 6.16C6.91 6.62 7.34 6.98 7.47 7.08C7.58 6.99 8.02 6.62 8.02 6.16C8.02 5.7 7.46 5.44 7.47 4.32Z"/>
</svg>