<svg xmlns="http://www.w3.org/2000/svg" viewBox="0 0 15 15">
  <path d="M3 3L3 12.5L12 12.5L12 3C11 1 9.5 0 7.5 0C5.5 0 4 1 3 3ZM13.5 13L14 15L1 15L1.5 13L13.5 13ZM7.5 3C9.57 3 11.25 4.7 11.25 6.75C11.25 8.81 9.57 10.5 7.5 10.5C5.44 10.5 3.75 8.82 3.75 6.75C3.75 4.68 5.43 3 7.5 3ZM7.5 3.54C5.72 3.54 4.29 4.97 4.29 6.75C4.29 8.53 5.72 9.97 7.5 9.97C5.94 9.97 5.36 7.03 7.5 6.75C9.65 6.47 9.11 3.54 7.5 3.54ZM7.5 7.82C7.21 7.82 6.97 8.06 6.97 8.36C6.97 8.65 7.21 8.9 7.5 8.9C7.8 8.9 8.04 8.65 8.04 8.36C8.04 8.06 7.8 7.82 7.5 7.82ZM7.5 4.61C7.8 4.61 8.04 4.85 8.04 5.15C8.04 5.44 7.8 5.68 7.5 5.68C7.21 5.68 6.97 5.44 6.97 5.15C6.97 4.85 7.21 4.61 7.5 4.61Z"/>
</svg>