<svg xmlns="http://www.w3.org/2000/svg" viewBox="0 0 15 15">
  <path d="M3 3L3 12.5L12 12.5L12 3C11 1 9.5 0 7.5 0C5.5 0 4 1 3 3ZM13.5 13L14 15L1 15L1.5 13L13.5 13ZM10.4 4.1C10.5 4.2 10.59 4.3 10.68 4.41C9.52 3.5 7.82 3.58 6.76 4.65C5.6 5.81 5.6 7.69 6.76 8.85C7.82 9.93 9.52 10.01 10.68 9.09C10.59 9.2 10.5 9.3 10.4 9.41C8.94 10.87 6.56 10.87 5.09 9.41C3.64 7.94 3.64 5.56 5.09 4.1C6.56 2.64 8.94 2.64 10.4 4.1ZM9.77 5.02L10.29 6.17L11.5 6.17L10.52 7.04L10.92 8.48L9.77 7.62L8.61 8.48L9.02 7.04L8.04 6.17L9.25 6.17L9.77 5.02Z"/>
</svg>