<svg xmlns="http://www.w3.org/2000/svg" viewBox="0 0 15 15">
  <path d="M3 3L3 12.5L12 12.5L12 3C11 1 9.5 0 7.5 0C5.5 0 4 1 3 3ZM13.5 13L14 15L1 15L1.5 13L13.5 13ZM7.49 2.5L8.08 3.08C8.03 3.32 8.01 3.52 7.98 3.74C8.71 3.96 9.24 4.6 9.24 5.39C9.24 6.17 8.71 6.81 7.98 7.02C8.01 7.24 8.03 7.45 8.08 7.69L7.79 7.98L7.79 8.23C8.33 7.87 8.88 7.46 9.24 7.11C10.43 5.96 10.12 3.94 8.66 3.08C9.83 3.37 11 4.41 11 5.96C11 7.69 9.24 8.27 9.24 8.85L8.66 8.27L7.93 8.68C8.25 8.88 8.66 9.13 8.66 9.13L8.37 9.42L7.76 9.08L7.76 9.49C7.96 9.59 8.08 9.77 8.08 10C8.08 10.32 7.81 10.58 7.49 10.58C7.17 10.58 6.91 10.32 6.91 10C6.91 9.77 7.05 9.59 7.24 9.49L7.24 9.08L6.61 9.42L6.32 9.13C6.32 9.13 6.71 8.9 7.07 8.68L6.32 8.27L5.73 8.85C5.73 8.27 4 7.69 4 5.96C4 4.41 5.16 3.37 6.32 3.08C4.86 3.94 4.55 5.96 5.73 7.11C6.09 7.46 6.66 7.86 7.2 8.21L7.2 7.98L6.91 7.69C6.95 7.45 6.97 7.24 7 7.02C6.27 6.81 5.73 6.17 5.73 5.39C5.73 4.61 6.27 3.96 6.98 3.74C6.95 3.52 6.95 3.33 6.91 3.08L7.49 2.5ZM6.03 9.42C6.19 9.42 6.32 9.55 6.32 9.71C6.32 9.87 6.19 10 6.03 10C5.87 10 5.73 9.87 5.73 9.71C5.73 9.55 5.87 9.42 6.03 9.42ZM8.95 9.42C9.12 9.42 9.24 9.55 9.24 9.71C9.24 9.87 9.12 10 8.95 10C8.79 10 8.66 9.87 8.66 9.71C8.66 9.55 8.79 9.42 8.95 9.42ZM7.91 4.3C7.84 5.05 7.84 5.73 7.91 6.47C8.35 6.3 8.66 5.88 8.66 5.39C8.66 4.89 8.35 4.47 7.91 4.3ZM7.05 4.32C7.05 4.33 7.04 4.32 7.03 4.32C6.62 4.5 6.32 4.91 6.32 5.39C6.32 5.88 6.63 6.3 7.07 6.47C7.14 5.75 7.13 5.12 7.05 4.32Z"/>
</svg>