<svg xmlns="http://www.w3.org/2000/svg" viewBox="0 0 15 15">
  <path d="M3 3L3 12.5L12 12.5L12 3C11 1 9.5 0 7.5 0C5.5 0 4 1 3 3ZM13.5 13L14 15L1 15L1.5 13L13.5 13ZM7.5 3C9.57 3 11.25 4.68 11.25 6.75C11.25 8.82 9.57 10.5 7.5 10.5C5.43 10.5 3.75 8.82 3.75 6.75C3.75 4.68 5.43 3 7.5 3ZM7.19 7.5L5.52 9.17C5.99 9.55 6.56 9.8 7.19 9.86L7.19 7.5ZM7.81 7.5L7.81 9.86C8.44 9.8 9.01 9.55 9.48 9.17L7.81 7.5ZM8.25 7.06L9.92 8.73C10.3 8.26 10.55 7.69 10.61 7.06L8.25 7.06ZM6.75 7.06L4.39 7.06C4.45 7.69 4.7 8.26 5.08 8.73L6.75 7.06ZM5.08 4.77C4.7 5.24 4.45 5.81 4.39 6.44L6.75 6.44L5.08 4.77ZM9.92 4.77L8.25 6.44L10.61 6.44C10.55 5.81 10.3 5.24 9.92 4.77ZM7.19 3.64C6.56 3.7 5.99 3.95 5.52 4.33L7.19 6L7.19 3.64ZM7.81 3.64L7.81 6L9.48 4.33C9.01 3.95 8.44 3.7 7.81 3.64Z"/>
</svg>