<?xml version="1.0" encoding="UTF-8"?>
<svg viewBox="0 0 15 15" version="1.1" xmlns="http://www.w3.org/2000/svg" xmlns:xlink="http://www.w3.org/1999/xlink">
  <path d="M11,13 C11,14.1045695 10.1045695,15 9,15 L6,15 C4.8954305,15 4,14.1045695 4,13 L4,4 C4,2.8954305 4.8954305,2 6,2 L9,2 C9.364732,2 9.70666076,2.0976323 10.0010775,2.26818814 L10,0.5 C10,0.223857625 10.2238576,0 10.5,0 C10.7761424,0 11,0.223857625 11,0.5 L11,13 Z M8.5,13 L6.5,13 C6.22385763,13 6,13.2238576 6,13.5 C6,13.7761424 6.22385763,14 6.5,14 L8.5,14 C8.77614237,14 9,13.7761424 9,13.5 C9,13.2238576 8.77614237,13 8.5,13 Z M9.5,4 L5.5,4 C5.22385763,4 5,4.22385763 5,4.5 L5,11.5 C5,11.7761424 5.22385763,12 5.5,12 L9.5,12 C9.77614237,12 10,11.7761424 10,11.5 L10,4.5 C10,4.22385763 9.77614237,4 9.5,4 Z"/>
</svg>