<?xml version="1.0" encoding="UTF-8"?>
<svg viewBox="0 0 15 15" version="1.1" xmlns="http://www.w3.org/2000/svg" xmlns:xlink="http://www.w3.org/1999/xlink">
  <path d="M7.5,0 C7.77614237,0 8,0.223857625 8,0.5 L8,13.1819995 C8,13.8244092 7.6015069,14.3994349 7,14.625 C6.33872541,14.872978 5.6382411,15 4.93199953,15 L4.06800047,15 C3.3617589,15 2.66127459,14.872978 2,14.625 C1.3984931,14.3994349 1,13.8244092 1,13.1819995 L1,3.81800047 C1,3.17559082 1.3984931,2.60056509 2,2.375 C2.66127459,2.12702203 3.3617589,2 4.06800047,2 L4.93199953,2 C5.6382411,2 6.33872541,2.12702203 7,2.375 L7,0.5 C7,0.223857625 7.22385763,0 7.5,0 Z M2.75,12 L2.25,12 C2.11192881,12 2,12.1119288 2,12.25 L2,12.75 C2,12.8880712 2.11192881,13 2.25,13 L2.75,13 C2.88807119,13 3,12.8880712 3,12.75 L3,12.25 C3,12.1119288 2.88807119,12 2.75,12 Z M4.75,12 L4.25,12 C4.11192881,12 4,12.1119288 4,12.25 L4,12.75 C4,12.8880712 4.11192881,13 4.25,13 L4.75,13 C4.88807119,13 5,12.8880712 5,12.75 L5,12.25 C5,12.1119288 4.88807119,12 4.75,12 Z M6.75,12 L6.25,12 C6.11192881,12 6,12.1119288 6,12.25 L6,12.75 C6,12.8880712 6.11192881,13 6.25,13 L6.75,13 C6.88807119,13 7,12.8880712 7,12.75 L7,12.25 C7,12.1119288 6.88807119,12 6.75,12 Z M2.75,10 L2.25,10 C2.11192881,10 2,10.1119288 2,10.25 L2,10.75 C2,10.8880712 2.11192881,11 2.25,11 L2.75,11 C2.88807119,11 3,10.8880712 3,10.75 L3,10.25 C3,10.1119288 2.88807119,10 2.75,10 Z M4.75,10 L4.25,10 C4.11192881,10 4,10.1119288 4,10.25 L4,10.75 C4,10.8880712 4.11192881,11 4.25,11 L4.75,11 C4.88807119,11 5,10.8880712 5,10.75 L5,10.25 C5,10.1119288 4.88807119,10 4.75,10 Z M6.75,10 L6.25,10 C6.11192881,10 6,10.1119288 6,10.25 L6,10.75 C6,10.8880712 6.11192881,11 6.25,11 L6.75,11 C6.88807119,11 7,10.8880712 7,10.75 L7,10.25 C7,10.1119288 6.88807119,10 6.75,10 Z M2.75,8 L2.25,8 C2.11192881,8 2,8.11192881 2,8.25 L2,8.75 C2,8.88807119 2.11192881,9 2.25,9 L2.75,9 C2.88807119,9 3,8.88807119 3,8.75 L3,8.25 C3,8.11192881 2.88807119,8 2.75,8 Z M4.75,8 L4.25,8 C4.11192881,8 4,8.11192881 4,8.25 L4,8.75 C4,8.88807119 4.11192881,9 4.25,9 L4.75,9 C4.88807119,9 5,8.88807119 5,8.75 L5,8.25 C5,8.11192881 4.88807119,8 4.75,8 Z M6.75,8 L6.25,8 C6.11192881,8 6,8.11192881 6,8.25 L6,8.75 C6,8.88807119 6.11192881,9 6.25,9 L6.75,9 C6.88807119,9 7,8.88807119 7,8.75 L7,8.25 C7,8.11192881 6.88807119,8 6.75,8 Z M6.5,5 L2.5,5 C2.22385763,5 2,5.22385763 2,5.5 L2,6.5 C2,6.77614237 2.22385763,7 2.5,7 L6.5,7 C6.77614237,7 7,6.77614237 7,6.5 L7,5.5 C7,5.22385763 6.77614237,5 6.5,5 Z M5.5,3 L3.5,3 C3.22385763,3 3,3.22385763 3,3.5 C3,3.77614237 3.22385763,4 3.5,4 L5.5,4 C5.77614237,4 6,3.77614237 6,3.5 C6,3.22385763 5.77614237,3 5.5,3 Z M11.1508918,1.93928553 L14.0598201,1.93928553 L12.6053559,5.81785658 L14.5446414,5.81785658 L10.6660704,12.6053559 L11.6357132,7.75714211 L9.69642763,7.75714211 L11.1508918,1.93928553 Z"/>
</svg>