<?xml version="1.0" encoding="UTF-8"?>
<svg viewBox="0 0 15 15" version="1.1" xmlns="http://www.w3.org/2000/svg" xmlns:xlink="http://www.w3.org/1999/xlink">
  <path d="M8,13 C8,14.1045695 7.1045695,15 6,15 L3,15 C1.8954305,15 1,14.1045695 1,13 L1,4 C1,2.8954305 1.8954305,2 3,2 L6,2 C6.364732,2 6.70666076,2.0976323 7.0010775,2.26818814 L7,0.5 C7,0.223857625 7.22385763,0 7.5,0 C7.77614237,0 8,0.223857625 8,0.5 L8,13 Z M5.5,13 L3.5,13 C3.22385763,13 3,13.2238576 3,13.5 C3,13.7761424 3.22385763,14 3.5,14 L5.5,14 C5.77614237,14 6,13.7761424 6,13.5 C6,13.2238576 5.77614237,13 5.5,13 Z M6.5,4 L2.5,4 C2.22385763,4 2,4.22385763 2,4.5 L2,11.5 C2,11.7761424 2.22385763,12 2.5,12 L6.5,12 C6.77614237,12 7,11.7761424 7,11.5 L7,4.5 C7,4.22385763 6.77614237,4 6.5,4 Z M11.1508918,1.93928553 L14.0598201,1.93928553 L12.6053559,5.81785658 L14.5446414,5.81785658 L10.6660704,12.6053559 L11.6357132,7.75714211 L9.69642763,7.75714211 L11.1508918,1.93928553 Z"/>
</svg>