<?xml version="1.0" encoding="UTF-8"?>
<svg viewBox="0 0 15 15" version="1.1" xmlns="http://www.w3.org/2000/svg" xmlns:xlink="http://www.w3.org/1999/xlink">
  <path d="M10.5,0 C10.7761424,0 11,0.223857625 11,0.5 L11,13.1819995 C11,13.8244092 10.6015069,14.3994349 10,14.625 C9.33872541,14.872978 8.6382411,15 7.93199953,15 L7.06800047,15 C6.3617589,15 5.66127459,14.872978 5,14.625 C4.3984931,14.3994349 4,13.8244092 4,13.1819995 L4,3.81800047 C4,3.17559082 4.3984931,2.60056509 5,2.375 C5.66127459,2.12702203 6.3617589,2 7.06800047,2 L7.93199953,2 C8.6382411,2 9.33872541,2.12702203 10,2.375 L10,0.5 C10,0.223857625 10.2238576,0 10.5,0 Z M5.75,12 L5.25,12 C5.11192881,12 5,12.1119288 5,12.25 L5,12.75 C5,12.8880712 5.11192881,13 5.25,13 L5.75,13 C5.88807119,13 6,12.8880712 6,12.75 L6,12.25 C6,12.1119288 5.88807119,12 5.75,12 Z M7.75,12 L7.25,12 C7.11192881,12 7,12.1119288 7,12.25 L7,12.75 C7,12.8880712 7.11192881,13 7.25,13 L7.75,13 C7.88807119,13 8,12.8880712 8,12.75 L8,12.25 C8,12.1119288 7.88807119,12 7.75,12 Z M9.75,12 L9.25,12 C9.11192881,12 9,12.1119288 9,12.25 L9,12.75 C9,12.8880712 9.11192881,13 9.25,13 L9.75,13 C9.88807119,13 10,12.8880712 10,12.75 L10,12.25 C10,12.1119288 9.88807119,12 9.75,12 Z M5.75,10 L5.25,10 C5.11192881,10 5,10.1119288 5,10.25 L5,10.75 C5,10.8880712 5.11192881,11 5.25,11 L5.75,11 C5.88807119,11 6,10.8880712 6,10.75 L6,10.25 C6,10.1119288 5.88807119,10 5.75,10 Z M7.75,10 L7.25,10 C7.11192881,10 7,10.1119288 7,10.25 L7,10.75 C7,10.8880712 7.11192881,11 7.25,11 L7.75,11 C7.88807119,11 8,10.8880712 8,10.75 L8,10.25 C8,10.1119288 7.88807119,10 7.75,10 Z M9.75,10 L9.25,10 C9.11192881,10 9,10.1119288 9,10.25 L9,10.75 C9,10.8880712 9.11192881,11 9.25,11 L9.75,11 C9.88807119,11 10,10.8880712 10,10.75 L10,10.25 C10,10.1119288 9.88807119,10 9.75,10 Z M5.75,8 L5.25,8 C5.11192881,8 5,8.11192881 5,8.25 L5,8.75 C5,8.88807119 5.11192881,9 5.25,9 L5.75,9 C5.88807119,9 6,8.88807119 6,8.75 L6,8.25 C6,8.11192881 5.88807119,8 5.75,8 Z M7.75,8 L7.25,8 C7.11192881,8 7,8.11192881 7,8.25 L7,8.75 C7,8.88807119 7.11192881,9 7.25,9 L7.75,9 C7.88807119,9 8,8.88807119 8,8.75 L8,8.25 C8,8.11192881 7.88807119,8 7.75,8 Z M9.75,8 L9.25,8 C9.11192881,8 9,8.11192881 9,8.25 L9,8.75 C9,8.88807119 9.11192881,9 9.25,9 L9.75,9 C9.88807119,9 10,8.88807119 10,8.75 L10,8.25 C10,8.11192881 9.88807119,8 9.75,8 Z M9.5,5 L5.5,5 C5.22385763,5 5,5.22385763 5,5.5 L5,6.5 C5,6.77614237 5.22385763,7 5.5,7 L9.5,7 C9.77614237,7 10,6.77614237 10,6.5 L10,5.5 C10,5.22385763 9.77614237,5 9.5,5 Z M8.5,3 L6.5,3 C6.22385763,3 6,3.22385763 6,3.5 C6,3.77614237 6.22385763,4 6.5,4 L8.5,4 C8.77614237,4 9,3.77614237 9,3.5 C9,3.22385763 8.77614237,3 8.5,3 Z"/>
</svg>