<svg xmlns="http://www.w3.org/2000/svg" viewBox="0 0 15 15">
  <path d="M9.5 5L10.96 3.09C11.04 3.09 11.11 3.09 11.19 3.09C12.05 3.09 12.75 2.4 12.75 1.55C12.75 0.69 12.05 0 11.19 0C10.33 0 9.63 0.69 9.63 1.55C9.63 1.56 9.63 1.58 9.63 1.6C9.63 1.6 9.63 1.68 9.63 1.72L6.5 5L9.5 5ZM13 6L13 7L11.5 10.5L13 14L13 15L2 15L2 14L3.5 10.5L2 7L2 6L13 6ZM8.17 8L6.83 8C6.74 8 6.67 8.07 6.67 8.17L6.67 9.67L5.17 9.67C5.07 9.67 5 9.74 5 9.83L5 11.17C5 11.26 5.07 11.33 5.17 11.33L6.67 11.33L6.67 12.83C6.67 12.93 6.74 13 6.83 13L8.17 13C8.26 13 8.33 12.93 8.33 12.83L8.33 11.33L9.83 11.33C9.93 11.33 10 11.26 10 11.17L10 9.83C10 9.74 9.93 9.67 9.83 9.67L8.33 9.67L8.33 8.17C8.33 8.07 8.26 8 8.17 8Z"/>
</svg>