<svg xmlns="http://www.w3.org/2000/svg" viewBox="0 0 15 15">
  <path d="M0 10C2 10.5 4.5 11.5 4.5 11.5C4.5 11.5 5.5 11 6 11L8 11L11 10.5C11 10.5 11.5 11 11 11.5C10.5 12 8.5 12.5 8 12.5C7.5 12.5 8.5 13 8.5 13L10 13C10 13 12 13 13 12.5C14 12 15 11.5 15 12C13 14 12 14.5 12 14.5C12 14.5 10 15 8 15C7.5 15 6 14 5.5 14C5 14 0 14.5 0 14L0 10ZM5.06 5.77C4.99 5.72 5 5.63 5 5.63L5.41 0.85C5.41 0.85 5.41 0.79 5.44 0.77C5.45 0.75 5.46 0.73 5.5 0.71C5.91 0.55 8.11 -0.65 9.24 0.46C9.41 0.68 9.61 0.99 9.61 1.24L9.61 5.27C9.61 5.27 9.62 5.35 9.54 5.41C9.52 5.43 9.45 5.45 9.35 5.41C7.64 4.56 5.74 5.53 5.25 5.78C5.15 5.84 5.08 5.78 5.06 5.77ZM14.75 5.78C14.26 5.54 12.36 4.56 10.65 5.41C10.55 5.45 10.48 5.42 10.46 5.41C10.38 5.35 10.39 5.27 10.39 5.27L10.39 1.24C10.39 0.99 10.59 0.68 10.76 0.46C11.89 -0.65 14.08 0.55 14.49 0.71C14.52 0.73 14.54 0.75 14.55 0.76C14.58 0.79 14.59 0.85 14.59 0.85L15 5.63C15 5.63 15.01 5.72 14.94 5.77C14.92 5.78 14.84 5.84 14.75 5.78ZM11.04 7.87C11.08 7.86 11.12 7.84 11.14 7.81C11.15 7.78 11.16 7.76 11.16 7.73C11.21 7.01 12.41 6.34 14.74 7.71C14.81 7.74 14.88 7.74 14.94 7.69C15 7.64 15 7.56 15 7.56L15 7.14C15 7.14 15 7.08 14.98 7.05C14.96 7.04 14.94 7.01 14.91 6.98C13.34 5.98 11.38 5.54 10.38 6.86C10.36 6.89 10.35 6.91 10.32 6.94C10.29 6.96 10.24 6.96 10.24 6.96L9.78 6.96C9.78 6.96 9.72 6.96 9.68 6.94C9.65 6.91 9.64 6.89 9.62 6.86C8.62 5.54 6.65 5.96 5.09 6.96C5.06 6.98 5.04 7.01 5.02 7.04C5 7.06 5 7.13 5 7.13L5 7.54C5 7.54 5 7.63 5.06 7.67C5.12 7.72 5.19 7.72 5.25 7.69C7.56 6.34 8.79 7.02 8.82 7.74C8.82 7.77 8.84 7.79 8.85 7.82C8.86 7.84 8.91 7.87 8.95 7.88C9.51 8.01 10.31 8.06 11.04 7.87Z"/>
</svg>