<svg xmlns="http://www.w3.org/2000/svg" viewBox="0 0 15 15">
  <path d="M8.05 6.29L8.12 6.37C8.38 6.66 9.24 7.74 9.71 9.61C11.37 7.95 9.43 5.18 9.43 5.18L9.6 5.26C10.04 5.49 11.37 6.29 13.58 8.5C14.13 5.74 10.26 4.08 10.26 4.08L10.72 4.09C11.48 4.12 13.09 4.23 14.69 4.63C14.69 1.87 9.71 2.42 9.71 2.42L9.81 2.33C10.13 2.07 11.28 1.22 13.58 0.76C10.26 -1.45 7.5 1.87 7.5 1.87L7.48 1.8C7.34 1.44 6.44 -0.29 1.97 0.21C4.18 1.31 5.29 2.42 5.29 2.42L5.06 2.43C4.15 2.48 0.79 2.87 0.31 5.74C2.52 4.63 5.29 4.08 5.29 4.08L5.08 4.19C4.36 4.62 1.97 6.24 1.97 9.06L2.3 8.73C3.9 7.19 5.84 5.74 5.84 5.74L5.76 5.95C5.56 6.49 5.11 7.99 5.25 10C5.37 11.69 5.62 13.35 6 15L9 15L8.7 14.22C8.05 12.46 7.64 11.05 7.5 10C7.25 8.2 8.05 6.29 8.05 6.29Z"/>
</svg>