<svg viewBox="0 0 15 15" xmlns="http://www.w3.org/2000/svg">
 <path d="m6 0c-0.58333 0-1.1107 0.15363-1.4785 0.52148-0.36785 0.36785-0.52148 0.89518-0.52148 1.4785v8.5c0 1.125 0.41327 2.228 1.1152 3.0703 0.70196 0.84235 1.7181 1.4297 2.8848 1.4297s2.1828-0.58733 2.8848-1.4297c0.70196-0.84236 1.1152-1.9453 1.1152-3.0703v-6.5h-1v6.5c0 0.875-0.33673 1.772-0.88477 2.4297-0.54804 0.65764-1.2819 1.0703-2.1152 1.0703s-1.5672-0.41267-2.1152-1.0703c-0.54804-0.65765-0.88477-1.5547-0.88477-2.4297v-8.5c0-0.41667 0.096367-0.63934 0.22852-0.77148 0.13215-0.13215 0.35482-0.22852 0.77148-0.22852h2c0.41667 0 0.63934 0.096367 0.77148 0.22852 0.13215 0.13215 0.22852 0.35482 0.22852 0.77148v7.5c0 0.41667-0.11213 0.82933-0.29102 1.0977s-0.37565 0.40234-0.70898 0.40234-0.5301-0.13402-0.70898-0.40234-0.29102-0.68099-0.29102-1.0977v-5.5h-1v5.5c0 0.58333 0.13787 1.1707 0.45898 1.6523s0.87435 0.84766 1.541 0.84766 1.2199-0.36598 1.541-0.84766 0.45898-1.069 0.45898-1.6523v-7.5c0-0.58333-0.15363-1.1107-0.52148-1.4785-0.36785-0.36785-0.89518-0.52148-1.4785-0.52148z"/>
</svg>
