<svg xmlns="http://www.w3.org/2000/svg" viewBox="0 0 15 15">
  <path d="M5.34 5.65C6.1 5.52 6.66 4.84 6.75 4.01C6.84 3.17 7.03 -0.21 5.76 0.01C2.49 0.56 2.72 6.11 5.34 5.65L5.34 5.65ZM9.66 5.65C12.28 6.11 12.51 0.56 9.24 0.01C7.97 -0.21 8.17 3.17 8.26 4.01C8.34 4.84 8.9 5.53 9.66 5.65ZM4 8.27C4 7.83 3.85 7.44 3.59 7.14C3.17 6.6 1.85 5.5 1.54 5.78C0.86 6.37 0.88 7.82 1.29 8.87C1.5 9.46 2.01 9.87 2.59 9.87C3.37 9.87 4 9.15 4 8.27L4 8.27ZM13.47 5.78C13.14 5.5 11.83 6.6 11.42 7.14C11.16 7.44 11.01 7.83 11.01 8.27C11.01 9.15 11.63 9.87 12.41 9.87C13 9.87 13.51 9.46 13.71 8.87C14.12 7.82 14.15 6.37 13.47 5.78ZM10.82 10.76C9.62 10.16 9.66 9.01 9.39 7.97C9.18 7.13 8.41 6.51 7.5 6.51C6.61 6.51 5.86 7.1 5.62 7.91C5.33 8.91 5.5 10.09 4.2 10.76C3.15 11.1 2.72 11.61 2.72 12.81C2.72 13.77 3.55 14.82 4.63 14.94C5.82 15.12 6.75 14.88 7.51 14.46C8.26 14.88 9.19 15.12 10.39 14.94C11.45 14.81 12.28 13.77 12.28 12.81C12.28 11.59 11.88 11.13 10.82 10.76L10.82 10.76Z"/>
</svg>