<svg xmlns="http://www.w3.org/2000/svg" viewBox="0 0 15 15">
  <path d="M6 1.25C6 1.94 5.44 2.5 4.75 2.5C4.06 2.5 3.5 1.94 3.5 1.25C3.5 0.56 4.06 0 4.75 0C5.44 0 6 0.56 6 1.25ZM6.85 4.42L7 5L2.5 5L2.65 4.42C2.87 3.58 3.54 3 4.31 3L5.19 3C5.96 3 6.63 3.58 6.85 4.42ZM11.5 1.25C11.5 1.94 10.94 2.5 10.25 2.5C9.56 2.5 9 1.94 9 1.25C9 0.56 9.56 0 10.25 0C10.94 0 11.5 0.56 11.5 1.25ZM12.35 4.42L12.5 5L8 5L8.15 4.42C8.37 3.58 9.04 3 9.81 3L10.69 3C11.46 3 12.13 3.58 12.35 4.42ZM3.5 12.1C4.27 12.1 4.9 12.73 4.9 13.5C4.9 14.27 4.27 14.9 3.5 14.9C2.73 14.9 2.1 14.27 2.1 13.5C2.1 12.73 2.73 12.1 3.5 12.1ZM11.5 12.1C12.27 12.1 12.9 12.73 12.9 13.5C12.9 14.27 12.27 14.9 11.5 14.9C10.73 14.9 10.1 14.27 10.1 13.5C10.1 12.73 10.73 12.1 11.5 12.1ZM9.73 6C9.9 6 10.06 6.08 10.15 6.22L12 9L13.33 9.22C14.29 9.38 15 10.22 15 11.19L15 13C15 13.28 14.78 13.5 14.5 13.5L13.7 13.5C13.7 12.28 12.72 11.3 11.5 11.3C10.28 11.3 9.3 12.28 9.3 13.5L5.7 13.5C5.7 12.28 4.72 11.3 3.5 11.3C2.28 11.3 1.3 12.28 1.3 13.5L0 13.5L0 10.5C0 10.22 0.22 10 0.5 10L6 10L6 7C6 6.45 6.45 6 7 6L9.73 6ZM9.5 7L7 7L7 9L10.75 9L9.5 7Z"/>
</svg>