<svg xmlns="http://www.w3.org/2000/svg" viewBox="0 0 15 15">
  <path d="M12.48 9.81C11.72 9.81 11.09 9.18 11.09 8.42C11.09 7.66 11.72 7.04 12.48 7.04C13.26 7.04 13.88 7.66 13.88 8.42C13.88 9.18 13.26 9.81 12.48 9.81ZM12.3 14.61C12.51 14.99 12.98 15.11 13.36 14.89C13.73 14.68 13.86 14.2 13.65 13.82L10.42 8.28C10.29 8.07 10.12 7.89 9.92 7.78L5.76 5.28L2.94 0.48C2.67 0.02 2.07 -0.14 1.61 0.13C1.15 0.4 0.98 1 1.25 1.46L4.62 7.19C4.75 7.4 4.91 7.57 5.12 7.68L10.03 10.72L12.28 14.61L12.3 14.61Z"/>
</svg>