<svg xmlns="http://www.w3.org/2000/svg" viewBox="0 0 15 15">
  <path d="M11.62 4.9C12.37 5.02 13.11 4.52 13.24 3.77C13.36 3.03 12.87 2.29 12.12 2.16C11.25 2.03 10.5 2.53 10.38 3.28C10.25 4.03 10.75 4.77 11.62 4.9ZM7.64 8.13L10.88 7.13L13.11 10.13C13.24 10.24 13.36 10.37 13.61 10.37C13.98 10.37 14.36 10.24 14.36 9.87C14.36 9.63 14.36 9.5 14.24 9.37L11 5.02C10.88 4.9 10.75 4.77 10.5 4.65L7.77 3.03L7.77 0.29C7.64 0.16 7.51 0.05 7.27 0.05C6.9 -0.08 6.53 0.05 6.4 0.42C6.4 0.55 6.4 0.66 6.4 0.92L6.4 3.65C6.4 3.77 6.53 3.77 6.64 3.9L8.14 4.9L5.27 5.77C4.9 5.89 4.53 6.26 4.4 6.64L4.03 9.13L1.3 9.74C1.05 9.87 0.8 10.13 0.68 10.5C0.55 10.87 0.92 11.37 1.3 11.48C1.42 11.48 1.55 11.48 1.67 11.48L4.9 10.61C5.16 10.5 5.4 10.37 5.4 10.13L5.9 8.63L7.64 10.87L6.64 13.98C6.64 13.98 6.64 13.98 6.64 13.98C6.53 14.48 6.9 14.97 7.27 14.97C7.77 15.09 8.14 14.85 8.27 14.35L9.38 10.74C9.38 10.74 9.38 10.74 9.38 10.74C9.38 10.5 9.38 10.24 9.26 10L7.64 8.13Z"/>
</svg>