<svg xmlns="http://www.w3.org/2000/svg" viewBox="0 0 15 15">
  <path d="M0.88 1.05C1.25 1.05 1.56 1.27 1.7 1.57L3.33 5.66L5.27 5.88L8.46 2.84C8.61 2.68 8.83 2.53 9.13 2.53C9.65 2.53 10.02 2.98 10.02 3.42C10.02 3.72 9.95 3.95 9.73 4.1L6.97 6.85L7.79 7.51L9.73 6.47L14.11 7.88C14.55 7.96 14.92 8.25 15 8.7C15 9.22 14.55 9.67 14.11 9.59L13.81 9.5C13.77 9.49 13.73 9.47 13.66 9.44L10.02 8.33L8.31 9.51L12.63 12.41L12.69 12.41L12.79 12.48C12.96 12.63 13.07 12.83 13.07 13.09C13.07 13.6 12.63 13.97 12.18 13.97C11.95 13.97 11.81 13.9 11.58 13.75L1.93 7.29L0.07 2.16C0.07 2.08 0.07 2.08 0 1.94C0 1.42 0.44 1.05 0.88 1.05ZM4.6 1.85C5.41 1.85 6.09 2.51 6.09 3.33C6.09 4.14 5.41 4.81 4.6 4.81C3.78 4.81 3.12 4.14 3.12 3.33C3.12 2.51 3.78 1.85 4.6 1.85Z"/>
</svg>