<svg xmlns="http://www.w3.org/2000/svg" viewBox="0 0 15 15">
  <path d="M7.04 2.53C7.61 2.53 8.18 3.03 8.18 3.6L8.18 5.9L9.91 5.9C10.39 5.9 10.88 6.22 10.96 6.71L11.62 9.33C11.71 9.91 11.37 10.48 10.81 10.64L10.56 10.64L11.55 14.52L11.26 14.75C11.09 14.88 10.89 14.97 10.68 15L10.15 13.1L4.74 13.1L4.23 15C4.01 14.97 3.81 14.89 3.63 14.75L3.36 14.53L4.98 8.19L4.83 8.19C4.57 8.19 4.42 8.02 4.33 7.7L3.6 3.36C3.52 3.11 3.67 2.87 4.01 2.79C4.25 2.79 4.5 2.94 4.57 3.19L5.24 7.12L5.88 7.12L5.88 3.6C5.88 3.03 6.46 2.53 7.04 2.53ZM9.49 10.64L5.32 10.64L4.91 12.29L9.91 12.29L9.49 10.64ZM8.92 8.19L5.97 8.19L5.56 9.91L9.33 9.91L8.92 8.19ZM7.04 0C7.61 0 8.11 0.49 8.11 1.07C8.11 1.63 7.61 2.13 7.04 2.13C6.46 2.13 5.97 1.63 5.97 1.07C5.97 0.49 6.46 0 7.04 0Z"/>
</svg>