<svg xmlns="http://www.w3.org/2000/svg" viewBox="0 0 15 15">
  <path d="M6.29 3.69C6.18 3.91 5.96 4 5.71 4L5.33 4C5.55 4.3 5.9 4.55 6.31 4.55C6.97 4.55 7.5 4.04 7.5 3.38L7.5 3.4L6.51 3.4C6.48 3.4 6.46 3.38 6.45 3.4L6.29 3.69ZM6.01 3.54L6.17 3.26C6.23 3.13 6.36 3.1 6.5 3.1L7.75 3.1C7.59 2.5 7 1.95 6.31 1.95C5.5 1.95 4.83 2.55 4.83 3.37C4.83 3.5 4.85 3.7 4.88 3.7L5.71 3.7C5.84 3.7 5.96 3.66 6.01 3.54ZM14.61 9.2C14.25 8.09 12.84 8.01 11.54 8.57C11.32 8.66 11.02 8.73 10.68 8.8L10.41 7.77C10.63 7.66 10.76 7.44 10.75 7.18C10.74 6.84 10.45 6.57 10.1 6.58L9.91 5.83C10.1 5.69 10.2 5.44 10.15 5.19C10.07 4.86 9.74 4.64 9.4 4.72C9.4 4.72 6.65 4.74 5.79 4.98C4.93 5.21 4.64 6.65 4.64 6.65L4 9L0 9L0 10L10 10C11.11 10 13.82 9.96 14.61 9.2ZM9.47 5.95L9.64 6.61C9.07 6.63 8.04 6.69 7.13 6.74L7.34 6.04L9.47 5.95ZM9.96 7.85L10.23 8.87C8.91 9.06 7.21 9.09 6.41 9.09L6.74 7.99L9.96 7.85ZM14.7 9.76C14.7 9.68 14.7 9.63 14.69 9.55C13.47 10.43 10.41 10.25 10 10.25L0 10.25L0 11.97C0.23 11.97 12.12 12 12.5 12C13.97 11.77 14.7 11.03 14.7 9.76Z"/>
</svg>