<svg xmlns="http://www.w3.org/2000/svg" viewBox="0 0 15 15">
  <path d="M5.46 2.86C5.7 2.1 5.31 1.33 4.54 1.09C3.84 0.86 2.99 1.25 2.76 2.02C2.53 2.79 2.91 3.55 3.69 3.79C4.46 4.02 5.23 3.55 5.46 2.86ZM8.08 7.11L7.54 3.87L10.79 2.02C10.93 1.94 11.09 1.78 11.09 1.63C11.17 1.25 11.01 0.93 10.63 0.78C10.48 0.7 10.24 0.78 10.09 0.86L5.46 3.55C5.31 3.63 5.15 3.71 5.07 3.87L3.15 6.49L0.45 6.18C0.3 6.18 0.14 6.34 0.06 6.49C-0.1 6.87 0.06 7.27 0.45 7.41C0.6 7.49 0.75 7.49 0.91 7.41L3.61 7.72C3.69 7.72 3.76 7.65 3.84 7.57L4.93 6.18L5.46 9.19C5.54 9.57 5.84 9.96 6.24 10.2L8.63 10.89L9.01 13.59C9.09 13.9 9.24 14.2 9.55 14.28C10.02 14.44 10.48 14.2 10.63 13.74C10.71 13.59 10.71 13.43 10.63 13.35L10.24 9.96C10.16 9.73 10.02 9.49 9.78 9.35L8.32 8.88L10.79 7.41L13.8 8.73C13.8 8.73 13.8 8.73 13.88 8.73C14.33 8.88 14.79 8.65 14.95 8.18C15.11 7.72 14.87 7.33 14.49 7.11L11.09 5.57C11.09 5.57 11.09 5.57 11.01 5.57C10.79 5.49 10.48 5.49 10.32 5.64L8.08 7.11Z"/>
</svg>