<svg xmlns="http://www.w3.org/2000/svg" viewBox="0 0 15 15">
  <path d="M3.88 2.25L5.2 4.43C5.28 4.57 5.29 4.74 5.23 4.89L4.25 7.16L7.84 10.75L10.11 9.77C10.26 9.71 10.43 9.72 10.57 9.8L12.75 11.12C12.92 11.22 13.02 11.41 13 11.61L12.93 12.19C12.88 12.65 12.68 13.07 12.35 13.4L10.9 14.85C10.8 14.95 10.66 15.01 10.51 15L10.43 14.99C8.14 14.47 5.96 13.17 3.9 11.1C1.94 9.15 0.67 7.09 0.1 4.93L0.01 4.57C-0.03 4.4 0.03 4.22 0.15 4.1L1.6 2.65C1.93 2.32 2.35 2.12 2.81 2.07L3.39 2C3.59 1.98 3.78 2.08 3.88 2.25ZM11.8 1C11.91 1 12 1.09 12 1.2L12 3L13.8 3C13.91 3 14 3.09 14 3.2L14 4.8C14 4.91 13.91 5 13.8 5L12 5L12 6.8C12 6.91 11.91 7 11.8 7L10.2 7C10.09 7 10 6.91 10 6.8L10 5L8.2 5C8.09 5 8 4.91 8 4.8L8 3.2C8 3.09 8.09 3 8.2 3L10 3L10 1.2C10 1.09 10.09 1 10.2 1L11.8 1Z"/>
</svg>