<svg xmlns="http://www.w3.org/2000/svg" viewBox="0 0 15 15">
  <path d="M3.5 12.1C4.27 12.1 4.9 12.73 4.9 13.5C4.9 14.27 4.27 14.9 3.5 14.9C2.73 14.9 2.1 14.27 2.1 13.5C2.1 12.73 2.73 12.1 3.5 12.1ZM11.5 12.1C12.27 12.1 12.9 12.73 12.9 13.5C12.9 14.27 12.27 14.9 11.5 14.9C10.73 14.9 10.1 14.27 10.1 13.5C10.1 12.73 10.73 12.1 11.5 12.1ZM7 6L9.73 6C9.9 6 10.06 6.08 10.15 6.22L12 9L13.33 9.22C14.29 9.38 15 10.22 15 11.19L15 13C15 13.28 14.78 13.5 14.5 13.5L13.7 13.5C13.7 12.28 12.72 11.3 11.5 11.3C10.28 11.3 9.3 12.28 9.3 13.5L5.7 13.5C5.7 12.28 4.72 11.3 3.5 11.3C2.28 11.3 1.3 12.28 1.3 13.5L0 13.5L0 10.5C0 10.22 0.22 10 0.5 10L6 10L6 7C6 6.45 6.45 6 7 6ZM9.5 7L7 7L7 9L10.75 9L9.5 7ZM12 0C13.1 0 14 0.9 14 2L14 2.5L14.5 2.5C14.78 2.5 15 2.72 15 3L15 6C15 6.28 14.78 6.5 14.5 6.5L10.94 6.5L10.57 5.94C10.41 5.7 10.15 5.54 9.86 5.51L9.73 5.5L9 5.5L9 3C9 2.72 9.22 2.5 9.5 2.5L10 2.5L10 2C10 0.9 10.9 0 12 0ZM12 3.25C11.59 3.25 11.25 3.59 11.25 4C11.25 4.27 11.4 4.52 11.62 4.65L11.25 5.75L12.75 5.75L12.38 4.65C12.6 4.51 12.75 4.27 12.75 4C12.75 3.59 12.41 3.25 12 3.25ZM12 1C11.45 1 11 1.45 11 2L11 2.5L13 2.5L13 2C13 1.49 12.61 1.06 12.12 1.01L12 1Z"/>
</svg>