<svg xmlns="http://www.w3.org/2000/svg" viewBox="0 0 15 15">
  <path d="M3 2L9.21 2C9.6 1.12 10.48 0.5 11.5 0.5C12.52 0.5 13.4 1.12 13.79 2L11.5 2L11 3L11.5 4L13.79 4C13.4 4.88 12.52 5.5 11.5 5.5C10.48 5.5 9.6 4.88 9.21 4L3 4C2.45 4 2 3.55 2 3C2 2.45 2.45 2 3 2ZM3.5 12.1C4.27 12.1 4.9 12.73 4.9 13.5C4.9 14.27 4.27 14.9 3.5 14.9C2.73 14.9 2.1 14.27 2.1 13.5C2.1 12.73 2.73 12.1 3.5 12.1ZM11.5 12.1C12.27 12.1 12.9 12.73 12.9 13.5C12.9 14.27 12.27 14.9 11.5 14.9C10.73 14.9 10.1 14.27 10.1 13.5C10.1 12.73 10.73 12.1 11.5 12.1ZM9.73 6C9.9 6 10.06 6.08 10.15 6.22L11.49 8.24L13.41 6.32C13.77 5.96 14.34 5.93 14.73 6.24L14.82 6.32L15 6.5L12.43 9.07L13.33 9.22C14.29 9.38 15 10.22 15 11.19L15 13C15 13.28 14.78 13.5 14.5 13.5L13.7 13.5C13.7 12.28 12.72 11.3 11.5 11.3C10.28 11.3 9.3 12.28 9.3 13.5L5.7 13.5C5.7 12.28 4.72 11.3 3.5 11.3C2.28 11.3 1.3 12.28 1.3 13.5L0 13.5L0 10.5C0 10.22 0.22 10 0.5 10L6 10L6 7C6 6.45 6.45 6 7 6L9.73 6ZM9.5 7L7 7L7 9L10.75 9L9.5 7Z"/>
</svg>