<svg xmlns="http://www.w3.org/2000/svg" viewBox="0 0 15 15">
  <path d="M10.5 4L13 6L13 14.5C13 14.78 12.78 15 12.5 15L2.5 15C2.22 15 2 14.78 2 14.5L2 6L4.5 4L10.5 4ZM8.3 6.5L6.7 6.5C6.59 6.5 6.5 6.59 6.5 6.7L6.5 8.5L4.7 8.5C4.59 8.5 4.5 8.59 4.5 8.7L4.5 10.3C4.5 10.41 4.59 10.5 4.7 10.5L6.5 10.5L6.5 12.3C6.5 12.41 6.59 12.5 6.7 12.5L8.3 12.5C8.41 12.5 8.5 12.41 8.5 12.3L8.5 10.5L10.3 10.5C10.41 10.5 10.5 10.41 10.5 10.3L10.5 8.7C10.5 8.59 10.41 8.5 10.3 8.5L8.5 8.5L8.5 6.7C8.5 6.59 8.41 6.5 8.3 6.5ZM4 0.5L4 2.5C4 2.78 4.22 3 4.5 3L10.5 3C10.78 3 11 2.78 11 2.5L11 0.5C11 0.22 10.78 0 10.5 0L4.5 0C4.22 0 4 0.22 4 0.5Z"/>
</svg>