<svg xmlns="http://www.w3.org/2000/svg" viewBox="0 0 15 15">
  <path d="M10.45 2.75L10.45 0L4.55 0L4.55 2.75C3.1 3 2 4.25 2 5.75L2 10.55C2 12.05 3.1 13.3 4.55 13.55L4.55 15L10.4 15L10.4 13.55C11.85 13.3 12.95 12.05 12.95 10.55L12.95 5.75C12.95 4.25 11.85 3 10.45 2.75ZM8 1L9.5 1L9.5 2.5L8 2.5L8 1ZM5.5 1L7 1L7 2.5L5.5 2.5L5.5 1ZM10.25 10.05C10.25 11.43 9.15 12.25 7.78 12.25C9.98 10.05 7.78 10.33 7.23 8.95C6.95 10.05 5.85 11.15 7.23 12.25C6.13 12.25 4.75 11.7 4.75 10.05C4.75 8.95 5.85 7.85 5.85 5.65C6.13 6.48 6.68 7.03 6.68 7.03C6.68 5.1 8.6 4 8.6 4C8.32 6.2 9.7 6.48 9.43 7.58C9.15 8.95 10.25 9.23 10.25 10.05Z"/>
</svg>