<svg xmlns="http://www.w3.org/2000/svg" viewBox="0 0 15 15">
<path d="M7 0.22A1.67 1.67 0 0 0 5.33 1.89 1.67 1.67 0 0 0 5.76 3H2V6.21A1.67 1.67 0 0 1 3.11 5.79 1.67 1.67 0 0 1 4.78 7.46 1.67 1.67 0 0 1 3.11 9.12 1.67 1.67 0 0 1 2 8.7V12.99H5.76A1.67 1.67 0 0 1 5.33 11.88 1.67 1.67 0 0 1 7 10.22 1.67 1.67 0 0 1 8.66 11.88 1.67 1.67 0 0 1 8.24 12.99H11.99V9.24A1.67 1.67 0 0 0 13.1 9.66 1.67 1.67 0 0 0 14.77 8 1.67 1.67 0 0 0 13.1 6.33 1.67 1.67 0 0 0 11.99 6.76V3H8.24A1.67 1.67 0 0 0 8.66 1.89 1.67 1.67 0 0 0 7 0.22Z"/>
</svg>