<svg xmlns="http://www.w3.org/2000/svg" viewBox="0 0 15 15">
  <path d="M5.72 8.18C5.8 8.18 5.8 8.18 5.72 8.18C6.04 8.1 6.28 7.94 6.44 7.71C6.52 7.56 6.6 7.33 6.6 7.17C6.76 6.62 6.76 6 6.92 5.46C7 5.14 7.08 4.91 7.16 4.6C7.24 4.44 7.64 3.82 7.88 4.05C7.96 4.12 7.96 4.36 7.88 4.52C7.8 4.91 7.88 5.3 7.88 5.69C7.88 6.07 7.96 6.47 8.04 6.93C8.12 7.4 8.36 7.94 8.84 8.26C9.48 8.65 10.2 8.73 10.92 8.65C11.32 8.65 11.72 8.57 12.12 8.49C12.28 8.49 13 8.18 13 8.49C13 8.57 12.92 8.65 12.84 8.73C12.68 8.88 12.6 8.96 12.36 9.04C11.48 9.51 10.2 9.28 9.56 10.13C8.6 11.38 9.8 12.7 10.52 13.79C10.6 13.87 10.68 14.03 10.76 14.11C10.84 14.26 11.07 14.49 11.07 14.65C11.07 14.8 11.07 14.88 10.92 14.96C10.6 15.12 10.36 14.73 10.2 14.57C9.96 14.34 9.8 14.11 9.56 13.87C9.08 13.33 8.6 12.86 7.96 12.47C7.64 12.24 7 12.31 6.68 12.39C6.28 12.55 5.96 12.78 5.64 13.1C5.24 13.48 4.84 13.95 4.44 14.26C4.36 14.34 3.88 14.8 3.8 14.57C3.72 14.34 3.96 13.95 4.05 13.71C4.28 13.17 4.68 12.7 5 12.16C5.17 11.92 5.24 11.61 5.32 11.38C5.4 11.15 5.4 10.75 5.32 10.52C4.84 9.28 3.64 8.96 2.61 8.34C2.52 8.26 2.37 8.18 2.28 8.1C2.2 8.02 1.88 7.87 2.05 7.71C2.12 7.64 2.28 7.71 2.44 7.71C2.68 7.87 3 7.94 3.24 8.02C3.4 8.1 3.64 8.1 3.8 8.1C4.44 8.18 5.08 8.34 5.72 8.18ZM12 0C12.67 1.33 13.42 2 14.25 2C14.51 2 14.76 1.94 15 1.81L15 3.36C14.76 3.45 14.51 3.5 14.25 3.5C13.42 3.5 12.67 3 12 2C11.33 3 10.58 3.5 9.75 3.5C8.92 3.5 8.17 3 7.5 2C6.83 3 6.08 3.5 5.25 3.5C4.42 3.5 3.67 3 3 2C2.33 3 1.58 3.5 0.75 3.5C0.49 3.5 0.24 3.45 0 3.36L0 1.81C0.24 1.94 0.49 2 0.75 2C1.58 2 2.33 1.33 3 0C3.67 1.33 4.42 2 5.25 2C6.08 2 6.83 1.33 7.5 0C8.17 1.33 8.92 2 9.75 2C10.58 2 11.33 1.33 12 0Z"/>
</svg>