<svg xmlns="http://www.w3.org/2000/svg" viewBox="0 0 15 15">
  <path d="M5.08 5.71C5.18 5.71 5.18 5.71 5.08 5.71C5.51 5.6 5.84 5.38 6.06 5.06C6.17 4.85 6.27 4.54 6.27 4.32C6.49 3.57 6.49 2.73 6.71 1.99C6.82 1.56 6.93 1.24 7.03 0.81C7.14 0.6 7.69 -0.25 8.02 0.07C8.13 0.17 8.13 0.5 8.02 0.71C7.91 1.24 8.02 1.77 8.02 2.3C8.02 2.83 8.13 3.36 8.23 4C8.35 4.63 8.67 5.38 9.32 5.8C10.2 6.34 11.18 6.45 12.16 6.34C12.71 6.34 13.25 6.23 13.8 6.12C14.01 6.12 15 5.71 15 6.12C15 6.23 14.89 6.34 14.78 6.45C14.56 6.66 14.45 6.77 14.12 6.87C12.92 7.51 11.18 7.19 10.31 8.35C9 10.06 10.63 11.87 11.61 13.35C11.72 13.46 11.84 13.67 11.95 13.78C12.05 13.99 12.37 14.31 12.37 14.53C12.37 14.73 12.37 14.84 12.16 14.95C11.72 15.16 11.4 14.63 11.18 14.42C10.85 14.1 10.63 13.78 10.31 13.46C9.66 12.72 9 12.08 8.13 11.55C7.69 11.23 6.82 11.33 6.38 11.44C5.84 11.66 5.4 11.98 4.97 12.4C4.42 12.93 3.88 13.56 3.33 13.99C3.22 14.1 2.57 14.73 2.45 14.42C2.35 14.1 2.68 13.56 2.79 13.25C3.12 12.5 3.65 11.87 4.09 11.12C4.32 10.81 4.42 10.38 4.53 10.06C4.64 9.74 4.64 9.21 4.53 8.89C3.88 7.19 2.24 6.77 0.83 5.91C0.71 5.8 0.5 5.71 0.39 5.6C0.28 5.49 -0.16 5.28 0.06 5.06C0.16 4.96 0.39 5.06 0.6 5.06C0.93 5.28 1.37 5.38 1.69 5.49C1.91 5.6 2.24 5.6 2.45 5.6C3.33 5.71 4.2 5.91 5.08 5.71Z"/>
</svg>