<svg xmlns="http://www.w3.org/2000/svg" viewBox="0 0 15 15">
<path d="M7.35 0 10.94 3.59C11.02 3.67 11.02 3.79 10.94 3.87L10.87 3.94C10.79 4.02 10.67 4.02 10.59 3.94L6.65 0ZM4.35 0 7.94 3.59C8.02 3.67 8.02 3.79 7.94 3.87L7.87 3.94C7.79 4.02 7.67 4.02 7.59 3.94L3.65 0ZM1.35 0 9.94 8.59C10.02 8.67 10.02 8.79 9.94 8.87L9.87 8.94C9.79 9.02 9.67 9.02 9.59 8.94L0.65 0ZM0 1.65 1.94 3.59C2.02 3.67 2.02 3.79 1.94 3.87L1.87 3.94C1.79 4.02 1.67 4.02 1.59 3.94L0 2.35ZM12.5 4 12.93 5.07H14L13.14 5.82 13.57 7.11 12.5 6.36 11.43 7.11 11.86 5.82 11 5.07H12.07ZM0 4.65 3.94 8.59C4.02 8.67 4.02 8.79 3.94 8.87L3.87 8.94C3.79 9.02 3.67 9.02 3.59 8.94L0 5.35ZM11.62 8 12.59 10.41H15L13.07 12.1 14.04 15 11.62 13.31 9.21 15 10.17 12.1 8.24 10.41H10.65ZM5.07 10 5.62 11.38H7L5.9 12.35 6.45 14 5.07 13.04 3.69 14 4.24 12.35 3.14 11.38H4.52Z"/>
</svg>