<svg xmlns="http://www.w3.org/2000/svg" viewBox="0 0 15 15">
  <path d="M6.38 0C6.01 0.01 5.65 0.07 5.3 0.18C4.59 0.38 4.05 0.95 3.89 1.67L3.5 4L0.67 4C0.39 4 0.17 4.22 0.17 4.5C0.17 4.55 0.18 4.6 0.19 4.65L2.07 12.95C2.27 13.57 2.85 14 3.5 14L11.5 14C12.15 14 12.72 13.57 12.92 12.95L14.8 4.65C14.88 4.39 14.74 4.11 14.47 4.02C14.42 4.01 14.38 4 14.33 4L11.5 4L11.11 1.67C10.95 0.95 10.41 0.38 9.7 0.18C9.35 0.07 8.99 0.01 8.62 0L6.38 0ZM6.38 1L8.62 1C8.88 1.01 9.14 1.05 9.39 1.13C9.76 1.19 10.05 1.47 10.13 1.83L10.48 4L4.52 4L4.88 1.83C4.96 1.47 5.25 1.19 5.62 1.13C5.87 1.05 6.12 1.01 6.38 1ZM7.92 5C8.57 5.01 9.22 5.19 9.8 5.55L9.68 5.78C9.63 5.86 9.83 6.25 9.83 6.25C8.86 5.65 7.37 5.51 6.38 6.09C4.96 6.94 4.56 9.08 4.56 9.69C4.56 9.77 4.55 9.82 4.54 9.84L4.54 9.84L4.54 9.84L4.54 9.84L4.53 9.84L4.52 9.84L4.52 9.84C4.42 9.78 4.19 8.91 4.19 8.91L4 8.89C4.07 7.47 4.82 6.19 6.01 5.5C6.6 5.15 7.26 4.99 7.92 5ZM7.63 6.53C8.78 6.53 9.69 7.98 9.69 9.77C9.69 11.55 8.78 13 7.63 13C6.5 13 5.58 11.55 5.58 9.77C5.58 9.11 5.71 8.47 5.94 7.93C5.81 8.37 5.91 8.77 6.17 8.92C6.52 9.13 7.04 8.87 7.34 8.33C7.64 7.8 7.6 7.2 7.26 6.99C6.92 6.8 6.55 7.06 6.36 7.22C6.72 6.78 7.18 6.53 7.63 6.53ZM6.38 9.71C6.38 9.71 6.01 11.05 6.31 11.54C6.62 12.02 7.08 12.38 7.62 12.39C8.16 12.39 8.63 12.05 8.94 11.57C9.25 11.09 8.89 9.74 8.89 9.74C8.89 10.34 8.71 10.8 8.39 11.21C8.21 11.46 7.93 11.74 7.63 11.73C7.32 11.73 7.06 11.44 6.87 11.19C6.57 10.77 6.38 10.3 6.38 9.71Z"/>
</svg>