<svg xmlns="http://www.w3.org/2000/svg" viewBox="0 0 15 15">
  <path d="M1 3L2.5 3C2.78 3 3 3.22 3 3.5C3 3.78 2.78 4 2.5 4L1 4L1 3ZM1 2L1 6L4 6L4 2L1 2ZM1 1L4 1C4.55 1 5 1.45 5 2L5 6C5 6.55 4.55 7 4 7L1 7C0.45 7 0 6.55 0 6L0 2C0 1.45 0.45 1 1 1ZM2 7.5L3 7.5L3 14L2 14L2 7.5ZM11.11 3C11.34 3 11.54 3.16 11.59 3.38L12 5L12.64 5C12.85 5 13.04 5.14 13.11 5.34L14 8C14.55 8 15 8.45 15 9L15 12L14 12L14 13C14 13.55 13.55 14 13 14C12.45 14 12 13.55 12 13L12 12L9 12L9 13C9 13.55 8.55 14 8 14C7.45 14 7 13.55 7 13L7 12L6 12L6 9C6 8.45 6.45 8 7 8L7.89 5.34C7.96 5.14 8.15 5 8.36 5L9 5L9.41 3.38C9.46 3.16 9.66 3 9.89 3L11.11 3ZM8 9C7.45 9 7 9.45 7 10C7 10.55 7.45 11 8 11C8.55 11 9 10.55 9 10C9 9.45 8.55 9 8 9ZM13 9C12.45 9 12 9.45 12 10C12 10.55 12.45 11 13 11C13.55 11 14 10.55 14 10C14 9.45 13.55 9 13 9ZM12.38 6L8.62 6L8 8L13 8L12.38 6Z"/>
</svg>