<svg xmlns="http://www.w3.org/2000/svg" viewBox="0 0 15 15">
  <path d="M5 0C5.55 0 6 0.45 6 1L6 7L13.5 7C13.78 7 14 7.22 14 7.5L14 8.5C14 9.38 13.4 10.15 12.54 10.36L10.73 10.82C10.67 10.83 10.61 10.86 10.55 10.9C10.33 11.07 10.29 11.38 10.45 11.6L13 15L3 15L3.72 12.22C3.95 11.32 3.53 10.38 2.7 9.95L1.54 9.35C1.21 9.18 1 8.83 1 8.46L1 1C1 0.45 1.45 0 2 0L5 0ZM10 0C10.22 0.68 10.45 1.21 10.68 1.58C10.79 1.75 10.97 1.99 11.22 2.31L11.56 2.76C11.85 3.11 12 3.55 12 4C12 5.1 11.1 6 10 6L9.83 5.99C9.44 5.96 9.06 5.81 8.75 5.56C7.89 4.88 7.75 3.63 8.43 2.76L8.82 2.27C8.97 2.07 9.09 1.9 9.19 1.77L9.31 1.58C9.55 1.19 9.78 0.67 10 0Z"/>
</svg>