<svg xmlns="http://www.w3.org/2000/svg" viewBox="0 0 15 15">
  <path d="M5 0C5.55 0 6 0.45 6 1L6 7L13.5 7C13.78 7 14 7.22 14 7.5L14 8.5C14 9.38 13.4 10.15 12.54 10.36L10.73 10.82C10.67 10.83 10.61 10.86 10.55 10.9C10.33 11.07 10.29 11.38 10.45 11.6L13 15L3 15L3.72 12.22C3.95 11.32 3.53 10.38 2.7 9.95L1.54 9.35C1.21 9.18 1 8.83 1 8.46L1 1C1 0.45 1.45 0 2 0L5 0ZM3.5 1.5C3.34 2 3.17 2.39 2.99 2.69L2.89 2.83C2.82 2.93 2.73 3.05 2.61 3.2L2.32 3.57C1.81 4.22 1.92 5.16 2.57 5.68C2.8 5.86 3.08 5.97 3.37 6L3.5 6C4.33 6 5 5.33 5 4.5C5 4.16 4.89 3.83 4.67 3.57L4.41 3.23C4.23 2.99 4.09 2.81 4.01 2.69C3.84 2.41 3.67 2.01 3.5 1.5Z"/>
</svg>