<svg xmlns="http://www.w3.org/2000/svg" viewBox="0 0 15 15">
  <path d="M4.65 2.88C4.65 1.89 3.86 1.1 2.88 1.1C1.89 1.1 1.1 1.89 1.1 2.88C1.1 3.86 1.89 4.65 2.88 4.65C3.86 4.65 4.65 3.86 4.65 2.88ZM4.65 7.5C4.65 6.52 3.86 5.72 2.88 5.72C1.89 5.72 1.1 6.52 1.1 7.5C1.1 8.48 1.89 9.28 2.88 9.28C3.86 9.28 4.65 8.48 4.65 7.5ZM4.65 12.13C4.65 11.14 3.86 10.35 2.88 10.35C1.89 10.35 1.1 11.14 1.1 12.13C1.1 13.11 1.89 13.9 2.88 13.9C3.86 13.9 4.65 13.11 4.65 12.13ZM13.9 2.88C13.9 1.89 13.11 1.1 12.13 1.1C11.14 1.1 10.35 1.89 10.35 2.88C10.35 3.86 11.14 4.65 12.13 4.65C13.11 4.65 13.9 3.86 13.9 2.88ZM13.9 7.5C13.9 6.52 13.11 5.72 12.13 5.72C11.14 5.72 10.35 6.52 10.35 7.5C10.35 8.48 11.14 9.28 12.13 9.28C13.11 9.28 13.9 8.48 13.9 7.5ZM13.9 12.13C13.9 11.14 13.11 10.35 12.13 10.35C11.14 10.35 10.35 11.14 10.35 12.13C10.35 13.11 11.14 13.9 12.13 13.9C13.11 13.9 13.9 13.11 13.9 12.13Z"/>
</svg>