<svg xmlns="http://www.w3.org/2000/svg" viewBox="0 0 15 15">
  <path d="M1 12L4 12L4 10L1 10L1 12ZM1 13L1 15L0 15L0 6.62C-0.31 6.34 -0.5 5.94 -0.5 5.5C-0.5 5.06 -0.31 4.66 0 4.38L0 2.5C0 2.22 0.22 2 0.5 2C0.78 2 1 2.22 1 2.5L1 4L4 4L4 2.5C4 2.22 4.22 2 4.5 2C4.78 2 5 2.22 5 2.5L5 4.05C5.59 4.17 6.13 4.51 6.5 5L11.75 12L13.5 12C14.33 12 15 12.67 15 13.5C15 14.33 14.33 15 13.5 15L11.5 15C10.71 15 9.97 14.63 9.5 14L5 8L5 15L4 15L4 13L1 13L1 13ZM1 9L4 9L4 7L1 7L1 9L1 9ZM12.5 0C12.77 0.84 13.06 1.51 13.35 1.98L13.47 2.15C13.58 2.31 13.73 2.51 13.91 2.74L14.45 3.44C14.81 3.89 15 4.43 15 5C15 6.38 13.87 7.5 12.5 7.5L12.29 7.49C11.8 7.45 11.33 7.27 10.94 6.96C9.86 6.1 9.69 4.53 10.54 3.46L11.23 2.56C11.33 2.43 11.41 2.31 11.49 2.21L11.64 1.98C11.94 1.49 12.23 0.83 12.5 0Z"/>
</svg>