<svg xmlns="http://www.w3.org/2000/svg" viewBox="0 0 15 15">
  <path d="M11.5 3L11.5 4.5L14.5 4.5L14.5 5.5L11.5 5.5L11.5 7L9.5 5L11.5 3ZM13 0L15 2L13 4L13 2.5L10 2.5L10 1.5L13 1.5L13 0ZM3.5 12.1C4.27 12.1 4.9 12.73 4.9 13.5C4.9 14.27 4.27 14.9 3.5 14.9C2.73 14.9 2.1 14.27 2.1 13.5C2.1 12.73 2.73 12.1 3.5 12.1ZM11.5 12.1C12.27 12.1 12.9 12.73 12.9 13.5C12.9 14.27 12.27 14.9 11.5 14.9C10.73 14.9 10.1 14.27 10.1 13.5C10.1 12.73 10.73 12.1 11.5 12.1ZM9.73 7C9.9 7 10.06 7.09 10.15 7.23L11.63 9.5L13.93 10.18C14.56 10.37 15 10.96 15 11.62L15 13C15 13.28 14.78 13.5 14.5 13.5L13.7 13.5C13.7 12.28 12.71 11.3 11.5 11.3C10.28 11.3 9.3 12.28 9.3 13.5L9.3 13.5L5.7 13.5C5.7 12.34 4.8 11.39 3.66 11.31L3.5 11.3C2.28 11.3 1.3 12.28 1.3 13.5L1.3 13.5L0.75 13.5C0.34 13.5 0 13.16 0 12.75L0 12.28C0 12.11 0.1 11.95 0.25 11.88C0.39 11.8 0.47 11.64 0.42 11.48L0.12 10.41C0.04 10.15 0.08 9.87 0.21 9.63L1.46 7.5C1.64 7.19 1.97 7 2.32 7L9.73 7ZM4 8L2.56 8C2.37 8 2.2 8.11 2.11 8.28L1.25 10L4 10L4 8ZM7 8L5 8L5 10L7 10L7 8ZM9.25 8L8 8L8 10L10.5 10L9.25 8Z"/>
</svg>