<svg xmlns="http://www.w3.org/2000/svg" viewBox="0 0 15 15">
  <path d="M3.5 0C3.22 0 3 0.22 3 0.5L3 3.5C3 3.78 3.22 4 3.5 4L5 4C5.74 4 6.38 3.6 6.72 3L7.5 3L8.5 2L9.5 3L10.5 2L11.5 3L12.5 2L11.5 1L6.72 1C6.38 0.4 5.74 0 5 0L3.5 0ZM4.5 1C4.78 1 5 1.22 5 1.5L5 2.5C5 2.78 4.78 3 4.5 3C4.22 3 4 2.78 4 2.5L4 1.5C4 1.22 4.22 1 4.5 1ZM8.11 4.5C8.34 4.5 8.54 4.66 8.59 4.88L9 6.5L9.64 6.5C9.85 6.5 10.04 6.64 10.11 6.84L11 9.5C11.55 9.5 12 9.95 12 10.5L12 13.5L11 13.5L11 14C11 14.55 10.55 15 10 15C9.45 15 9 14.55 9 14L9 13.5L6 13.5L6 14C6 14.55 5.55 15 5 15C4.45 15 4 14.55 4 14L4 13.5L3 13.5L3 10.5C3 9.95 3.45 9.5 4 9.5L4.89 6.84C4.96 6.64 5.15 6.5 5.36 6.5L6 6.5L6.41 4.88C6.46 4.66 6.66 4.5 6.89 4.5L8.11 4.5ZM5 10.5C4.45 10.5 4 10.95 4 11.5C4 12.05 4.45 12.5 5 12.5C5.55 12.5 6 12.05 6 11.5C6 10.95 5.55 10.5 5 10.5ZM5 9.5L10 9.5L9.38 7.5L5.62 7.5L5 9.5ZM10 12.5C10.55 12.5 11 12.05 11 11.5C11 10.95 10.55 10.5 10 10.5C9.45 10.5 9 10.95 9 11.5C9 12.05 9.45 12.5 10 12.5Z"/>
</svg>