<svg xmlns="http://www.w3.org/2000/svg" viewBox="0 0 15 15">
  <path d="M14.5 10C14.78 10 15 10.22 15 10.5L15 12L0 12L0 10.5C0 10.22 0.22 10 0.5 10L14.5 10ZM5.5 3C5.22 3 5 2.78 5 2.5C5 2.22 5.22 2 5.5 2L7.5 2C7.78 2 8 2.22 8 2.5C8 2.78 7.78 3 7.5 3L7 3L7 3.89L7.46 3.81C8.09 3.69 8.73 3.56 9.05 3.49C9.74 3.34 10.43 3.18 11.13 3.04C11.27 3.02 11.41 3.01 11.56 3.01L14.5 3C14.75 3 14.95 3.18 14.99 3.41L15 3.5C15 3.78 14.78 4.01 14.5 4.02L12.95 4.11C11.37 4.21 10.35 4.31 9.91 4.41L9.83 4.42C9.27 4.57 8.69 4.69 8.12 4.82C7.91 4.86 7.7 4.87 7.48 4.9L7.73 5.21C7.77 5.27 7.81 5.32 7.85 5.37C8.27 5.95 8.68 7.09 9.12 7.66C9.7 8.4 10.39 9 11.25 9.38L11.52 9.49C11.53 9.5 11.55 9.51 11.6 9.53L7.5 9.5L7.5 9C7.5 8.45 7.05 8 6.5 8L5.5 8L5.5 6.5C5.5 5.67 4.83 5 4 5C3.17 5 2.5 5.67 2.5 6.5L2.5 8L1 8L1 5L0.5 5C0.22 5 0 4.78 0 4.5C0 4.22 0.22 4 0.5 4L1 4L1 3L0.5 3C0.22 3 0 2.78 0 2.5C0 2.22 0.22 2 0.5 2L2.5 2C2.78 2 3 2.22 3 2.5C3 2.78 2.78 3 2.5 3L2 3L2 4L6 4L6 3L5.5 3ZM6.5 8.5C6.78 8.5 7 8.72 7 9L7 9.5L0.5 9.5L0.5 9C0.5 8.72 0.72 8.5 1 8.5L6.5 8.5ZM4 5.5C4.55 5.5 5 5.95 5 6.5C5 7.05 4.55 7.5 4 7.5C3.45 7.5 3 7.05 3 6.5C3 5.95 3.45 5.5 4 5.5Z"/>
</svg>