<svg xmlns="http://www.w3.org/2000/svg" viewBox="0 0 15 15" aria-describedby="three_books_stacked">
  <title id="three_books_stacked">Three Books Stacked</title>
<path d="M2 1C0.49 1 0 2 0 3C0.02 4 0.54 5 2 5L13 5L12 4L2 4C1 4 1 3 1 3C1 3 1 2 2 2L12 2L13 1L2 1ZM2 2.75L2 3.25L12 3.25L12 2.75L2 2.75ZM4 6C2.49 6 2 7 2 8C2.02 9 2.54 10 4 10L15 10L14 9L4 9C3 9 3 8 3 8C3 8 3 7 4 7L14 7L15 6L4 6ZM4 7.75L4 8.25L14 8.25L14 7.75L4 7.75ZM2 11C0.49 11 0 12 0 13C0.02 14 0.54 15 2 15L13 15L12 14L2 14C1 14 1 13 1 13C1 13 1 12 2 12L12 12L13 11L2 11ZM2 12.75L2 13.25L12 13.25L12 12.75L2 12.75Z"/>
</svg>