<svg xmlns="http://www.w3.org/2000/svg" viewBox="0 0 15 15">
  <path d="M0 7.51L0 11.5C3.17 11.5 6.33 11.5 9.5 11.5C11.07 11.5 12.56 10.76 13.5 9.5L15 7.5L15 7.5L0 7.5L0 7.51ZM8.34 4.1L10.46 4.1C10.48 4.1 11.03 4.02 11.21 4.42L12 6.2L9.3 6.2L8.34 4.1L8.34 4.1ZM2.7 6.01C2.7 6.16 2.59 6.2 2.45 6.2L1.29 6.2C1.15 6.2 0.91 6.16 0.91 6.01L0.91 4.3C0.91 4.16 1.15 4.1 1.29 4.1L2.45 4.1C2.59 4.1 2.71 4.16 2.71 4.3L2.71 6.01L2.7 6.01ZM7.5 6.01C7.5 6.16 7.38 6.2 7.24 6.2L6.08 6.2C5.93 6.2 5.7 6.16 5.7 6.01L5.7 4.3C5.7 4.16 5.93 4.1 6.08 4.1L7.24 4.1C7.38 4.1 7.51 4.16 7.51 4.3L7.51 6.01L7.5 6.01ZM5.1 6.01C5.1 6.16 4.98 6.2 4.84 6.2L3.68 6.2C3.54 6.2 3.31 6.16 3.31 6.01L3.31 4.3C3.31 4.16 3.54 4.1 3.68 4.1L4.84 4.1C4.98 4.1 5.1 4.16 5.1 4.3L5.1 6.01ZM10 3L0 3L0 7L13 7L11.28 3.69C10.93 2.94 10 3 10 3Z"/>
</svg>