<svg xmlns="http://www.w3.org/2000/svg" viewBox="0 0 15 15">
  <path d="M6 0.5L6 2L8.5 2C9 2 9 2.5 9 2.5L9 12.5C9 12.5 9 13 8.5 13L6 13L6 14.5C6 15 3 15 3 14.5L3 13L0.5 13C0.04 13 0 12.58 0 12.51L0 2.5C0 2.5 0 2 0.5 2L3 2L3 0.5C3 0 6 0 6 0.5ZM12.5 3.5C12.78 4.35 13.07 5.01 13.35 5.48C13.49 5.69 13.71 5.99 14.02 6.39L14.46 6.95C14.81 7.39 15 7.94 15 8.5C15 9.88 13.88 11 12.5 11L12.29 10.99C11.8 10.95 11.33 10.77 10.94 10.46C9.86 9.6 9.69 8.04 10.54 6.96L11.02 6.34C11.21 6.09 11.36 5.88 11.49 5.71L11.64 5.48C11.94 4.99 12.23 4.33 12.5 3.5ZM4.5 3.75C2.25 3.75 0.75 5.25 0.75 7.5C0.75 9.75 2.25 11.25 4.5 11.25C6.75 11.25 8.25 9.75 8.25 7.5C8.25 5.25 6.75 3.75 4.5 3.75ZM4.5 4.5C6.2 4.5 7.5 5.9 7.5 7.5C7.5 9.1 6.2 10.5 4.5 10.5C2.8 10.5 1.5 9.2 1.5 7.5C1.5 5.8 2.8 4.5 4.5 4.5ZM3.9 8.2C3.9 8.2 2.75 9 2.75 9C2.75 9 3.3 9.8 4.5 9.8C5.7 9.8 6.25 9 6.25 9C6.25 9 5.1 8.2 5.1 8.2C4.72 8.45 4.28 8.45 3.9 8.2ZM4.1 5.2C3.1 5.4 2.2 6.4 2.2 7.5C2.2 8.13 2.38 8.38 2.38 8.38C2.38 8.38 3.6 7.6 3.6 7.6C3.6 7.6 3.5 7 4.1 6.7C4.1 6.7 4.1 5.2 4.1 5.2ZM4.9 5.2C4.9 5.2 4.9 6.7 4.9 6.7C5.5 7 5.4 7.6 5.4 7.6C5.4 7.6 6.63 8.38 6.63 8.38C6.63 8.38 6.8 8.1 6.8 7.5C6.8 6.4 5.9 5.4 4.9 5.2Z"/>
</svg>