<svg xmlns="http://www.w3.org/2000/svg" viewBox="0 0 15 15">
  <path d="M12 0C12.55 0 13 0.45 13 1L13 14C13 14.55 12.55 15 12 15L3 15C2.45 15 2 14.55 2 14L2 1C2 0.45 2.45 0 3 0L12 0ZM9.5 12.5L4.5 12.5L4.5 13.5L9.5 13.5L9.5 12.5ZM10.5 1.5L3.5 1.5L3.5 11L10.5 11L10.5 1.5ZM12.25 8L11.25 8L11.25 9L12.25 9L12.25 8ZM12.25 6L11.25 6L11.25 7L12.25 7L12.25 6ZM12.25 4L11.25 4L11.25 5L12.25 5L12.25 4ZM7.8 3C7.91 3 8 3.09 8 3.2L8 5L9.8 5C9.91 5 10 5.09 10 5.2L10 6.8C10 6.91 9.91 7 9.8 7L8 7L8 8.8C8 8.91 7.91 9 7.8 9L6.2 9C6.09 9 6 8.91 6 8.8L6 7L4.2 7C4.09 7 4 6.91 4 6.8L4 5.2C4 5.09 4.09 5 4.2 5L6 5L6 3.2C6 3.09 6.09 3 6.2 3L7.8 3Z"/>
</svg>