<svg xmlns="http://www.w3.org/2000/svg" viewBox="0 0 15 15">
  <path d="M5 10L10 10C10.28 10 10.5 10.22 10.5 10.5L10.5 14.5C10.5 14.78 10.28 15 10 15L5 15C4.72 15 4.5 14.78 4.5 14.5L4.5 10.5C4.5 10.22 4.72 10 5 10ZM5 8L10 8C10.28 8 10.5 8.22 10.5 8.5L10.5 9C10.5 9.28 10.28 9.5 10 9.5L5 9.5C4.72 9.5 4.5 9.28 4.5 9L4.5 8.5C4.5 8.22 4.72 8 5 8ZM5 6L10 6C10.28 6 10.5 6.22 10.5 6.5L10.5 7C10.5 7.28 10.28 7.5 10 7.5L5 7.5C4.72 7.5 4.5 7.28 4.5 7L4.5 6.5C4.5 6.22 4.72 6 5 6ZM9.5 0L9.5 1L9 1L9 2.21C9.88 2.59 10.5 3.48 10.5 4.5L10.5 5C10.5 5.28 10.28 5.5 10 5.5L5 5.5C4.75 5.5 4.55 5.32 4.51 5.09L4.5 5L4.5 4.5C4.5 3.47 5.12 2.59 6 2.21L6 1L5.5 1L5.5 0L9.5 0Z"/>
</svg>