<svg xmlns="http://www.w3.org/2000/svg" viewBox="0 0 15 15">
  <path d="M1.5 10L6.5 10C6.78 10 7 10.22 7 10.5L7 14.5C7 14.78 6.78 15 6.5 15L1.5 15C1.22 15 1 14.78 1 14.5L1 10.5C1 10.22 1.22 10 1.5 10ZM1.5 8L6.5 8C6.78 8 7 8.22 7 8.5L7 9C7 9.28 6.78 9.5 6.5 9.5L1.5 9.5C1.22 9.5 1 9.28 1 9L1 8.5C1 8.22 1.22 8 1.5 8ZM1.5 6L6.5 6C6.78 6 7 6.22 7 6.5L7 7C7 7.28 6.78 7.5 6.5 7.5L1.5 7.5C1.22 7.5 1 7.28 1 7L1 6.5C1 6.22 1.22 6 1.5 6ZM6 0L6 1L5.5 1L5.5 2.21C6.38 2.59 7 3.48 7 4.5L7 5C7 5.28 6.78 5.5 6.5 5.5L1.5 5.5C1.25 5.5 1.05 5.32 1.01 5.09L1 5L1 4.5C1 3.47 1.62 2.59 2.5 2.21L2.5 1L2 1L2 0L6 0ZM12 0C12.33 1.01 12.68 1.81 13.02 2.37L13.16 2.58C13.3 2.78 13.47 3.01 13.69 3.29L14.34 4.13C14.77 4.67 15 5.32 15 6C15 7.65 13.65 9 12 9L11.74 8.99C11.16 8.93 10.6 8.72 10.13 8.35C8.84 7.32 8.62 5.44 9.65 4.15L10.48 3.07C10.59 2.91 10.69 2.77 10.78 2.65L10.97 2.37C11.33 1.79 11.68 1 12 0Z"/>
</svg>