<svg xmlns="http://www.w3.org/2000/svg" viewBox="0 0 15 15">
  <path d="M0 9C2 9.5 4.5 10.5 4.5 10.5C4.5 10.5 5.5 10 6 10L8 10L11 9.5C11 9.5 11.5 10 11 10.5C10.5 11 8.5 11.5 8 11.5C7.5 11.5 8.5 12 8.5 12L10 12C10 12 12 12 13 11.5C14 11 15 10.5 15 11C13 13 12 13.5 12 13.5C12 13.5 10 14 8 14C7.5 14 6 13 5.5 13C5 13 0 13.5 0 13L0 9ZM14.91 2.87L13.93 3.86C11.76 1.67 8.24 1.67 6.07 3.86L5.09 2.89C4.98 2.77 4.97 2.59 5.06 2.46L5.11 2.41C6.49 1.13 8.12 0.49 10 0.5C11.88 0.51 13.5 1.14 14.88 2.4C15.02 2.53 15.04 2.74 14.91 2.87ZM13.32 4.47L12.12 5.69C10.94 4.51 9.05 4.51 7.89 5.69L6.67 4.47C8.51 2.62 11.49 2.62 13.32 4.47ZM10.86 7.44C10.44 7.92 9.72 7.96 9.24 7.54C9.2 7.51 9.17 7.48 9.14 7.44C8.75 7 8.79 6.33 9.24 5.93C9.4 5.78 9.61 5.69 9.84 5.67C9.9 5.66 9.95 5.66 10.01 5.66L10.06 5.66L10.12 5.67C10.71 5.7 11.16 6.21 11.12 6.8C11.11 7.01 11.04 7.2 10.92 7.37L10.86 7.44Z"/>
</svg>