<svg xmlns="http://www.w3.org/2000/svg" viewBox="0 0 15 15">
  <path d="M5 4L10 4L10 3L5 3L5 4ZM10 2C10.55 2 11 2.45 11 3L11 4L13 4C13.55 4 14 4.45 14 5L14 12C14 12.55 13.55 13 13 13L2 13C1.45 13 1 12.55 1 12L1 5C1 4.45 1.45 4 2 4L4 4L4 3C4 2.45 4.45 2 5 2L10 2ZM8.3 5.5L6.7 5.5C6.59 5.5 6.5 5.59 6.5 5.7L6.5 7.5L4.7 7.5C4.59 7.5 4.5 7.59 4.5 7.7L4.5 9.3C4.5 9.41 4.59 9.5 4.7 9.5L6.5 9.5L6.5 11.3C6.5 11.41 6.59 11.5 6.7 11.5L8.3 11.5C8.41 11.5 8.5 11.41 8.5 11.3L8.5 9.5L10.3 9.5C10.41 9.5 10.5 9.41 10.5 9.3L10.5 7.7C10.5 7.59 10.41 7.5 10.3 7.5L8.5 7.5L8.5 5.7C8.5 5.59 8.41 5.5 8.3 5.5Z"/>
</svg>