<svg xmlns="http://www.w3.org/2000/svg" viewBox="0 0 15 15">
  <path d="M3 0C2.45 0 2 0.45 2 1L2 14C2 14.55 2.45 15 3 15L13 15L13 14L12.25 13.25L13 12.5L13 0.5C13 0.22 12.78 0 12.5 0L3 0ZM6.2 2L8.8 2C8.99 2 9.13 2.15 9.13 2.33C9.13 2.51 8.99 2.65 8.8 2.65L8.48 2.65L8.48 3.3C8.84 3.3 9.13 3.6 9.13 3.96L9.13 4.54C9.73 5.01 10.12 5.75 10.12 6.57C10.12 7.02 10 7.45 9.8 7.82L10.31 8.26C10.48 8.57 10.37 8.97 10.05 9.14C10.01 9.15 9.98 9.18 9.95 9.19L7.5 10L5.05 9.19C4.71 9.08 4.53 8.7 4.64 8.37L4.67 8.3L4.67 8.29L4.67 8.29L4.67 8.29L4.67 8.29C4.67 8.28 4.68 8.27 4.69 8.26L5.2 7.82C5 7.45 4.88 7.02 4.88 6.57C4.88 5.75 5.27 5.01 5.87 4.54L5.87 3.96C5.87 3.6 6.16 3.3 6.52 3.3L6.52 2.65L6.2 2.65C6.01 2.65 5.87 2.51 5.87 2.33C5.87 2.15 6.01 2 6.2 2ZM7.5 4.62C6.41 4.62 5.54 5.49 5.54 6.57C5.54 7.66 6.41 8.53 7.5 8.53C8.59 8.53 9.46 7.66 9.46 6.57C9.46 5.49 8.59 4.62 7.5 4.62ZM6.81 5.27C6.83 5.27 6.84 5.27 6.85 5.27C7.03 5.27 7.17 5.41 7.17 5.59L7.17 6.24C7.17 6.42 7.03 6.57 6.85 6.57C6.67 6.57 6.52 6.42 6.52 6.24L6.52 5.59C6.52 5.42 6.65 5.29 6.81 5.27ZM8.12 5.27C8.13 5.27 8.14 5.27 8.15 5.27C8.34 5.27 8.48 5.41 8.48 5.59L8.48 6.24C8.48 6.42 8.34 6.57 8.15 6.57C7.97 6.57 7.83 6.42 7.83 6.24L7.83 5.59C7.83 5.42 7.95 5.29 8.12 5.27ZM6.67 7.22L6.69 7.22L8.31 7.22C8.34 7.22 8.36 7.23 8.38 7.23C8.45 7.27 8.48 7.34 8.47 7.42L8.46 7.46C8.23 7.95 7.91 8.21 7.5 8.21C7.09 8.21 6.77 7.95 6.53 7.46C6.53 7.43 6.52 7.42 6.52 7.38C6.52 7.3 6.59 7.23 6.67 7.22ZM3 12.5L12 12.5L11.25 13.25L12 14L3 14L3 12.5Z"/>
</svg>