<svg xmlns="http://www.w3.org/2000/svg" viewBox="0 0 15 15">
  <path d="M3 0C2.45 0 2 0.45 2 1L2 14C2 14.55 2.45 15 3 15L13 15L13 14L12.25 13.25L13 12.5L13 0.5C13 0.22 12.78 0 12.5 0L3 0ZM4.84 2L5.73 2C5.73 2.29 5.74 2.55 5.75 2.78L9.25 2.78C9.26 2.55 9.27 2.29 9.27 2L10.16 2C10.16 3.44 9.88 4.39 9.38 5.07C8.92 5.73 8.29 6.08 7.74 6.38L7.72 6.39C7.25 6.65 6.85 6.88 6.52 7.22L8.48 7.22C8.32 7.05 8.14 6.9 7.93 6.78L7.98 6.75C8.22 6.63 8.48 6.47 8.77 6.27C8.99 6.46 9.2 6.66 9.38 6.93C9.88 7.61 10.16 8.56 10.16 10L9.27 10C9.27 9.71 9.26 9.45 9.25 9.22L5.75 9.22C5.74 9.45 5.73 9.71 5.73 10L4.84 10C4.84 8.56 5.12 7.61 5.62 6.93C6.08 6.27 6.71 5.92 7.26 5.62L7.28 5.61C7.75 5.36 8.15 5.12 8.48 4.78L6.52 4.78C6.68 4.95 6.86 5.1 7.07 5.22L7.02 5.25C6.78 5.37 6.52 5.53 6.23 5.73C6.01 5.54 5.8 5.34 5.62 5.07C5.12 4.39 4.84 3.44 4.84 2ZM5.87 3.45C5.92 3.7 5.99 3.92 6.08 4.12L8.92 4.12C9.01 3.92 9.08 3.7 9.13 3.45L5.87 3.45ZM6.08 7.88C5.99 8.08 5.92 8.3 5.87 8.55L9.13 8.55C9.08 8.3 9.01 8.08 8.92 7.88L6.08 7.88ZM3 12.5L12 12.5L11.25 13.25L12 14L3 14L3 12.5Z"/>
</svg>