<svg xmlns="http://www.w3.org/2000/svg" viewBox="0 0 15 15">
  <path d="M3 0C2.45 0 2 0.45 2 1L2 14C2 14.55 2.45 15 3 15L13 15L13 14L12.25 13.25L13 12.5L13 0.5C13 0.22 12.78 0 12.5 0L3 0ZM5.63 2.77A0.27 0.27 0 0 1 5.71 2.78L6.49 2.99A0.27 0.27 0 0 1 6.69 3.31L6.45 4.19L6.44 4.19L5.14 3.84L5.37 2.96A0.27 0.27 0 0 1 5.63 2.77ZM7.23 3.3C8.44 3.3 8.85 3.71 8.85 4.92C7.63 4.92 7.23 4.52 7.23 3.3ZM4.99 4.38L6.3 4.73L5.32 8.35A0.27 0.27 0 0 1 5.25 8.48L4.46 9.21A0.08 0.08 0 0 1 4.33 9.17L4.02 8.15L4.01 8.15A0.27 0.27 0 0 1 4.01 8L4.99 4.38ZM7.44 5.12A1.46 1.46 0 0 1 8.28 5.38A0.52 0.52 0 0 0 8.87 5.38A1.31 1.31 0 0 1 9.65 5.12C10.07 5.12 10.54 5.38 10.76 5.76C11.58 7.22 10.12 9.38 9.07 9.22A0.47 0.47 0 0 1 8.93 9.17A0.77 0.77 0 0 0 8.23 9.17A0.47 0.47 0 0 1 8.1 9.22L8.09 9.21C7.35 9.33 6.41 8.3 6.2 7.17L6.68 5.4C6.89 5.22 7.16 5.12 7.44 5.12ZM3 12.5L12 12.5L11.25 13.25L12 14L3 14L3 12.5Z"/>
</svg>