<svg xmlns="http://www.w3.org/2000/svg" viewBox="0 0 15 15">
  <path d="M3 0C2.45 0 2 0.45 2 1L2 14C2 14.55 2.45 15 3 15L13 15L13 14L12.25 13.25L13 12.5L13 0.5C13 0.22 12.78 0 12.5 0L3 0ZM7.5 2.5C8 2.5 8 3 8 3L9.88 3.5L9.88 4L11 6.5C11 7 10.61 7.5 9.75 7.5C8.89 7.5 8.5 7 8.5 6.5L9.62 4L8 4L8 9L10 9L10.5 9.5L4.5 9.5L5 9L7 9L7 4L5.38 4L6.5 6.5C6.5 7 6.1 7.5 5.25 7.5C4.4 7.5 4 7 4 6.5L5.12 4L5.12 3.5L7 3C7 3 7 2.5 7.5 2.5ZM5.25 4.5L4.37 6.5L6.12 6.5L5.25 4.5ZM9.75 4.5L8.88 6.5L10.63 6.5L9.75 4.5ZM3 12.5L12 12.5L11.25 13.25L12 14L3 14L3 12.5Z"/>
</svg>