<svg xmlns="http://www.w3.org/2000/svg" viewBox="0 0 15 15">
<path d="M4 2 1 5H14ZM1 5.5V12H14V5.5ZM3.31 6.13C3.95 6.13 4.48 6.66 4.48 7.3 4.48 7.95 3.95 8.48 3.31 8.48 2.65 8.48 2.14 7.95 2.14 7.3 2.14 6.66 2.65 6.13 3.31 6.13ZM11.2 6.54C12.08 6.54 12.8 7.25 12.8 8.13 12.8 9.02 12.08 9.73 11.2 9.73 10.31 9.73 9.6 9.02 9.6 8.13 9.6 7.25 10.31 6.54 11.2 6.54ZM6.74 8.42C7.49 8.42 8.1 9.03 8.1 9.78 8.1 10.52 7.49 11.13 6.74 11.13 5.98 11.13 5.39 10.52 5.39 9.78 5.39 9.03 5.98 8.42 6.74 8.42Z"/>
</svg>