<svg xmlns="http://www.w3.org/2000/svg" viewBox="0 0 15 15">
<path d="M4 0L4 2L7 2L7 1.56C7.18 1.64 7.36 1.71 7.52 1.73C7.71 1.76 7.86 1.77 8 1.76L8 2L9.24 2C9.28 2.12 9.32 2.25 9.36 2.4C9.41 2.58 9.45 2.77 9.55 3L8 3L8 5L11 5L11 4.21L11 3.35C10.13 3.26 10.49 1.49 9.47 0.9C8.41 0.28 7.64 1.41 6.92 0.5C6.78 0.33 6.73 0.16 6.74 0L5.78 0L4 0ZM4 3L4 5L7 5L7 3L4 3ZM4 6L4 7.46L3.5 7.24L3.5 9.33L4 9.54L4 11.25L5.23 10.02L6.33 9.54L6.39 9.57L4 11.95L4 14.5C4 14.67 4.09 14.82 4.22 14.91L9.31 9.82L9.81 10.04L4.84 15L8.02 15L11 12.02L11 9.54L11.5 9.33L11.5 7.24L11 7.46L11 6L8 6L8 7.74L7.5 7.96L7 7.74L7 6L4 6ZM4 8L5.17 8.5L6.33 8L7.5 8.5L8.67 8L9.83 8.5L11 8L11 9L9.83 9.5L8.67 9L7.5 9.5L6.33 9L5.17 9.5L4 9L4 8ZM11 12.73L8.73 15L10.5 15C10.78 15 11 14.78 11 14.5L11 12.73Z"/>
</svg>