<svg xmlns="http://www.w3.org/2000/svg" viewBox="0 0 15 15">
<path d="M4 0L4 2L4 2.25L7 2.25L7.25 2.25L7.25 1.66C7.34 1.7 7.43 1.72 7.52 1.73C7.6 1.74 7.68 1.75 7.75 1.76L7.75 2.25L8 2.25L9.32 2.25C9.33 2.3 9.35 2.35 9.36 2.4C9.39 2.51 9.42 2.62 9.46 2.75L8 2.75L7.75 2.75L7.75 5.25L8 5.25L11 5.25L11 5L11 4.21L11 3.35C10.13 3.26 10.49 1.49 9.47 0.9C8.41 0.28 7.64 1.41 6.92 0.5C6.78 0.33 6.73 0.16 6.74 0L5.78 0L4 0ZM4 2.75L4 3L4 5L4 5.25L7 5.25L7.25 5.25L7.25 2.75L7 2.75L4 2.75ZM4 5.75L4 6L4 7.46L3.5 7.24L3.5 9.33L4 9.54L4 11.25L5.23 10.02L6.33 9.54L6.39 9.57L4 11.95L4 14.5C4 14.67 4.09 14.82 4.22 14.91L9.31 9.82L9.81 10.04L4.84 15L8.02 15L11 12.02L11 9.54L11.5 9.33L11.5 7.24L11 7.46L11 6L11 5.75L8 5.75L7.75 5.75L7.75 7.85L7.5 7.96L7.25 7.85L7.25 5.75L7 5.75L4 5.75ZM4 8L5.17 8.5L6.33 8L7.5 8.5L8.67 8L9.83 8.5L11 8L11 9L9.83 9.5L8.67 9L7.5 9.5L6.33 9L5.17 9.5L4 9L4 8ZM11 12.73L8.73 15L10.5 15C10.78 15 11 14.78 11 14.5L11 12.73Z"/>
</svg>