<svg xmlns="http://www.w3.org/2000/svg" viewBox="0 0 15 15">
  <path d="M7.64 3L7.5 3C7.85 3 8.18 3 8.51 3.01C9.39 3.74 9.96 4.34 10.21 4.82C10.4 5.16 10.6 5.63 10.81 6.23C10.84 6.31 10.9 6.37 10.99 6.39C11.12 6.42 11.26 6.34 11.29 6.21C11.43 5.62 11.5 5.16 11.5 4.82C11.5 4.33 11.21 3.73 10.64 3L10.73 3.11C11.66 3.18 12.47 3.28 13.17 3.42L13.44 3.48C14.35 3.68 15 4.5 15 5.43L15 6.38C15 7.01 14.67 7.6 14.14 7.92L14 8L14 11.66C14 12.15 13.64 12.57 13.15 12.65C11.62 12.88 9.74 13 7.5 13C5.45 13 3.7 12.9 2.24 12.7L1.85 12.65C1.36 12.57 1 12.15 1 11.66L1 8C0.39 7.69 0 7.07 0 6.38L0 5.43C0 4.5 0.65 3.68 1.56 3.48C1.94 3.39 2.35 3.32 2.8 3.26C3.52 3.88 3.99 4.4 4.21 4.82C4.4 5.16 4.6 5.63 4.81 6.23C4.84 6.31 4.9 6.37 4.99 6.39C5.12 6.42 5.26 6.34 5.29 6.21C5.43 5.62 5.5 5.16 5.5 4.82C5.5 4.33 5.21 3.73 4.64 3L4.7 3.08C4.97 3.06 5.25 3.05 5.54 3.04C6.4 3.75 6.96 4.35 7.21 4.82C7.4 5.16 7.6 5.63 7.81 6.23C7.84 6.31 7.9 6.37 7.99 6.39C8.12 6.42 8.26 6.34 8.29 6.21C8.43 5.62 8.5 5.16 8.5 4.82C8.5 4.33 8.21 3.73 7.64 3Z"/>
</svg>