<svg xmlns="http://www.w3.org/2000/svg" viewBox="0 0 15 15">
  <path d="M7.64 4L7.5 4C7.84 4 8.19 4.01 8.53 4.04C9.4 4.94 9.96 5.68 10.21 6.27C10.4 6.7 10.59 7.28 10.81 8.02C10.83 8.11 10.91 8.18 11 8.19C11.14 8.22 11.27 8.13 11.29 7.99C11.43 7.27 11.5 6.7 11.5 6.27C11.5 5.75 11.29 5.12 10.87 4.38C11.42 4.5 11.98 4.65 12.53 4.84C12.83 4.93 13.1 5.1 13.31 5.32L14.12 6.12C14.68 6.68 15 7.45 15 8.24L15 10.63C15 11.13 14.62 11.56 14.12 11.62C12.04 11.87 9.83 12 7.5 12C5.46 12 3.51 11.9 1.67 11.71L0.88 11.62C0.38 11.56 0 11.13 0 10.63L0 8.24C0 7.45 0.32 6.68 0.88 6.12L1.69 5.32C1.9 5.1 2.17 4.93 2.47 4.84C2.68 4.77 2.88 4.7 3.09 4.64C3.65 5.28 4.02 5.82 4.21 6.27C4.4 6.7 4.59 7.28 4.81 8.02C4.83 8.11 4.91 8.18 5 8.19C5.14 8.22 5.27 8.13 5.29 7.99C5.43 7.27 5.5 6.7 5.5 6.27C5.5 5.67 5.21 4.91 4.64 4L4.98 4.21C5.19 4.17 5.4 4.14 5.61 4.12C6.44 4.98 6.97 5.7 7.21 6.27C7.4 6.7 7.59 7.28 7.81 8.02C7.83 8.11 7.91 8.18 8 8.19C8.14 8.22 8.27 8.13 8.29 7.99C8.43 7.27 8.5 6.7 8.5 6.27C8.5 5.67 8.21 4.91 7.64 4L7.64 4Z"/>
</svg>