<svg xmlns="http://www.w3.org/2000/svg" viewBox="0 0 15 15">
<path d="M2 0L3 2L12 2L13 0L12.21 0L11.51 0.71L10.8 0L10.21 0L9.51 0.71L8.8 0L8.21 0L7.51 0.71L6.8 0L6.21 0L5.51 0.71L4.8 0L4.21 0L3.51 0.71L2.8 0L2 0ZM3 2.5C3 2.5 2.5 5.83 2.5 7.5C2.5 9.17 3 12.5 3 12.5L12 12.5C12 12.5 12.5 9.17 12.5 7.5C12.5 5.83 12 2.5 12 2.5L3 2.5ZM7.5 5A2.5 2.5 0 0 1 10 7.5A2.5 2.5 0 0 1 7.5 10A2.5 2.5 0 0 1 5 7.5A2.5 2.5 0 0 1 7.5 5ZM6.57 6.63C6.45 6.63 6.34 6.66 6.25 6.73C6.1 6.85 6.03 7.07 6.01 7.26C5.98 7.43 6.02 7.6 6.09 7.76C6.15 7.91 6.25 8.05 6.38 8.14C6.56 8.26 6.78 8.3 6.99 8.3C7.15 8.29 7.31 8.22 7.45 8.16C7.58 8.24 7.81 8.37 8.01 8.37C8.27 8.36 8.54 8.25 8.73 8.07C8.88 7.93 9 7.72 9 7.51C9 7.28 8.91 6.98 8.71 6.87C8.25 6.63 8 7.28 7.57 7.27C7.22 7.26 7.04 6.72 6.68 6.64C6.65 6.64 6.61 6.63 6.57 6.63ZM6.51 7.05C6.54 7.05 6.57 7.07 6.62 7.1C6.67 7.15 6.74 7.22 6.81 7.29C6.96 7.44 7.16 7.6 7.43 7.64C7.26 7.75 7.13 7.87 6.96 7.88C6.82 7.89 6.68 7.84 6.57 7.75C6.49 7.69 6.41 7.59 6.39 7.49C6.37 7.34 6.43 7.09 6.5 7.05C6.51 7.05 6.51 7.05 6.51 7.05ZM8.49 7.22C8.49 7.22 8.5 7.22 8.51 7.22C8.55 7.23 8.58 7.28 8.59 7.32C8.62 7.4 8.58 7.5 8.55 7.58C8.5 7.7 8.43 7.82 8.32 7.88C8.12 7.99 7.98 7.96 7.84 7.91C8.01 7.77 8.16 7.62 8.26 7.49C8.33 7.42 8.38 7.35 8.42 7.3C8.43 7.28 8.46 7.23 8.49 7.22ZM3 13L2 15L2.79 15L3.5 14.29L4.21 15L4.79 15L5.5 14.29L6.21 15L6.79 15L7.5 14.29L8.21 15L8.79 15L9.5 14.29L10.21 15L10.79 15L11.5 14.29L12.21 15L13 15L12 13L3 13Z"/>
</svg>