<svg xmlns="http://www.w3.org/2000/svg" viewBox="0 0 15 15">
  <path d="M0 10C2 10.5 4.5 11.5 4.5 11.5C4.5 11.5 5.5 11 6 11L8 11L11 10.5C11 10.5 11.5 11 11 11.5C10.5 12 8.5 12.5 8 12.5C7.5 12.5 8.5 13 8.5 13L10 13C10 13 12 13 13 12.5C14 12 15 11.5 15 12C13 14 12 14.5 12 14.5C12 14.5 10 15 8 15C7.5 15 6 14 5.5 14C5 14 0 14.5 0 14L0 10ZM11.35 0C10.96 0.4 10.63 0.96 10.53 1.45C10.48 1.72 10.46 2.36 10.45 2.68C10.59 2.76 10.74 2.82 10.88 2.93C11.03 2.82 11.18 2.74 11.33 2.65C11.34 2.38 11.35 1.81 11.39 1.63C11.47 1.26 11.65 0.9 11.95 0.6L11.35 0ZM6.42 0.42C6.79 1.79 8.37 2.49 9.85 1.79C9.23 0.42 8.13 -0.01 6.42 0.42ZM7.44 3.34C7.02 3.79 6.76 4.54 6.76 5.23C6.76 6.6 8.13 9 9.51 9C9.89 9 10.19 8.83 10.88 8.49C11.56 8.83 11.86 9 12.25 9C13.63 9 15 6.6 15 5.23C15 4.54 14.77 3.79 14.31 3.34C13.61 2.67 12.25 2.65 10.88 3.68C9.51 2.72 8.13 2.58 7.44 3.34Z"/>
</svg>