<svg xmlns="http://www.w3.org/2000/svg" viewBox="0 0 15 15">
  <path d="M0 9C2 9.5 4.5 10.5 4.5 10.5C4.5 10.5 5.5 10 6 10L8 10L11 9.5C11 9.5 11.5 10 11 10.5C10.5 11 8.5 11.5 8 11.5C7.5 11.5 8.5 12 8.5 12L10 12C10 12 12 12 13 11.5C14 11 15 10.5 15 11C13 13 12 13.5 12 13.5C12 13.5 10 14 8 14C7.5 14 6 13 5.5 13C5 13 0 13.5 0 13L0 9ZM9.6 1.5L9.5 1.5C9.75 1.5 10.01 1.51 10.26 1.53C10.89 2.21 11.3 2.76 11.49 3.2C11.63 3.53 11.77 3.96 11.93 4.51C11.94 4.58 12 4.64 12.07 4.64C12.17 4.67 12.26 4.6 12.28 4.49C12.38 3.95 12.43 3.53 12.43 3.2C12.43 2.81 12.28 2.34 11.97 1.79C12.26 1.85 12.54 1.92 12.82 2.01L13.19 2.13C13.41 2.2 13.61 2.33 13.76 2.49L14.35 3.09C14.77 3.51 15 4.09 15 4.68L15 6.47C15 6.85 14.72 7.17 14.35 7.22C12.83 7.4 11.21 7.5 9.5 7.5C8 7.5 6.57 7.43 5.22 7.28L4.65 7.22C4.28 7.17 4 6.85 4 6.47L4 4.68C4 4.13 4.2 3.61 4.54 3.2L4.65 3.09L5.24 2.49C5.39 2.33 5.59 2.2 5.81 2.13C5.97 2.08 6.11 2.03 6.27 1.98C6.68 2.46 6.95 2.87 7.09 3.2C7.23 3.53 7.37 3.96 7.53 4.51C7.54 4.58 7.6 4.64 7.67 4.64C7.77 4.67 7.86 4.6 7.88 4.49C7.98 3.95 8.03 3.53 8.03 3.2C8.03 2.75 7.82 2.18 7.4 1.5L7.65 1.66C7.81 1.63 7.96 1.61 8.11 1.59C8.72 2.24 9.11 2.78 9.29 3.2C9.43 3.53 9.57 3.96 9.73 4.51C9.74 4.58 9.8 4.64 9.87 4.64C9.97 4.67 10.06 4.6 10.08 4.49C10.18 3.95 10.23 3.53 10.23 3.2C10.23 2.75 10.02 2.18 9.6 1.5L9.6 1.5Z"/>
</svg>