<svg xmlns="http://www.w3.org/2000/svg" viewBox="0 0 15 15">
  <path d="M0 10C2 10.5 4.5 11.5 4.5 11.5C4.5 11.5 5.5 11 6 11L8 11L11 10.5C11 10.5 11.5 11 11 11.5C10.5 12 8.5 12.5 8 12.5C7.5 12.5 8.5 13 8.5 13L10 13C10 13 12 13 13 12.5C14 12 15 11.5 15 12C13 14 12 14.5 12 14.5C12 14.5 10 15 8 15C7.5 15 6 14 5.5 14C5 14 0 14.5 0 14L0 10ZM10.96 7.9L11.05 7.9C12.01 7.9 12.58 7.53 12.89 7.22C13.35 6.77 13.66 6.04 13.66 5.4C13.66 5.11 13.78 4.98 14.07 4.93L15 4.93L14.72 4.44L14.48 4C14.52 3.77 14.49 3.53 14.39 3.3C14.24 2.95 13.93 2.68 13.57 2.6C13.47 2.58 13.38 2.56 13.27 2.56C13.06 2.56 12.85 2.62 12.66 2.73C12.54 2.79 12.45 2.87 12.36 2.97L12.08 3.28L11.97 3.4L11.88 3.51C11.9 3.54 11.93 3.56 11.95 3.6L12.05 3.72C12.05 3.72 12.08 3.77 12.1 3.8C12.15 3.89 12.19 3.94 12.22 4C12.24 4.06 12.26 4.12 12.29 4.19L12.3 4.23C12.33 4.34 12.38 4.51 12.38 4.72L11.56 4.71C11.56 4.66 11.54 4.61 11.53 4.56L11.52 4.54C11.51 4.5 11.49 4.46 11.48 4.43C11.46 4.39 11.44 4.35 11.41 4.31C11.39 4.28 11.38 4.26 11.37 4.24L11.33 4.19C11.27 4.12 11.22 4.07 11.17 4.03L7.62 0.17L7.6 0.15L7.57 0.13C7.45 0.05 7.31 0 7.16 0C6.78 0 6.45 0.33 6.45 0.72C6.45 1.04 6.58 1.2 6.7 1.3C6.57 1.46 6.5 1.71 6.5 2C6.5 2.35 6.7 2.67 7.03 2.83C6.9 3.01 6.83 3.22 6.83 3.44C6.83 3.89 7.13 4.3 7.57 4.45C7.39 4.71 7.3 5.01 7.3 5.32C7.3 5.94 7.71 6.44 8.25 6.69L8.17 6.66L8.16 6.66C8.25 6.71 8.35 6.76 8.46 6.78L8.42 7.72C7.95 7.69 7.47 7.53 7.17 7.07L5.96 7.55C5.66 7.67 5.46 7.94 5.46 8.25C5.46 8.53 5.61 8.79 5.86 8.92C5.78 9.11 5.77 9.33 5.82 9.53C5.89 9.81 6.11 10.05 6.38 10.15C6.65 10.26 6.94 10.23 7.18 10.09C7.32 10.34 7.57 10.5 7.85 10.5C8.13 10.5 8.37 10.35 8.51 10.11L9.26 8.57C9.3 8.51 9.67 7.9 10.32 7.9L10.96 7.9L10.96 7.9ZM13.38 3.42C13.55 3.42 13.71 3.57 13.71 3.75C13.71 3.93 13.55 4.08 13.38 4.08C13.2 4.08 13.05 3.93 13.05 3.75C13.05 3.57 13.2 3.42 13.38 3.42Z"/>
</svg>