<svg xmlns="http://www.w3.org/2000/svg" viewBox="0 0 15 15">
  <path d="M0 10C2 10.5 4.5 11.5 4.5 11.5C4.5 11.5 5.5 11 6 11L8 11L11 10.5C11 10.5 11.5 11 11 11.5C10.5 12 8.5 12.5 8 12.5C7.5 12.5 8.5 13 8.5 13L10 13C10 13 12 13 13 12.5C14 12 15 11.5 15 12C13 14 12 14.5 12 14.5C12 14.5 10 15 8 15C7.5 15 6 14 5.5 14C5 14 0 14.5 0 14L0 10ZM10.5 0C10.83 1.01 11.18 1.81 11.52 2.37C11.68 2.63 11.95 2.99 12.32 3.47L12.84 4.13C13.27 4.67 13.5 5.32 13.5 6C13.5 7.65 12.15 9 10.5 9L10.24 8.99C9.66 8.93 9.1 8.72 8.63 8.35C7.34 7.32 7.12 5.44 8.15 4.15L8.72 3.4C8.95 3.11 9.14 2.85 9.28 2.65L9.47 2.37C9.83 1.79 10.18 1 10.5 0Z"/>
</svg>