<svg xmlns="http://www.w3.org/2000/svg" viewBox="0 0 15 15">
  <path d="M0 10C2 10.5 4.5 11.5 4.5 11.5C4.5 11.5 5.5 11 6 11L8 11L11 10.5C11 10.5 11.5 11 11 11.5C10.5 12 8.5 12.5 8 12.5C7.5 12.5 8.5 13 8.5 13L10 13C10 13 12 13 13 12.5C14 12 15 11.5 15 12C13 14 12 14.5 12 14.5C12 14.5 10 15 8 15C7.5 15 6 14 5.5 14C5 14 0 14.5 0 14L0 10ZM11.5 0.25C11.78 0.25 12 0.47 12 0.75L12 3L14.25 3C14.5 3 14.7 3.18 14.74 3.41L14.75 3.5L14.75 5C14.75 5.28 14.53 5.5 14.25 5.5L12 5.5L12 7.75C12 8.03 11.78 8.25 11.5 8.25L10 8.25C9.72 8.25 9.5 8.03 9.5 7.75L9.5 5.5L7.25 5.5C7 5.5 6.8 5.32 6.76 5.09L6.75 5L6.75 3.5C6.75 3.22 6.97 3 7.25 3L9.5 3L9.5 0.75C9.5 0.47 9.72 0.25 10 0.25L11.5 0.25Z"/>
</svg>