<svg xmlns="http://www.w3.org/2000/svg" viewBox="0 0 15 15">
  <path d="M0 9.5C2 10 4.5 11 4.5 11C4.5 11 5.5 10.5 6 10.5L8 10.5L11 10C11 10 11.5 10.5 11 11C10.5 11.5 8.5 12 8 12C7.5 12 8.5 12.5 8.5 12.5L10 12.5C10 12.5 12 12.5 13 12C14 11.5 15 11 15 11.5C13 13.5 12 14 12 14C12 14 10 14.5 8 14.5C7.5 14.5 6 13.5 5.5 13.5C5 13.5 0 14 0 13.5L0 9.5ZM12 0C12.33 1.01 12.68 1.81 13.02 2.37C13.18 2.63 13.45 2.99 13.82 3.47L14.34 4.13C14.77 4.67 15 5.32 15 6C15 7.65 13.65 9 12 9L11.74 8.99C11.16 8.93 10.6 8.72 10.13 8.35C8.84 7.32 8.62 5.44 9.65 4.15L10.22 3.4C10.45 3.11 10.64 2.85 10.78 2.65L10.97 2.37C11.33 1.79 11.68 1 12 0Z"/>
</svg>