<svg xmlns="http://www.w3.org/2000/svg" viewBox="0 0 15 15">
  <path d="M0 10C2 10.5 4.5 11.5 4.5 11.5C4.5 11.5 5.5 11 6 11L8 11L11 10.5C11 10.5 11.5 11 11 11.5C10.5 12 8.5 12.5 8 12.5C7.5 12.5 8.5 13 8.5 13L10 13C10 13 12 13 13 12.5C14 12 15 11.5 15 12C13 14 12 14.5 12 14.5C12 14.5 10 15 8 15C7.5 15 6 14 5.5 14C5 14 0 14.5 0 14L0 10ZM10.5 0C12.29 0 13.75 1.46 13.75 3.25C13.75 4.45 12.66 6.61 10.5 9.75C8.34 6.61 7.25 4.45 7.25 3.25C7.25 1.46 8.71 0 10.5 0ZM10.5 2.11C9.87 2.11 9.36 2.62 9.36 3.25C9.36 3.88 9.87 4.39 10.5 4.39C11.13 4.39 11.64 3.88 11.64 3.25C11.64 2.62 11.13 2.11 10.5 2.11Z"/>
</svg>