<svg xmlns="http://www.w3.org/2000/svg" viewBox="0 0 15 15">
  <path d="M0 10C2 10.5 4.5 11.5 4.5 11.5C4.5 11.5 5.5 11 6 11L8 11L11 10.5C11 10.5 11.5 11 11 11.5C10.5 12 8.5 12.5 8 12.5C7.5 12.5 8.5 13 8.5 13L10 13C10 13 12 13 13 12.5C14 12 15 11.5 15 12C13 14 12 14.5 12 14.5C12 14.5 10 15 8 15C7.5 15 6 14 5.5 14C5 14 0 14.5 0 14L0 10ZM11.5 3L10.5 5.33L8 5.33L10 7.25L9 10L11.5 8.5L14 10L13 7.25L15 5.33L12.5 5.33zM5.5 2L4.79 3.67L3 3.67L4.43 5.04L3.71 7L5.5 5.93L7.29 7L6.57 5.04L8 3.67L6.21 3.67zM9.5 0L9.07 1L8 1L8.86 1.82L8.43 3L9.5 2.36L10.57 3L10.14 1.82L11 1L9.93 1z"/>
</svg>