<svg xmlns="http://www.w3.org/2000/svg" viewBox="0 0 15 15">
  <path d="M0 7.96L3.28 7.96L3.28 1.46L0 1.46L0 7.96ZM15 7.46C15 7.99 14.56 8.43 14.02 8.43L9.84 8.43L9.84 9.82L10.78 9.82L10.78 10.34L10.77 10.94C10.76 11.49 10.73 11.92 10.62 12.51C10.36 13.83 9.8 14 9.49 14C9.05 14 8.79 13.61 8.79 13.22L8.79 13.04C8.79 10.04 7.18 7.56 4.69 7.5L4.69 1.93L4.8 1.93C5.5 1.93 5.97 1.91 6.51 1.68L6.68 1.6L7 1.47C7.6 1.22 8.31 1 9.38 1L12.66 1C12.83 1 12.9 1.02 12.94 1.06C13.32 1.19 13.59 1.55 13.59 1.97C13.59 2.34 13.37 2.67 13.06 2.83L13.08 2.83C13.62 2.83 14.06 3.27 14.06 3.8C14.06 4.17 13.84 4.5 13.53 4.66L13.55 4.66C14.09 4.66 14.53 5.1 14.53 5.63C14.53 6 14.31 6.33 14 6.49L14.02 6.49C14.51 6.49 14.94 6.86 14.99 7.35L15 7.46Z"/>
</svg>