<svg xmlns="http://www.w3.org/2000/svg" viewBox="0 0 15 15">
<path d="M9.61 0C8.53 0 7.67 0.88 7.67 1.96 7.67 3.03 8.53 3.91 9.61 3.91 10.61 3.91 11.43 3.18 11.57 2.24 11.59 2.07 11.71 1.93 11.85 1.89L14.94 1.12 14.67 0H12.15V0.27C12.15 0.44 12.01 0.56 11.86 0.56H11.29C11.15 0.56 11.02 0.44 11.02 0.27V0ZM9.61 1.12C10.09 1.12 10.46 1.48 10.46 1.96 10.46 2.41 10.09 2.8 9.61 2.8 9.16 2.8 8.77 2.41 8.78 1.96 8.78 1.48 9.16 1.12 9.61 1.12ZM7.38 4.92C7.25 4.92 7.13 5 7.05 5.11L5.75 7.76 8.12 10.13 8.59 9.21H10.02L10.53 8.7C10.67 8.58 10.75 8.4 10.75 8.2V8.15C10.75 7.92 10.61 7.72 10.42 7.63L8.08 6.44C7.96 6.39 7.88 6.26 7.88 6.13V5.27C7.88 5.08 7.72 4.92 7.51 4.92ZM4.98 8.51 4.76 8.67C3.64 9.37 2.89 10.03 2.51 10.65 2.05 11.38 1.8 12.21 1.78 13.16 1.35 12.93 1.06 12.49 1.06 12V10.65L0.89 10.76C0.33 11.15 0 11.76 0 12.43V12.62C0 13.19 0.23 13.75 0.63 14.15L0.91 14.43C1.24 14.76 1.7 14.94 2.18 14.94H5.36C5.56 14.94 5.72 14.78 5.72 14.59V14.45C5.72 14.32 5.64 14.19 5.52 14.12L5.17 13.94C5.08 13.9 5.01 13.79 5.01 13.69V13.59C5.02 13.51 5.05 13.43 5.09 13.36L5.63 12.28C5.69 12.16 5.81 12.08 5.94 12.08H6.09C6.29 12.08 6.44 12.24 6.44 12.43V14.08C6.44 14.18 6.47 14.26 6.55 14.34L7.05 14.84C7.13 14.91 7.21 14.94 7.3 14.94H8.24C8.43 14.94 8.59 14.78 8.59 14.59V14.37C8.59 14.27 8.56 14.19 8.49 14.12L7.99 13.61C7.92 13.54 7.88 13.46 7.88 13.36V11.41Z"/>
</svg>