<?xml version="1.0" encoding="UTF-8"?>
<svg viewBox="0 0 15 15" version="1.1" xmlns="http://www.w3.org/2000/svg" xmlns:xlink="http://www.w3.org/1999/xlink">
  <path d="M15,11 L15,14 L10,14 L10,11 L15,11 Z M0,4.5 L9,11 L9,14 L0,14 L0,4.5 Z M3.40239781,2.14581791 L7.18993959,3.83214015 C7.71144165,4.07623978 8.16240097,4.44879578 8.50052315,4.91486704 C8.75567094,5.28168266 9.10133679,5.57628768 9.50395439,5.77007408 L12.912742,7.28776411 L12.7441098,7.66651828 C12.6993857,7.76697014 12.6165891,7.84554119 12.5139342,7.8849467 C12.4112794,7.92435221 12.2971752,7.92136428 12.1967234,7.87664024 L9.16668994,6.52758244 C8.71037564,6.31399527 8.30807062,6.00205868 7.98810884,5.6151805 L7.74118964,5.29227394 C7.50071461,4.99625446 7.19755505,4.75609017 6.85267514,4.58964851 L6.68404292,4.96840269 C6.63931887,5.06885454 6.55652226,5.14742559 6.4538674,5.1868311 C6.35121253,5.22623661 6.23710837,5.22324869 6.13665652,5.17852464 L3.10662309,3.82946684 C2.89744294,3.73633384 2.80336813,3.4912606 2.89650114,3.28208044 L3.40239781,2.14581791 Z M9.76,-0.000351922941 L10.1791837,1.57774813 C10.3719045,1.98280978 10.5972571,2.37152256 10.8530122,2.74004066 C11.4460373,3.54867335 13.9245353,5.01523904 13.4186387,6.15150157 L13.2500064,6.53025575 L10.219973,5.18119795 C9.08371048,4.67530128 9.04222075,3.7491607 7.90595822,3.24326402 L3.73966226,1.38830955 L4.338,-0.000351922941 L9.76,-0.000351922941 Z"/>
</svg>