<?xml version="1.0" encoding="UTF-8"?>
<svg width="15px" height="15px" viewBox="0 0 15 15" version="1.1" xmlns="http://www.w3.org/2000/svg" xmlns:xlink="http://www.w3.org/1999/xlink">
    <title>microphone</title>
    <g id="microphone" stroke="none" fill="none" fill-rule="nonzero">
        <path d="M13.7627211,1.23727891 C12.593794,0.0585399437 10.8382902,-0.317116639 9.28934493,0.280030542 C7.7403997,0.877177722 6.69136449,2.33403626 6.61619266,3.99239848 L11.0076015,8.38380734 C12.6659637,8.30863551 14.1228223,7.2596003 14.7199695,5.71065507 C15.3171166,4.16170985 14.9414601,2.40620599 13.7627211,1.23727891 Z M3.37158484,8.64952953 L0.406684593,11.6284152 C-0.135561531,12.1738973 -0.135561531,13.0548714 0.406684593,13.6003535 L1.39964647,14.5933154 C1.94512861,15.1355615 2.8261027,15.1355615 3.37158484,14.5933154 L6.33648509,11.6284152 L9.30138534,8.66351491 L6.33648509,5.68462928 L3.37158484,8.64952953 Z M4.40650285,11.5724736 L3.41354098,10.5795118 L6.33648509,7.67055303 L7.32944697,8.66351491 L4.40650285,11.5724736 Z" id="Shape" fill="#000000"></path>
    </g>
</svg>