<svg xmlns="http://www.w3.org/2000/svg" viewBox="0 0 15 15">
<path d="M6.38 1C6.01 1.01 5.65 1.07 5.3 1.18C4.59 1.38 4.05 1.95 3.89 2.67L3.5 5L0.67 5C0.39 5 0.17 5.22 0.17 5.5C0.17 5.55 0.18 5.6 0.19 5.65L2.07 13.95C2.27 14.57 2.85 15 3.5 15L11.5 15C12.15 15 12.72 14.57 12.92 13.95L14.8 5.65C14.88 5.39 14.74 5.11 14.47 5.02C14.42 5.01 14.38 5 14.33 5L11.5 5L11.11 2.67C10.95 1.95 10.41 1.38 9.7 1.18C9.35 1.07 8.99 1.01 8.62 1L6.38 1ZM6.38 2L8.62 2C8.88 2.01 9.14 2.05 9.39 2.13C9.76 2.19 10.05 2.47 10.13 2.83L10.48 5L4.52 5L4.88 2.83C4.96 2.47 5.25 2.19 5.62 2.13C5.87 2.05 6.12 2.01 6.38 2ZM5.95 6L9.15 6C9.44 6 9.68 6.24 9.68 6.53C9.68 6.83 9.44 7 9.15 7L8.61 7L8.61 7.77C9.02 7.94 9.39 8.25 9.66 8.67L8.85 8.67C8.75 8.28 8.66 7.95 8.61 7.77C8.51 7.72 8.31 7.69 8.21 7.66C8.26 7.81 8.37 8.2 8.48 8.67L7.14 8.67C7.26 8.2 7.37 7.81 7.41 7.66C7.31 7.69 7.12 7.72 7.02 7.77C6.97 7.95 6.88 8.28 6.78 8.67L5.96 8.67C6.24 8.25 6.6 7.94 7.01 7.77L7.01 7L5.95 7C5.95 7 5.35 7.34 5.03 8.04C4.7 8.74 4.84 11.33 4.57 11.33C4.29 11.33 4.15 8.69 4.46 7.77C4.78 6.85 5.95 6 5.95 6ZM5.8 9.03L6.71 9.03C6.6 9.53 6.5 9.98 6.49 10.4L5.41 10.4C5.43 9.88 5.57 9.47 5.8 9.03ZM7.08 9.03L8.54 9.03C8.66 9.53 8.76 9.98 8.78 10.4L6.85 10.4C6.87 9.98 6.97 9.53 7.08 9.03ZM8.91 9.03L9.82 9.03C10.06 9.47 10.19 9.88 10.21 10.4L9.14 10.4C9.13 9.98 9.02 9.53 8.91 9.03ZM5.41 10.77L6.49 10.77C6.5 11.19 6.61 11.65 6.72 12.15L5.81 12.15C5.57 11.71 5.43 11.3 5.41 10.77ZM6.85 10.77L8.78 10.77C8.76 11.19 8.65 11.65 8.54 12.15L7.09 12.15C6.97 11.65 6.87 11.19 6.85 10.77ZM9.14 10.77L10.21 10.77C10.19 11.3 10.06 11.71 9.82 12.15L8.91 12.15C9.02 11.65 9.13 11.19 9.14 10.77ZM5.97 12.52L6.79 12.52C6.88 12.89 6.97 13.11 7.02 13.3C7.12 13.34 7.31 13.38 7.41 13.4C7.37 13.25 7.26 12.97 7.15 12.52L8.48 12.52C8.36 12.97 8.26 13.25 8.21 13.4C8.31 13.38 8.51 13.34 8.61 13.3C8.66 13.11 8.75 12.89 8.84 12.52L9.65 12.52C9.38 12.92 9.02 13.12 8.61 13.3L8.61 14L7.01 14L7.01 13.3C6.61 13.12 6.25 12.92 5.97 12.52Z"/>
</svg>