<?xml version="1.0" encoding="UTF-8"?>
<svg width="15px" height="15px" viewBox="0 0 15 15" version="1.1" xmlns="http://www.w3.org/2000/svg" xmlns:xlink="http://www.w3.org/1999/xlink">
    <title>station_wagon_with_raised_hood</title>
    <g id="station_wagon_with_raised_hood" stroke="none" fill="none" fill-rule="evenodd">
        <path d="M3.5,9.1 C4.27319865,9.1 4.9,9.72680135 4.9,10.5 C4.9,11.2731986 4.27319865,11.9 3.5,11.9 C2.72680135,11.9 2.1,11.2731986 2.1,10.5 C2.1,9.72680135 2.72680135,9.1 3.5,9.1 Z M11.5,9.1 C12.2731986,9.1 12.9,9.72680135 12.9,10.5 C12.9,11.2731986 12.2731986,11.9 11.5,11.9 C10.7268014,11.9 10.1,11.2731986 10.1,10.5 C10.1,9.72680135 10.7268014,9.1 11.5,9.1 Z M13.4090097,3.8232233 C13.799534,3.43269901 14.432699,3.43269901 14.8232233,3.8232233 L15,4 L12.3,6.699 L13.9263979,7.18168016 C14.5631945,7.37048847 15,7.95560102 15,8.61979868 L15,10 C15,10.2761424 14.7761424,10.5 14.5,10.5 L13.6999998,10.498997 C13.6994579,9.28443154 12.7146921,8.3 11.5,8.3 C10.2849736,8.3 9.3,9.28497355 9.3,10.5 L9.3,10.499 L5.69999978,10.498997 C5.69948146,9.33725327 4.79848592,8.38606158 3.65711502,8.30552381 L3.5,8.3 C2.28497355,8.3 1.3,9.28497355 1.3,10.5 L1.299,10.499 L0.75,10.5 C0.335786438,10.5 -2.84217094e-14,10.1642136 -2.84217094e-14,9.75 L-2.86992652e-14,9.2795085 C-2.84217094e-14,9.10820722 0.0967834839,8.95160826 0.25,8.875 C0.394957172,8.80252141 0.467736352,8.63707723 0.42321311,8.48124589 L0.117183685,7.4101429 C0.0423241632,7.14813457 0.0776275189,6.86692425 0.214928732,6.63155075 L1.46059143,4.49612897 C1.63980176,4.18891127 1.96870327,4 2.32437033,4 L9.72886478,4 C9.89798871,4 10.0556499,4.08549499 10.1479115,4.22723665 L11.274,5.957 Z M4,5 L2.55901699,5 C2.36963097,5 2.19649941,5.10700119 2.1118034,5.2763932 L1.25,7 L4,7 L4,5 Z M7,5 L5,5 L5,7 L7,7 L7,5 Z M9.25,5 L8,5 L8,7 L10.5,7 L9.25,5 Z" id="Shape" fill="#000000"></path>
    </g>
</svg>