<?xml version="1.0" encoding="UTF-8"?>
<svg viewBox="0 0 15 15" version="1.1" xmlns="http://www.w3.org/2000/svg" xmlns:xlink="http://www.w3.org/1999/xlink">
  <path d="M15,9.21 C15,10.48 13.97,11.5 12.69,11.5 L2.31,11.5 C1.03,11.5 0,10.48 0,9.21 L0,5.79 C0,4.52 1.03,3.5 2.31,3.5 L12.69,3.5 C13.97,3.5 15,4.52 15,5.79 L15,9.21 Z M4.5,7.5 C4.5,6.67 3.83,6 3,6 C2.17,6 1.5,6.67 1.5,7.5 C1.5,8.33 2.17,9 3,9 C3.83,9 4.5,8.33 4.5,7.5 Z M9,7.5 C9,6.67 8.33,6 7.5,6 C6.67,6 6,6.67 6,7.5 C6,8.33 6.67,9 7.5,9 C8.33,9 9,8.33 9,7.5 Z M13.5,7.5 C13.5,6.67 12.83,6 12,6 C11.17,6 10.5,6.67 10.5,7.5 C10.5,8.33 11.17,9 12,9 C12.83,9 13.5,8.33 13.5,7.5 Z"/>
</svg>