<?xml version="1.0" encoding="UTF-8"?>
<svg viewBox="0 0 15 15" version="1.1" xmlns="http://www.w3.org/2000/svg" xmlns:xlink="http://www.w3.org/1999/xlink">
  <path d="M13.5,9.21 C13.5,10.48 12.47,11.5 11.19,11.5 L3.81,11.5 C2.53,11.5 1.5,10.48 1.5,9.21 L1.5,5.79 C1.5,4.52 2.53,3.5 3.81,3.5 L11.19,3.5 C12.47,3.5 13.5,4.52 13.5,5.79 L13.5,9.21 Z M6.5,7.5 C6.5,6.67 5.83,6 5,6 C4.17,6 3.5,6.67 3.5,7.5 C3.5,8.33 4.17,9 5,9 C5.83,9 6.5,8.33 6.5,7.5 Z M11.5,7.5 C11.5,6.67 10.83,6 10,6 C9.17,6 8.5,6.67 8.5,7.5 C8.5,8.33 9.17,9 10,9 C10.83,9 11.5,8.33 11.5,7.5 Z"/>
</svg>