<svg xmlns="http://www.w3.org/2000/svg" viewBox="0 0 15 15">
<path d="M 6.53,1.6 C 6.53,1.03 6.07,0.62 5.55,0.62 4.98,0.62 4.57,1.07 4.57,1.6 4.57,2.16 5.02,2.58 5.55,2.58 6.11,2.58 6.53,2.12 6.53,1.6 M 8.98,0.98 C 8.98,0.42 8.52,0 8,0 7.43,0 7.02,0.46 7.02,0.98 7.02,1.55 7.47,1.96 8,1.96 8.56,1.96 8.98,1.51 8.98,0.98 M 10.45,0.78 C 10.37,0.57 10.13,0.45 9.91,0.54 9.9,0.54 9.89,0.55 9.88,0.55 9.98,0.59 10.08,0.65 10.16,0.72 10.46,1 10.48,1.48 10.2,1.8 10.14,1.84 10.13,1.92 10.17,1.97 10.18,1.99 10.19,2 10.2,2 10.44,2.33 10.67,2.67 10.86,2.98 10.89,3.03 10.9,3.09 10.88,3.14 10.85,3.2 10.77,3.23 10.71,3.19 L 9.89,2.58 9.58,3.56 11.05,4.38 C 11.36,4.59 11.77,4.59 12.03,4.38 12.24,4.16 12.3,3.84 12.2,3.59 Z M 5.25,11.22 6.23,11.09 5.96,14.52 C 5.92,14.83 5.64,15.04 5.34,14.99 5.04,14.95 4.83,14.68 4.89,14.37 Z M 6.68,11.05 7.66,10.92 7.77,14.35 C 7.76,14.52 7.49,14.84 7.19,14.81 6.88,14.77 6.67,14.49 6.71,14.2 Z M 6.22,3 C 6.32,2.87 6.47,2.8 6.64,2.8 L 8.5,2.18 8.29,2.58 5.82,3.4 Z M 3.97,5.07 C 3.94,5.04 3.93,5 3.94,4.96 3.95,4.9 4.02,4.85 4.08,4.87 H 4.99 L 5.97,6.14 C 5.99,6.16 6.01,6.18 6.03,6.21 6.16,6.42 6.12,6.69 5.91,6.83 5.7,6.98 5.43,6.92 5.32,6.73 Z M 5.6,3.27 H 4.98 L 3.11,3.79 C 2.92,3.8 2.76,3.95 2.76,4.15 2.77,4.34 2.92,4.49 3.11,4.49 H 4.98 L 6.16,5.97 C 6.16,5.97 6.16,5.98 6.17,5.99 6.45,6.31 6.4,6.79 6.09,7.06 5.76,7.33 5.28,7.29 5.01,6.97 L 4.83,6.76 4.1,10.69 8.91,10.08 7.05,5.37 6.84,4.54 C 6.85,4.44 7.04,4.35 7.15,4.34 L 9.01,3.73 C 9.1,3.69 9.18,3.62 9.21,3.52 L 9.82,1.36 C 9.88,1.14 9.74,0.91 9.51,0.86 9.29,0.8 9.06,0.94 9.01,1.17 9,1.19 9,1.21 9,1.23 L 8.39,2.89 C 8.37,2.98 8.28,3.05 8.19,3.06 L 6.13,3.71 4.71,3.8 Z M 9.17,4.12 9.36,7.15 11.72,13.43 C 11.8,13.73 11.63,14.02 11.34,14.11 11.04,14.19 10.74,14.01 10.66,13.72 L 7.52,5.38 7.32,4.74 Z M 9.17,10.54 8.19,10.66 V 14.29 C 8.18,14.6 8.42,14.85 8.74,14.85 9.04,14.85 9.29,14.6 9.29,14.28 Z" />
</svg>
