<svg xmlns="http://www.w3.org/2000/svg" viewBox="0 0 15 15">
<path d="M 11.59,1.12 A 1.28,1.28 0 0 1 12.87,2.4 1.28,1.28 0 0 1 11.59,3.69 1.28,1.28 0 0 1 10.31,2.4 1.28,1.28 0 0 1 11.59,1.12 Z M 9.61,3.19 C 9.98,3.19 10.35,3.25 10.7,3.71 L 11.88,5.18 14.25,4.75 C 15.08,4.61 15.18,5.71 14.51,5.83 L 11.35,6.33 10.54,5.43 9.26,7.21 14.29,7.71 C 15.16,7.82 15.01,9.11 14.14,9.01 L 6.74,8.53 4.88,10.11 C 4.74,10.23 4.52,10.29 4.27,10.24 L 0.63,9.44 C -0.33,9.26 -0.01,7.96 0.92,8.15 L 3.98,8.73 7.83,4.7 C 7.95,4.57 7.86,4.45 7.75,4.46 L 4.3,5 C 3.33,5.11 3.32,4.01 4.19,3.92 L 9.12,3.25 C 9.24,3.23 9.36,3.23 9.49,3.21 Z M 9.38,9.51 C 9.75,9.51 10.04,9.78 10.04,10.13 V 13.88 H 8.76 V 10.13 C 8.76,9.78 9.04,9.51 9.41,9.51 Z" />
</svg>