<svg xmlns="http://www.w3.org/2000/svg" viewBox="0 0 15 15">
<path
 d="M 9.09,0 C 8.8,-0.01 8.53,0.15 8.4,0.42 8.32,0.7 8.22,0.98 8.12,1.26 7.62,1.2 7.12,1.28 6.66,1.46 6.5,1.59 6.4,1.79 6.38,2 6.36,2.41 6.67,2.76 7.08,2.78 7.48,2.79 7.87,2.74 8.26,2.65 8.27,2.7 8.28,2.76 8.3,2.82 8.48,3.36 9.06,3.66 9.61,3.49 10.16,3.31 10.46,2.72 10.28,2.17 10.98,2.05 11.59,1.64 11.98,1.05 12.03,0.92 11.98,0.77 11.87,0.69 11.73,0.6 11.55,0.63 11.45,0.77 10.97,1.15 10.3,1.18 9.79,0.84 9.78,0.62 9.71,0.4 9.58,0.21 9.53,0.16 9.4,0.03 9.09,0 Z M 9.19,3.76 C 8.78,3.74 8.38,3.97 8.2,4.37 L 7.33,5.72 C 7.28,5.79 6.58,8.33 6.58,8.33 6.52,8.43 6.49,8.54 6.48,8.65 6.2,8.69 5.92,8.72 5.64,8.73 5.41,8.75 5.19,8.8 4.98,8.88 4.72,8.98 4.48,9.12 4.26,9.29 4.1,9.42 3.95,9.57 3.81,9.73 3.63,9.93 3.48,10.15 3.34,10.38 3.21,10.61 3.1,10.85 3.02,11.1 2.95,11.31 2.89,11.53 2.85,11.74 2.78,12.13 2.78,12.53 2.83,12.92 2.83,13.39 2.99,13.84 3.28,14.21 3.62,14.63 4.1,14.91 4.64,14.98 4.87,15.01 5.1,15 5.33,14.96 5.63,14.9 5.92,14.77 6.16,14.58 6.5,14.3 6.82,13.99 7.1,13.66 7.17,13.56 7.24,13.47 7.3,13.37 L 7.25,13.96 C 7.24,13.99 7.23,14.02 7.23,14.06 7.2,14.37 7.42,14.64 7.73,14.67 8.04,14.7 8.32,14.48 8.35,14.17 L 8.67,11.22 8.91,9.1 C 8.96,9.04 9.05,9.03 9.09,9.06 9.09,9.07 10.33,14.17 10.33,14.17 10.33,14.2 10.34,14.23 10.35,14.27 10.43,14.57 10.75,14.75 11.05,14.66 11.36,14.58 11.54,14.26 11.45,13.96 L 10.02,7.91 9.91,6.25 C 9.92,6.19 9.97,6.15 10.03,6.16 10.08,6.16 10.12,6.2 10.12,6.25 L 11.43,8.75 C 11.44,8.77 11.45,8.78 11.46,8.8 11.6,8.98 11.87,9.01 12.05,8.87 12.23,8.73 12.26,8.46 12.12,8.28 L 10.75,5.74 10.12,4.37 C 9.95,3.99 9.57,3.76 9.19,3.76 Z M 8.03,6.17 C 8.09,6.17 8.12,6.2 8.13,6.25 L 7.83,8.12 7.64,9.87 C 7.61,9.82 7.58,9.77 7.55,9.73 7.49,9.62 7.41,9.51 7.34,9.4 L 7.2,9.2 C 7.17,9.15 7.15,9.12 7.12,9.09 7.08,9.04 7.02,9 6.96,8.98 7.12,9 7.26,8.9 7.3,8.75 L 7.92,6.25 C 7.93,6.2 7.97,6.16 8.03,6.17 Z M 5.66,8.94 C 5.06,9.22 4.78,9.93 5.06,10.54 5.33,11.15 6.05,11.42 6.65,11.14 7.26,10.87 7.53,10.15 7.26,9.55 7.66,10.21 7.45,11.07 6.79,11.47 6.13,11.87 5.27,11.66 4.87,11 4.47,10.34 4.68,9.48 5.34,9.08 5.44,9.02 5.55,8.97 5.66,8.94 Z M 6.16,9.16 C 6.62,9.16 7,9.54 7,10 7,10.46 6.62,10.83 6.16,10.83 5.7,10.83 5.33,10.46 5.33,10 5.33,9.54 5.7,9.16 6.16,9.16 Z M 4.53,9.57 C 4.07,10.39 4.37,11.42 5.18,11.87 6,12.32 7.03,12.03 7.48,11.21 V 11.22 L 7.36,12.62 7.17,13.01 6.89,13.44 6.65,13.73 6.38,13.98 6.1,14.2 5.53,14.47 C 5.36,14.53 5.23,14.56 5.09,14.58 4.97,14.59 4.84,14.59 4.71,14.57 4.6,14.56 4.48,14.53 4.37,14.49 4.25,14.45 4.14,14.4 4.04,14.34 3.94,14.27 3.84,14.2 3.75,14.11 3.66,14.02 3.57,13.92 3.5,13.81 L 3.34,13.54 3.21,13.25 3.13,12.91 3.09,12.56 V 12.19 L 3.14,11.81 3.19,11.56 3.31,11.18 3.46,10.81 3.65,10.46 3.87,10.14 4.12,9.85 4.38,9.58 4.58,9.44 C 4.6,9.44 4.56,9.5 4.53,9.57 Z M 6.16,9.58 C 5.93,9.58 5.75,9.77 5.75,10 5.75,10.23 5.93,10.42 6.16,10.42 6.39,10.42 6.58,10.23 6.58,10 6.58,9.77 6.39,9.58 6.16,9.58 Z" />
</svg>
