<svg xmlns="http://www.w3.org/2000/svg" viewBox="0 0 15 15">
<path d="M 7.55,0 C 6.89,0 6.35,0.53 6.35,1.2 6.34,1.85 6.88,2.39 7.55,2.39 8.21,2.39 8.74,1.85 8.74,1.2 8.74,0.54 8.21,0 7.55,0 Z M 8.94,7.17 V 4.58 L 9.74,7.17 9.91,7.72 C 9.93,7.77 10.1,8.28 10.52,8.19 10.79,8.13 10.85,7.89 10.86,7.72 L 10.74,7.17 9.55,3.19 C 9.44,2.77 9.26,2.56 8.75,2.56 H 6.26 C 5.75,2.56 5.57,2.77 5.46,3.19 L 4.27,7.17 4.14,7.72 C 4.15,7.89 4.21,8.13 4.49,8.19 4.91,8.28 5.09,7.77 5.1,7.72 L 5.27,7.17 6.06,4.58 V 7.77 L 5.26,14.35 C 5.26,14.35 5.19,14.91 5.77,14.99 6.35,15.07 6.47,14.46 6.47,14.46 L 7.37,8.79 C 7.4,8.67 7.41,8.63 7.51,8.63 7.62,8.63 7.62,8.67 7.66,8.79 L 8.54,14.46 C 8.54,14.46 8.66,15.07 9.24,14.99 9.83,14.91 9.76,14.35 9.76,14.35 L 8.96,7.77 Z" />
</svg>
