<svg xmlns="http://www.w3.org/2000/svg" viewBox="0 0 15 15" aria-describedby="arrow_left_from_right_bracket">
  <title id="arrow_left_from_right_bracket">Arrow Left From Right Bracket</title>
<path d="M8.96 12L12.96 12L12.96 3L8.96 3L8.96 1L13.96 1C14.51 1 14.96 1.45 14.96 2L14.96 13C14.96 13.55 14.51 14 13.96 14L8.96 14L8.96 12ZM0.05 7.5L4.75 12.21C5.14 12.6 5.78 12.6 6.17 12.21C6.56 11.82 6.56 11.18 6.17 10.79L3.87 8.5L10.96 8.5L10.96 6.5L3.87 6.5L6.17 4.21C6.54 3.85 6.56 3.28 6.25 2.89L6.17 2.79C5.78 2.4 5.14 2.4 4.75 2.79L0.05 7.5Z"/>
</svg>