<svg xmlns="http://www.w3.org/2000/svg" viewBox="0 0 15 15">
  <path d="M10.92 0.76L11.58 1.42L12.08 0.92C12.16 0.85 12.28 0.83 12.37 0.89L12.41 0.92L14.08 2.59C14.17 2.68 14.17 2.83 14.08 2.92L13.58 3.42L14.77 4.61C14.86 4.7 14.91 4.82 14.91 4.94C14.91 5.2 14.7 5.41 14.44 5.41L11.65 5.41L11.73 5.91C11.81 6.43 11.89 7.05 11.98 7.77C12.16 9.21 11.66 10.65 10.64 11.68L7.59 14.72C7.22 15.09 6.63 15.09 6.26 14.72L0.28 8.74C-0.09 8.37 -0.09 7.78 0.28 7.41L3.32 4.36C4.18 3.5 5.34 3.01 6.53 2.99C6.41 2.2 6.65 1.36 7.26 0.76C8.27 -0.25 9.91 -0.25 10.92 0.76ZM8.1 4.78L6.71 6.76L6.61 5.6L6.08 5.81C6.02 5.84 5.95 5.81 5.92 5.76L5.28 4.78L4.7 5.91C4.67 5.97 4.6 6 4.53 5.98L4.07 5.81L4.51 7.85L3.63 8.32L5.4 9.37L3.67 10.77C3.69 10.91 3.75 11.04 3.85 11.15C3.96 11.25 4.1 11.32 4.27 11.37L5.63 9.6L6.67 11.34L7.15 10.49L9.19 10.93L9.02 10.46C8.99 10.4 9.02 10.33 9.09 10.29L10.22 9.72L9.24 9.08C9.18 9.05 9.16 8.98 9.18 8.92L9.4 8.39L8.24 8.29L10.22 6.9L9.28 6.66L9.98 5.02L8.34 5.72L8.1 4.78ZM13.75 5.75C13.89 6.18 14.03 6.5 14.18 6.74L14.28 6.89C14.38 7.04 14.54 7.23 14.73 7.47C14.91 7.69 15 7.97 15 8.25C15 8.94 14.43 9.5 13.75 9.5L13.61 9.49C13.38 9.47 13.16 9.37 12.97 9.23C12.43 8.8 12.34 8.01 12.77 7.47L12.88 7.34C13.09 7.07 13.23 6.87 13.32 6.74C13.47 6.5 13.62 6.16 13.75 5.75ZM8.26 1.76C7.89 2.13 7.81 2.68 8.04 3.13L8.91 3.25L9.65 3.36L10.58 2.42L9.92 1.76C9.46 1.3 8.72 1.3 8.26 1.76Z"/>
</svg>